Gemunu-sinhala-0.ufo
<glyph name="anusvara" format="1">
  <advance width="417"/>
  <unicode hex="0D82"/>
  <outline>
    <contour>
      <point x="76" y="18" type="line" smooth="yes"/>
      <point x="42.0589" y="18"/>
      <point x="22" y="32.9844"/>
      <point x="22" y="69" type="curve" smooth="yes"/>
      <point x="22" y="389" type="line" smooth="yes"/>
      <point x="22" y="420.569"/>
      <point x="39.854" y="446"/>
      <point x="84" y="446" type="curve" smooth="yes"/>
      <point x="314.996" y="446" type="line" smooth="yes"/>
      <point x="358.244" y="446"/>
      <point x="370" y="422.025"/>
      <point x="370" y="388" type="curve" smooth="yes"/>
      <point x="370" y="73" type="line" smooth="yes"/>
      <point x="370" y="38.0469"/>
      <point x="356.673" y="18"/>
      <point x="313.996" y="18" type="curve" smooth="yes"/>
    </contour>
    <contour>
      <point x="59" y="386" type="curve" smooth="yes"/>
      <point x="59" y="75" type="line" smooth="yes"/>
      <point x="59" y="59.9459"/>
      <point x="65.6208" y="50.1992"/>
      <point x="88" y="50.1992" type="curve" smooth="yes"/>
      <point x="305.996" y="50.1992" type="line" smooth="yes"/>
      <point x="325.147" y="50.1992"/>
      <point x="332.996" y="60.166"/>
      <point x="332.996" y="79" type="curve" smooth="yes"/>
      <point x="332.996" y="384" type="line" smooth="yes"/>
      <point x="332.996" y="404.21"/>
      <point x="326.895" y="413.796"/>
      <point x="306.996" y="413.796" type="curve" smooth="yes"/>
      <point x="88" y="413.796" type="line" smooth="yes"/>
      <point x="68.5713" y="413.796"/>
      <point x="59" y="402.658"/>
    </contour>
  </outline>
</glyph>
<glyph name="si_U" format="1">
  <advance width="521"/>
  <unicode hex="0D8B"/>
  <outline>
    <contour>
      <point x="93.001" y="497" type="line"/>
      <point x="396.999" y="497" type="line" smooth="yes"/>
      <point x="437.665" y="497"/>
      <point x="462" y="478.366"/>
      <point x="462" y="438" type="curve" smooth="yes"/>
      <point x="462" y="321" type="line"/>
      <point x="106.601" y="321" type="line" smooth="yes"/>
      <point x="72.0156" y="321"/>
      <point x="59" y="312.879"/>
      <point x="59" y="279" type="curve" smooth="yes"/>
      <point x="59" y="-73" type="line" smooth="yes"/>
      <point x="59" y="-110.978"/>
      <point x="64.8389" y="-121.001"/>
      <point x="93" y="-121.001" type="curve" smooth="yes"/>
      <point x="399.999" y="-121.001" type="line" smooth="yes"/>
      <point x="424.024" y="-121.001"/>
      <point x="427.998" y="-105.333"/>
      <point x="427.998" y="-92" type="curve" smooth="yes"/>
      <point x="427.998" y="97.9863" type="line"/>
      <point x="465" y="97.9863" type="line"/>
      <point x="465" y="-92" type="line" smooth="yes"/>
      <point x="465" y="-138.04"/>
      <point x="445.333" y="-153"/>
      <point x="406" y="-153" type="curve" smooth="yes"/>
      <point x="76" y="-153" type="line" smooth="yes"/>
      <point x="34.0893" y="-153"/>
      <point x="22.001" y="-122.863"/>
      <point x="22.001" y="-86" type="curve" smooth="yes"/>
      <point x="22.001" y="280.995" type="line" smooth="yes"/>
      <point x="22.001" y="328.995"/>
      <point x="46.668" y="352.994"/>
      <point x="96.001" y="352.995" type="curve" smooth="yes"/>
      <point x="424.998" y="353" type="line"/>
      <point x="424.999" y="433" type="line" smooth="yes"/>
      <point x="424.999" y="449.373"/>
      <point x="420.482" y="465"/>
      <point x="391.999" y="465" type="curve" smooth="yes"/>
      <point x="93.001" y="465" type="line"/>
    </contour>
  </outline>
</glyph>
<glyph name="si_vocalicL" format="1">
  <advance width="869"/>
  <unicode hex="0D8F"/>
  <outline>
    <contour>
      <point x="779.779" y="139.2" type="curve" smooth="yes"/>
      <point x="779.777" y="84" type="line" smooth="yes"/>
      <point x="779.776" y="55.1035"/>
      <point x="772.614" y="46.001"/>
      <point x="753.779" y="46.001" type="curve" smooth="yes"/>
      <point x="711.986" y="46.001" type="line" smooth="yes"/>
      <point x="695.655" y="46.001"/>
      <point x="693.988" y="53.8984"/>
      <point x="693.988" y="62" type="curve" smooth="yes"/>
      <point x="693.988" y="157" type="line" smooth="yes"/>
      <point x="693.988" y="168.673"/>
      <point x="698.695" y="178.997"/>
      <point x="714.779" y="178.997" type="curve" smooth="yes"/>
      <point x="738.779" y="178.997" type="line" smooth="yes"/>
      <point x="766.757" y="178.997"/>
      <point x="779.78" y="160.851"/>
    </contour>
    <contour>
      <point x="568.785" y="495" type="line"/>
      <point x="605.779" y="495" type="line"/>
      <point x="605.779" y="535" type="line" smooth="yes"/>
      <point x="605.779" y="563.29"/>
      <point x="614.338" y="569.196"/>
      <point x="639.779" y="569.196" type="curve" smooth="yes"/>
      <point x="731.779" y="569.196" type="line" smooth="yes"/>
      <point x="753.228" y="569.196"/>
      <point x="779.779" y="557.545"/>
      <point x="779.779" y="522" type="curve" smooth="yes"/>
      <point x="779.779" y="198" type="line"/>
      <point x="776.785" y="201.813"/>
      <point x="769.314" y="211"/>
      <point x="746.779" y="211" type="curve" smooth="yes"/>
      <point x="706.779" y="211" type="line" smooth="yes"/>
      <point x="679.779" y="211"/>
      <point x="656.985" y="196.022"/>
      <point x="656.985" y="160.8" type="curve" smooth="yes"/>
      <point x="656.986" y="57" type="line" smooth="yes"/>
      <point x="656.986" y="27.0693"/>
      <point x="676.394" y="14"/>
      <point x="703.986" y="14" type="curve" smooth="yes"/>
      <point x="762.779" y="14" type="line" smooth="yes"/>
      <point x="797.97" y="14"/>
      <point x="816.779" y="36.6445"/>
      <point x="816.779" y="78" type="curve" smooth="yes"/>
      <point x="816.779" y="527" type="line" smooth="yes"/>
      <point x="816.779" y="563.775"/>
      <point x="794.208" y="601"/>
      <point x="737.779" y="601" type="curve" smooth="yes"/>
      <point x="635.785" y="601" type="line" smooth="yes"/>
      <point x="581.045" y="601"/>
      <point x="568.785" y="578.801"/>
      <point x="568.785" y="538" type="curve" smooth="yes"/>
    </contour>
    <contour>
      <point x="59" y="139.2" type="curve" smooth="yes"/>
      <point x="59.002" y="84" type="line" smooth="yes"/>
      <point x="59.003" y="55.1035"/>
      <point x="66.1649" y="46.001"/>
      <point x="85" y="46.001" type="curve" smooth="yes"/>
      <point x="126.793" y="46.001" type="line" smooth="yes"/>
      <point x="143.124" y="46.001"/>
      <point x="144.791" y="53.8985"/>
      <point x="144.791" y="62" type="curve" smooth="yes"/>
      <point x="144.791" y="157" type="line" smooth="yes"/>
      <point x="144.791" y="168.673"/>
      <point x="140.084" y="178.997"/>
      <point x="124" y="178.997" type="curve" smooth="yes"/>
      <point x="100" y="178.997" type="line" smooth="yes"/>
      <point x="72.0226" y="178.997"/>
      <point x="58.999" y="160.851"/>
    </contour>
    <contour>
      <point x="269.994" y="495" type="line"/>
      <point x="233" y="495" type="line"/>
      <point x="233" y="535" type="line" smooth="yes"/>
      <point x="233" y="563.29"/>
      <point x="224.441" y="569.196"/>
      <point x="199" y="569.196" type="curve" smooth="yes"/>
      <point x="107" y="569.196" type="line" smooth="yes"/>
      <point x="85.5516" y="569.196"/>
      <point x="59" y="557.545"/>
      <point x="59" y="522" type="curve" smooth="yes"/>
      <point x="59" y="198" type="line"/>
      <point x="61.9941" y="201.813"/>
      <point x="69.4648" y="211"/>
      <point x="92" y="211" type="curve" smooth="yes"/>
      <point x="132" y="211" type="line" smooth="yes"/>
      <point x="159" y="211"/>
      <point x="181.794" y="196.022"/>
      <point x="181.794" y="160.8" type="curve" smooth="yes"/>
      <point x="181.793" y="57" type="line" smooth="yes"/>
      <point x="181.793" y="27.0693"/>
      <point x="162.386" y="14"/>
      <point x="134.793" y="14" type="curve" smooth="yes"/>
      <point x="76" y="14" type="line" smooth="yes"/>
      <point x="40.8097" y="14"/>
      <point x="22" y="36.6444"/>
      <point x="22" y="78" type="curve" smooth="yes"/>
      <point x="22" y="527" type="line" smooth="yes"/>
      <point x="22" y="563.775"/>
      <point x="44.5712" y="601"/>
      <point x="101" y="601" type="curve" smooth="yes"/>
      <point x="202.994" y="601" type="line" smooth="yes"/>
      <point x="257.734" y="601"/>
      <point x="269.994" y="578.801"/>
      <point x="269.994" y="538" type="curve" smooth="yes"/>
    </contour>
    <component base="si_Pa" xOffset="177"/>
  </outline>
</glyph>
<glyph name="si_Oo" format="1">
  <advance width="515"/>
  <unicode hex="0D95"/>
  <outline>
    <contour>
      <point x="460" y="400" type="line"/>
      <point x="423" y="400" type="line"/>
      <point x="423" y="484" type="line" smooth="yes"/>
      <point x="423" y="513.546"/>
      <point x="406.062" y="518"/>
      <point x="387" y="518" type="curve" smooth="yes"/>
      <point x="14" y="518" type="line"/>
      <point x="14" y="550" type="line"/>
      <point x="82" y="550" type="line"/>
      <point x="52.667" y="557.333"/>
      <point x="50" y="582.667"/>
      <point x="50" y="604" type="curve" smooth="yes"/>
      <point x="50" y="632" type="line" smooth="yes"/>
      <point x="50" y="659.333"/>
      <point x="66.3333" y="673"/>
      <point x="99" y="673" type="curve" smooth="yes"/>
      <point x="458" y="673" type="line"/>
      <point x="458" y="641" type="line"/>
      <point x="102.5" y="641" type="line" smooth="yes"/>
      <point x="87.5312" y="641"/>
      <point x="87" y="633.667"/>
      <point x="87" y="616" type="curve" smooth="yes"/>
      <point x="87" y="573.678"/>
      <point x="97.3973" y="550"/>
      <point x="168" y="550" type="curve" smooth="yes"/>
      <point x="391" y="550" type="line" smooth="yes"/>
      <point x="446.441" y="550"/>
      <point x="460" y="525.687"/>
      <point x="460" y="469" type="curve" smooth="yes"/>
    </contour>
    <contour>
      <point x="423" y="415.001" type="line"/>
      <point x="459.996" y="415.001" type="line"/>
      <point x="459.996" y="50" type="line" smooth="yes"/>
      <point x="459.996" y="19.6377"/>
      <point x="446.395" y="-4.08989e-15"/>
      <point x="412.998" y="0" type="curve" smooth="yes"/>
      <point x="290.202" y="0" type="line" smooth="yes"/>
      <point x="264.211" y="0"/>
      <point x="246.166" y="8.12695"/>
      <point x="241.202" y="28" type="curve"/>
      <point x="236.974" y="9.81934"/>
      <point x="217.472" y="0"/>
      <point x="194.202" y="0" type="curve" smooth="yes"/>
      <point x="69" y="0" type="line" smooth="yes"/>
      <point x="37.6096" y="0"/>
      <point x="22" y="15.0176"/>
      <point x="22" y="48" type="curve" smooth="yes"/>
      <point x="22" y="361.998" type="line" smooth="yes"/>
      <point x="22" y="400.553"/>
      <point x="40.0205" y="426.998"/>
      <point x="81" y="426.998" type="curve" smooth="yes"/>
      <point x="154.981" y="426.998" type="line" smooth="yes"/>
      <point x="180.974" y="426.998"/>
      <point x="195.982" y="417.977"/>
      <point x="195.982" y="391.998" type="curve" smooth="yes"/>
      <point x="195.982" y="268.603" type="line" smooth="yes"/>
      <point x="195.982" y="257.226"/>
      <point x="200.09" y="251.8"/>
      <point x="209.982" y="251.8" type="curve" smooth="yes"/>
      <point x="269.189" y="251.8" type="line" smooth="yes"/>
      <point x="279.572" y="251.8"/>
      <point x="283.992" y="256.79"/>
      <point x="283.992" y="268.603" type="curve" smooth="yes"/>
      <point x="283.992" y="426.998" type="line"/>
      <point x="321.187" y="426.998" type="line"/>
      <point x="321.187" y="254.603" type="line" smooth="yes"/>
      <point x="321.187" y="231.27"/>
      <point x="308.187" y="219.603"/>
      <point x="282.187" y="219.603" type="curve" smooth="yes"/>
      <point x="193.789" y="219.603" type="line" smooth="yes"/>
      <point x="172.228" y="219.603"/>
      <point x="158.79" y="227.909"/>
      <point x="158.79" y="249.603" type="curve" smooth="yes"/>
      <point x="158.79" y="382" type="line" smooth="yes"/>
      <point x="158.79" y="388.998"/>
      <point x="155.947" y="394"/>
      <point x="146.982" y="394" type="curve" smooth="yes"/>
      <point x="86" y="394" type="line" smooth="yes"/>
      <point x="66.8975" y="394"/>
      <point x="59" y="382.669"/>
      <point x="59" y="361" type="curve" smooth="yes"/>
      <point x="59" y="62.8047" type="line" smooth="yes"/>
      <point x="59" y="38.8075"/>
      <point x="62.8701" y="32"/>
      <point x="86" y="32" type="curve" smooth="yes"/>
      <point x="182.399" y="32" type="line" smooth="yes"/>
      <point x="206.098" y="32"/>
      <point x="222.401" y="38.9307"/>
      <point x="222.401" y="78" type="curve" smooth="yes"/>
      <point x="222.401" y="150" type="line"/>
      <point x="259.398" y="150" type="line"/>
      <point x="259.398" y="78.002" type="line" smooth="yes"/>
      <point x="259.398" y="39.5283"/>
      <point x="276.043" y="32"/>
      <point x="301.4" y="32" type="curve" smooth="yes"/>
      <point x="395.398" y="32" type="line" smooth="yes"/>
      <point x="417.689" y="32"/>
      <point x="422.787" y="42.3887"/>
      <point x="422.798" y="62" type="curve" smooth="yes"/>
    </contour>
  </outline>
</glyph>
<glyph name="si_Ka" format="1">
  <advance width="592"/>
  <unicode hex="0D9A"/>
  <outline>
    <contour>
      <point x="330.994" y="307.809" type="curve" smooth="yes"/>
      <point x="330.994" y="64" type="line" smooth="yes"/>
      <point x="330.994" y="46.001"/>
      <point x="326.589" y="32"/>
      <point x="305" y="32" type="curve" smooth="yes"/>
      <point x="251.798" y="32" type="line" smooth="yes"/>
      <point x="213.902" y="32"/>
      <point x="213.398" y="61.5684"/>
      <point x="213.398" y="94" type="curve" smooth="yes"/>
      <point x="213.398" y="188.003" type="line"/>
      <point x="176.197" y="188" type="line"/>
      <point x="176.197" y="94" type="line" smooth="yes"/>
      <point x="176.197" y="61.5811"/>
      <point x="173.903" y="32"/>
      <point x="133.798" y="32" type="curve" smooth="yes"/>
      <point x="79.3838" y="32" type="line" smooth="yes"/>
      <point x="64.6309" y="32"/>
      <point x="58.9844" y="38.667"/>
      <point x="58.9844" y="56" type="curve" smooth="yes"/>
      <point x="58.9844" y="146.014" type="line" smooth="yes"/>
      <point x="58.9844" y="193.123"/>
      <point x="63.915" y="209.638"/>
      <point x="97.9844" y="228.2" type="curve"/>
      <point x="97.9844" y="256" type="line"/>
      <point x="71.2031" y="256" type="line"/>
      <point x="163" y="332.81" type="line"/>
      <point x="305.994" y="332.809" type="line" smooth="yes"/>
      <point x="321.033" y="332.809"/>
      <point x="330.994" y="326.779"/>
    </contour>
    <contour>
      <point x="192.995" y="404.206" type="line"/>
      <point x="192.947" y="440.799" type="line" smooth="yes"/>
      <point x="192.909" y="477.275"/>
      <point x="175.434" y="497"/>
      <point x="147.195" y="497" type="curve" smooth="yes"/>
      <point x="38" y="497.001" type="line"/>
      <point x="38" y="465" type="line"/>
      <point x="128" y="465" type="line" smooth="yes"/>
      <point x="150.944" y="465"/>
      <point x="156.777" y="454.001"/>
      <point x="156.831" y="430" type="curve" smooth="yes"/>
      <point x="156.992" y="374.211" type="line"/>
      <point x="12" y="252.991" type="line"/>
      <point x="12" y="224.8" type="line"/>
      <point x="44.7832" y="224.8" type="line"/>
      <point x="29.9258" y="215.78"/>
      <point x="21.9844" y="198.781"/>
      <point x="21.9844" y="156.011" type="curve" smooth="yes"/>
      <point x="21.9844" y="46" type="line" smooth="yes"/>
      <point x="21.9844" y="19.7461"/>
      <point x="38.4756" y="0"/>
      <point x="66.9844" y="0" type="curve" smooth="yes"/>
      <point x="154.997" y="0" type="line" smooth="yes"/>
      <point x="172.689" y="0"/>
      <point x="189.33" y="9.66699"/>
      <point x="193.997" y="29.001" type="curve"/>
      <point x="198.664" y="9.66699"/>
      <point x="212.04" y="0"/>
      <point x="230.997" y="0" type="curve" smooth="yes"/>
      <point x="316.81" y="-0.000976562" type="line" smooth="yes"/>
      <point x="344.573" y="-0.000976562"/>
      <point x="367.994" y="19.4961"/>
      <point x="367.994" y="52.999" type="curve" smooth="yes"/>
      <point x="367.994" y="315.809" type="line" smooth="yes"/>
      <point x="367.994" y="350.017"/>
      <point x="346.368" y="364.809"/>
      <point x="320.994" y="364.809" type="curve" smooth="yes"/>
      <point x="201.205" y="364.81" type="line"/>
      <point x="292.609" y="441" type="line" smooth="yes"/>
      <point x="312.183" y="457.316"/>
      <point x="328.595" y="465"/>
      <point x="355.815" y="465" type="curve" smooth="yes"/>
      <point x="468.598" y="465" type="line" smooth="yes"/>
      <point x="491.24" y="465"/>
      <point x="500.977" y="452.244"/>
      <point x="500.977" y="432" type="curve" smooth="yes"/>
      <point x="500.977" y="63" type="line" smooth="yes"/>
      <point x="500.977" y="43.8652"/>
      <point x="492.207" y="31.9982"/>
      <point x="475.199" y="31.998" type="curve" smooth="yes"/>
      <point x="385.8" y="31.9971" type="line"/>
      <point x="385.8" y="0" type="line"/>
      <point x="486" y="0" type="line" smooth="yes"/>
      <point x="515.119" y="-3.566e-15"/>
      <point x="537.985" y="19.2629"/>
      <point x="537.985" y="54" type="curve" smooth="yes"/>
      <point x="537.985" y="441" type="line" smooth="yes"/>
      <point x="537.985" y="474.331"/>
      <point x="516.822" y="497"/>
      <point x="481.598" y="497" type="curve" smooth="yes"/>
      <point x="339.209" y="497" type="line" smooth="yes"/>
      <point x="320.747" y="497"/>
      <point x="297.624" y="491.765"/>
      <point x="274.006" y="472" type="curve" smooth="yes"/>
    </contour>
  </outline>
</glyph>
<glyph name="si_Kha" format="1">
  <advance width="517"/>
  <unicode hex="0D9B"/>
  <outline>
    <contour>
      <point x="22" y="433.002" type="line" smooth="yes"/>
      <point x="22" y="468.968"/>
      <point x="40.6514" y="496.977"/>
      <point x="81" y="496.977" type="curve" smooth="yes"/>
      <point x="231.191" y="496.977" type="line" smooth="yes"/>
      <point x="263.718" y="496.977"/>
      <point x="287.191" y="479.67"/>
      <point x="287.191" y="442.002" type="curve" smooth="yes"/>
      <point x="286.591" y="212" type="line"/>
      <point x="250.403" y="111.801" type="line"/>
      <point x="256.577" y="96.877"/>
      <point x="292.042" y="32"/>
      <point x="333.407" y="32" type="curve" smooth="yes"/>
      <point x="400.004" y="32" type="line" smooth="yes"/>
      <point x="419.401" y="32"/>
      <point x="423.007" y="49.2012"/>
      <point x="423.007" y="63.2012" type="curve" smooth="yes"/>
      <point x="423.007" y="557" type="line" smooth="yes"/>
      <point x="423.007" y="583.624"/>
      <point x="409.207" y="593.998"/>
      <point x="378.205" y="593.998" type="curve" smooth="yes"/>
      <point x="21.998" y="593.998" type="line"/>
      <point x="21.998" y="626" type="line"/>
      <point x="390" y="626" type="line" smooth="yes"/>
      <point x="429.286" y="626"/>
      <point x="460" y="606.242"/>
      <point x="460" y="566" type="curve" smooth="yes"/>
      <point x="460" y="51" type="line" smooth="yes"/>
      <point x="460" y="26.0732"/>
      <point x="448.267" y="0"/>
      <point x="414.005" y="0" type="curve" smooth="yes"/>
      <point x="316.407" y="0" type="line" smooth="yes"/>
      <point x="283.074" y="0"/>
      <point x="244.164" y="46.2275"/>
      <point x="234.806" y="68.001" type="curve"/>
      <point x="208.007" y="-5" type="line"/>
      <point x="169.808" y="-5" type="line"/>
      <point x="250" y="216.598" type="line"/>
      <point x="250.001" y="433.601" type="line" smooth="yes"/>
      <point x="250.001" y="449.892"/>
      <point x="243.14" y="464.803"/>
      <point x="222.998" y="464.803" type="curve" smooth="yes"/>
      <point x="88" y="464.803" type="line" smooth="yes"/>
      <point x="68.1836" y="464.803"/>
      <point x="59" y="451.118"/>
      <point x="59" y="430.002" type="curve" smooth="yes"/>
      <point x="59" y="57" type="line" smooth="yes"/>
      <point x="59" y="39.1271"/>
      <point x="64.625" y="32"/>
      <point x="81.002" y="32" type="curve" smooth="yes"/>
      <point x="133.003" y="32" type="line"/>
      <point x="133" y="0" type="line"/>
      <point x="65" y="0" type="line" smooth="yes"/>
      <point x="38.3047" y="0"/>
      <point x="22" y="16.7642"/>
      <point x="22" y="48" type="curve" smooth="yes"/>
    </contour>
  </outline>
</glyph>
<glyph name="si_Gha" format="1">
  <advance width="576"/>
  <unicode hex="0D9D"/>
  <outline>
    <contour>
      <point x="327.22" y="0" type="line" smooth="yes"/>
      <point x="305" y="0"/>
      <point x="276.219" y="14.0518"/>
      <point x="276.219" y="48" type="curve" smooth="yes"/>
      <point x="276.219" y="96.1982" type="line" smooth="yes"/>
      <point x="276.219" y="112.593"/>
      <point x="288.333" y="123.617"/>
      <point x="300.735" y="134" type="curve" smooth="yes"/>
      <point x="322.78" y="152.454"/>
      <point x="323.62" y="153"/>
      <point x="323.82" y="169.601" type="curve" smooth="yes"/>
      <point x="323.813" y="188.805" type="line" smooth="yes"/>
      <point x="323.811" y="196.472"/>
      <point x="319" y="198"/>
      <point x="312.218" y="198.001" type="curve" smooth="yes"/>
      <point x="264.622" y="198.001" type="line"/>
      <point x="217.402" y="198.001" type="line" smooth="yes"/>
      <point x="211" y="198.001"/>
      <point x="205.809" y="196.472"/>
      <point x="205.807" y="188.805" type="curve" smooth="yes"/>
      <point x="205.8" y="169.601" type="line" smooth="yes"/>
      <point x="206" y="153"/>
      <point x="206.84" y="152.455"/>
      <point x="228.885" y="134" type="curve" smooth="yes"/>
      <point x="241.287" y="123.617"/>
      <point x="253.401" y="112.592"/>
      <point x="253.401" y="96.1982" type="curve" smooth="yes"/>
      <point x="253.401" y="48" type="line" smooth="yes"/>
      <point x="253.401" y="14.0518"/>
      <point x="224.566" y="0"/>
      <point x="202.4" y="0" type="curve" smooth="yes"/>
      <point x="72" y="0" type="line" smooth="yes"/>
      <point x="34.9721" y="0"/>
      <point x="22" y="16.273"/>
      <point x="22" y="54" type="curve" smooth="yes"/>
      <point x="22" y="266" type="line" smooth="yes"/>
      <point x="22" y="286.835"/>
      <point x="29.9175" y="309.935"/>
      <point x="51" y="322" type="curve"/>
      <point x="60.1592" y="335.616"/>
      <point x="61.9033" y="353"/>
      <point x="78" y="353" type="curve" smooth="yes"/>
      <point x="207.374" y="353" type="line"/>
      <point x="207.374" y="435" type="line" smooth="yes"/>
      <point x="207.374" y="457.979"/>
      <point x="194.638" y="465"/>
      <point x="171.374" y="465" type="curve" smooth="yes"/>
      <point x="23" y="465" type="line"/>
      <point x="23" y="497" type="line"/>
      <point x="181.374" y="497" type="line" smooth="yes"/>
      <point x="222.707" y="497"/>
      <point x="243.374" y="478"/>
      <point x="243.374" y="440" type="curve" smooth="yes"/>
      <point x="243.374" y="321" type="line"/>
      <point x="126.574" y="321" type="line" smooth="yes"/>
      <point x="72.2768" y="321"/>
      <point x="59" y="288"/>
      <point x="58.875" y="252" type="curve" smooth="yes"/>
      <point x="59" y="55.8926" type="line" smooth="yes"/>
      <point x="59.0102" y="39.9642"/>
      <point x="66" y="32"/>
      <point x="78.4941" y="32" type="curve" smooth="yes"/>
      <point x="187.402" y="32" type="line" smooth="yes"/>
      <point x="213.992" y="32"/>
      <point x="216.372" y="43.0811"/>
      <point x="216.398" y="66.1943" type="curve" smooth="yes"/>
      <point x="216.421" y="87.6016" type="line" smooth="yes"/>
      <point x="216.241" y="100.832"/>
      <point x="211.12" y="105.235"/>
      <point x="197.62" y="117" type="curve" smooth="yes"/>
      <point x="175.792" y="136.022"/>
      <point x="168.785" y="139.123"/>
      <point x="168.785" y="157.202" type="curve" smooth="yes"/>
      <point x="168.785" y="202" type="line" smooth="yes"/>
      <point x="168.785" y="217.999"/>
      <point x="179" y="230.003"/>
      <point x="194.793" y="230.003" type="curve" smooth="yes"/>
      <point x="264.622" y="230.003" type="line"/>
      <point x="334.827" y="230.003" type="line" smooth="yes"/>
      <point x="351" y="230"/>
      <point x="360.835" y="217.999"/>
      <point x="360.835" y="202" type="curve" smooth="yes"/>
      <point x="360.835" y="157.202" type="line" smooth="yes"/>
      <point x="360.835" y="139.123"/>
      <point x="353.828" y="136.022"/>
      <point x="332" y="117" type="curve" smooth="yes"/>
      <point x="318.5" y="105.235"/>
      <point x="313.379" y="100.832"/>
      <point x="313.199" y="87.6016" type="curve" smooth="yes"/>
      <point x="313.222" y="66.1943" type="line" smooth="yes"/>
      <point x="313.248" y="43.0811"/>
      <point x="316" y="32"/>
      <point x="342.218" y="32" type="curve" smooth="yes"/>
      <point x="453.506" y="32" type="line" smooth="yes"/>
      <point x="466" y="32"/>
      <point x="473" y="39.9639"/>
      <point x="473" y="55.8926" type="curve" smooth="yes"/>
      <point x="473" y="300.207" type="line" smooth="yes"/>
      <point x="473" y="313.324"/>
      <point x="463.408" y="321"/>
      <point x="450.008" y="321" type="curve" smooth="yes"/>
      <point x="290.226" y="321" type="line"/>
      <point x="290.226" y="440" type="line" smooth="yes"/>
      <point x="290.226" y="478"/>
      <point x="310.898" y="497"/>
      <point x="352.226" y="497" type="curve" smooth="yes"/>
      <point x="509" y="497" type="line"/>
      <point x="509" y="465" type="line"/>
      <point x="362.226" y="465" type="line" smooth="yes"/>
      <point x="338.964" y="465"/>
      <point x="326.226" y="457.98"/>
      <point x="326.226" y="435" type="curve" smooth="yes"/>
      <point x="326.226" y="353" type="line"/>
      <point x="454" y="353" type="line" smooth="yes"/>
      <point x="491.333" y="353"/>
      <point x="510" y="334.667"/>
      <point x="510" y="298" type="curve" smooth="yes"/>
      <point x="510" y="54" type="line" smooth="yes"/>
      <point x="510" y="16.2705"/>
      <point x="497" y="-4.53119e-15"/>
      <point x="460" y="0" type="curve" smooth="yes"/>
    </contour>
    <contour>
      <point x="-6" y="352.938" type="line"/>
      <point x="130.574" y="352.938" type="line"/>
      <point x="130.574" y="321" type="line"/>
      <point x="-6" y="321" type="line"/>
    </contour>
  </outline>
</glyph>
<glyph name="si_Nga" format="1">
  <advance width="578"/>
  <unicode hex="0D9E"/>
  <outline>
    <contour>
      <point x="22" y="421.788" type="line" smooth="yes"/>
      <point x="22" y="452.455"/>
      <point x="39.8447" y="470.788"/>
      <point x="76" y="470.791" type="curve" smooth="yes"/>
      <point x="263.8" y="470.808" type="line" smooth="yes"/>
      <point x="307.487" y="470.811"/>
      <point x="326" y="456.234"/>
      <point x="326" y="410" type="curve" smooth="yes"/>
      <point x="326" y="236" type="line"/>
      <point x="171.003" y="236" type="line" smooth="yes"/>
      <point x="127.43" y="236"/>
      <point x="121.003" y="222.062"/>
      <point x="121.003" y="183" type="curve" smooth="yes"/>
      <point x="121.003" y="55.8926" type="line" smooth="yes"/>
      <point x="121.003" y="39.9639"/>
      <point x="127.803" y="32"/>
      <point x="141.196" y="32" type="curve" smooth="yes"/>
      <point x="244.402" y="32" type="line" smooth="yes"/>
      <point x="268.003" y="32"/>
      <point x="284.404" y="38.9307"/>
      <point x="284.404" y="78" type="curve" smooth="yes"/>
      <point x="284.404" y="176.195" type="line"/>
      <point x="321.401" y="176.195" type="line"/>
      <point x="321.401" y="78.002" type="line" smooth="yes"/>
      <point x="321.401" y="39.5283"/>
      <point x="338.046" y="32"/>
      <point x="363.403" y="32" type="curve" smooth="yes"/>
      <point x="457.401" y="32" type="line" smooth="yes"/>
      <point x="479.692" y="32"/>
      <point x="484.801" y="42.2314"/>
      <point x="484.801" y="62" type="curve" smooth="yes"/>
      <point x="484.801" y="552" type="line" smooth="yes"/>
      <point x="484.801" y="583.043"/>
      <point x="471.481" y="594"/>
      <point x="441.001" y="594" type="curve" smooth="yes"/>
      <point x="84.0039" y="594" type="line"/>
      <point x="84.0039" y="626" type="line"/>
      <point x="449.001" y="626" type="line" smooth="yes"/>
      <point x="491.31" y="626"/>
      <point x="521.999" y="609.264"/>
      <point x="521.999" y="560" type="curve" smooth="yes"/>
      <point x="521.999" y="50" type="line" smooth="yes"/>
      <point x="521.999" y="19.6377"/>
      <point x="508.397" y="0"/>
      <point x="475.001" y="0" type="curve" smooth="yes"/>
      <point x="352.205" y="0" type="line" smooth="yes"/>
      <point x="326.214" y="0"/>
      <point x="308.169" y="8.12695"/>
      <point x="303.205" y="28" type="curve"/>
      <point x="298.977" y="9.81934"/>
      <point x="279.003" y="0"/>
      <point x="256.205" y="0" type="curve" smooth="yes"/>
      <point x="132.001" y="0" type="line" smooth="yes"/>
      <point x="95.0029" y="0"/>
      <point x="84.0029" y="16.2734"/>
      <point x="84.0029" y="54" type="curve" smooth="yes"/>
      <point x="84.0029" y="200" type="line" smooth="yes"/>
      <point x="84.0029" y="235.021"/>
      <point x="105.148" y="268"/>
      <point x="150.003" y="268" type="curve" smooth="yes"/>
      <point x="290" y="268" type="line"/>
      <point x="290" y="403" type="line" smooth="yes"/>
      <point x="290" y="423.621"/>
      <point x="286.159" y="438.397"/>
      <point x="258" y="438.397" type="curve" smooth="yes"/>
      <point x="193.411" y="438.397" type="line" smooth="yes"/>
      <point x="198.115" y="437.47"/>
      <point x="200" y="434.216"/>
      <point x="200" y="427" type="curve" smooth="yes"/>
      <point x="200" y="344" type="line" smooth="yes"/>
      <point x="200" y="324.761"/>
      <point x="187.471" y="315.804"/>
      <point x="172" y="315.804" type="curve" smooth="yes"/>
      <point x="68" y="315.804" type="line" smooth="yes"/>
      <point x="37" y="315.804"/>
      <point x="22" y="331.471"/>
      <point x="22" y="362.804" type="curve" smooth="yes"/>
    </contour>
    <contour>
      <point x="59" y="420" type="curve" smooth="yes"/>
      <point x="59" y="367" type="line" smooth="yes"/>
      <point x="59" y="356.225"/>
      <point x="62.5664" y="347.801"/>
      <point x="76" y="347.801" type="curve" smooth="yes"/>
      <point x="147" y="347.801" type="line" smooth="yes"/>
      <point x="160.987" y="347.801"/>
      <point x="162.8" y="352.904"/>
      <point x="162.8" y="363" type="curve" smooth="yes"/>
      <point x="162.8" y="425" type="line" smooth="yes"/>
      <point x="162.8" y="433.088"/>
      <point x="159.022" y="437.405"/>
      <point x="152.947" y="438.397" type="curve" smooth="yes"/>
      <point x="84" y="438.397" type="line" smooth="yes"/>
      <point x="70.89" y="438.397"/>
      <point x="59" y="434.507"/>
    </contour>
  </outline>
</glyph>
<glyph name="si_Jha" format="1">
  <advance width="915"/>
  <unicode hex="0DA3"/>
  <outline>
    <contour>
      <point x="330.994" y="307.809" type="line" smooth="yes"/>
      <point x="330.994" y="326.779"/>
      <point x="321.033" y="332.809"/>
      <point x="305.994" y="332.809" type="curve" smooth="yes"/>
      <point x="163" y="332.81" type="line"/>
      <point x="71.2031" y="256" type="line"/>
      <point x="97.9844" y="256" type="line"/>
      <point x="97.9844" y="228.2" type="line"/>
      <point x="63.915" y="209.638"/>
      <point x="58.9844" y="193.123"/>
      <point x="58.9844" y="146.014" type="curve" smooth="yes"/>
      <point x="58.9844" y="56" type="line" smooth="yes"/>
      <point x="58.9844" y="38.667"/>
      <point x="64.6309" y="32"/>
      <point x="79.3838" y="32" type="curve" smooth="yes"/>
      <point x="133.798" y="32" type="line" smooth="yes"/>
      <point x="173.903" y="32"/>
      <point x="176.197" y="61.5811"/>
      <point x="176.197" y="94" type="curve" smooth="yes"/>
      <point x="176.197" y="188" type="line"/>
      <point x="213.398" y="188.003" type="line"/>
      <point x="213.398" y="94" type="line" smooth="yes"/>
      <point x="213.398" y="61.5684"/>
      <point x="213.902" y="32"/>
      <point x="251.798" y="32" type="curve" smooth="yes"/>
      <point x="305" y="32" type="line" smooth="yes"/>
      <point x="326.589" y="32"/>
      <point x="330.994" y="46.001"/>
      <point x="330.994" y="64" type="curve" smooth="yes"/>
    </contour>
    <contour>
      <point x="466" y="440.999" type="line"/>
      <point x="380" y="449.199" type="line" smooth="yes"/>
      <point x="364.332" y="450.547"/>
      <point x="351.059" y="451.784"/>
      <point x="339.6" y="451.784" type="curve" smooth="yes"/>
      <point x="319.258" y="451.784"/>
      <point x="299.701" y="440.254"/>
      <point x="273" y="419.802" type="curve" smooth="yes"/>
      <point x="201.205" y="364.81" type="line"/>
      <point x="320.994" y="364.809" type="line" smooth="yes"/>
      <point x="346.368" y="364.809"/>
      <point x="367.994" y="350.017"/>
      <point x="367.994" y="315.809" type="curve" smooth="yes"/>
      <point x="367.994" y="52.999" type="line" smooth="yes"/>
      <point x="367.994" y="19.4961"/>
      <point x="344.573" y="-0.000976562"/>
      <point x="316.81" y="-0.000976562" type="curve" smooth="yes"/>
      <point x="230.997" y="0" type="line" smooth="yes"/>
      <point x="212.04" y="0"/>
      <point x="198.664" y="9.66699"/>
      <point x="193.997" y="29.001" type="curve"/>
      <point x="189.33" y="9.66699"/>
      <point x="172.689" y="0"/>
      <point x="154.997" y="0" type="curve" smooth="yes"/>
      <point x="66.9844" y="0" type="line" smooth="yes"/>
      <point x="38.4756" y="0"/>
      <point x="21.9844" y="19.7461"/>
      <point x="21.9844" y="46" type="curve" smooth="yes"/>
      <point x="21.9844" y="156.011" type="line" smooth="yes"/>
      <point x="21.9844" y="198.781"/>
      <point x="29.9258" y="215.78"/>
      <point x="44.7832" y="224.8" type="curve"/>
      <point x="12" y="224.8" type="line"/>
      <point x="12" y="252.991" type="line"/>
      <point x="156.992" y="374.211" type="line"/>
      <point x="156.831" y="430" type="line" smooth="yes"/>
      <point x="156.777" y="454.001"/>
      <point x="150.944" y="465"/>
      <point x="128" y="465" type="curve" smooth="yes"/>
      <point x="38" y="465" type="line"/>
      <point x="38" y="497.001" type="line"/>
      <point x="147.195" y="497" type="line" smooth="yes"/>
      <point x="175.434" y="497"/>
      <point x="192.909" y="477.275"/>
      <point x="192.947" y="440.799" type="curve" smooth="yes"/>
      <point x="192.995" y="404.206" type="line"/>
      <point x="254.396" y="450.802" type="line" smooth="yes"/>
      <point x="293.087" y="480.163"/>
      <point x="314.588" y="487.991"/>
      <point x="339" y="487.991" type="curve" smooth="yes"/>
      <point x="353.344" y="487.991"/>
      <point x="379.003" y="484.749"/>
      <point x="398" y="482.991" type="curve" smooth="yes"/>
      <point x="657.205" y="459.002" type="line"/>
    </contour>
    <contour>
      <point x="658.212" y="426.802" type="line"/>
      <point x="504.025" y="426.802" type="line" smooth="yes"/>
      <point x="477.412" y="426.802"/>
      <point x="470.025" y="412.438"/>
      <point x="470.025" y="391" type="curve" smooth="yes"/>
      <point x="470.025" y="58" type="line" smooth="yes"/>
      <point x="470.025" y="42.2285"/>
      <point x="473.981" y="32"/>
      <point x="493.025" y="32" type="curve" smooth="yes"/>
      <point x="587.014" y="32" type="line" smooth="yes"/>
      <point x="626.143" y="32"/>
      <point x="633.014" y="65.5156"/>
      <point x="633.014" y="100.802" type="curve" smooth="yes"/>
      <point x="633.014" y="244.796" type="line"/>
      <point x="670.213" y="244.796" type="line"/>
      <point x="670.213" y="101" type="line" smooth="yes"/>
      <point x="670.213" y="66.1592"/>
      <point x="679.292" y="32"/>
      <point x="721.014" y="32" type="curve" smooth="yes"/>
      <point x="813.002" y="32" type="line" smooth="yes"/>
      <point x="829.929" y="32"/>
      <point x="834.607" y="43.6895"/>
      <point x="834.607" y="60" type="curve" smooth="yes"/>
      <point x="834.607" y="554" type="line" smooth="yes"/>
      <point x="834.607" y="587.453"/>
      <point x="819.412" y="594.6"/>
      <point x="791.002" y="594.6" type="curve" smooth="yes"/>
      <point x="433.026" y="594.6" type="line"/>
      <point x="433.026" y="626" type="line"/>
      <point x="799.002" y="626" type="line" smooth="yes"/>
      <point x="841.311" y="626"/>
      <point x="872" y="609.264"/>
      <point x="872" y="560" type="curve" smooth="yes"/>
      <point x="872" y="50" type="line" smooth="yes"/>
      <point x="872" y="19.6377"/>
      <point x="858.398" y="0"/>
      <point x="825.002" y="0" type="curve" smooth="yes"/>
      <point x="700.816" y="0" type="line" smooth="yes"/>
      <point x="674.816" y="0"/>
      <point x="658.482" y="12.333"/>
      <point x="651.816" y="37" type="curve"/>
      <point x="648.643" y="16.3779"/>
      <point x="628.086" y="0"/>
      <point x="604.816" y="0" type="curve" smooth="yes"/>
      <point x="480.025" y="0" type="line" smooth="yes"/>
      <point x="448.635" y="0"/>
      <point x="433.025" y="15.0176"/>
      <point x="433.025" y="48" type="curve" smooth="yes"/>
      <point x="433.025" y="394" type="line" smooth="yes"/>
      <point x="433.025" y="432.555"/>
      <point x="451.046" y="459"/>
      <point x="492.025" y="459" type="curve" smooth="yes"/>
      <point x="658.211" y="459" type="line"/>
    </contour>
  </outline>
</glyph>
<glyph name="si_Tta" format="1">
  <advance width="515"/>
  <unicode hex="0DA7"/>
  <outline>
    <contour>
      <point x="240" y="415.005" type="line"/>
      <point x="87" y="415.005" type="line" smooth="yes"/>
      <point x="71.167" y="415.005"/>
      <point x="59" y="408.98"/>
      <point x="59" y="387.005" type="curve" smooth="yes"/>
      <point x="59" y="58" type="line" smooth="yes"/>
      <point x="59" y="43.333"/>
      <point x="60.958" y="32"/>
      <point x="78" y="32" type="curve" smooth="yes"/>
      <point x="400.8" y="32" type="line" smooth="yes"/>
      <point x="416.448" y="32"/>
      <point x="423" y="40.74"/>
      <point x="423" y="61" type="curve" smooth="yes"/>
      <point x="423" y="415" type="line"/>
      <point x="460" y="415" type="line"/>
      <point x="460" y="54" type="line" smooth="yes"/>
      <point x="460" y="16.2705"/>
      <point x="445.075" y="0"/>
      <point x="408" y="0" type="curve" smooth="yes"/>
      <point x="72" y="0" type="line" smooth="yes"/>
      <point x="34.9277" y="0"/>
      <point x="22" y="16.273"/>
      <point x="22" y="54" type="curve" smooth="yes"/>
      <point x="22" y="392.005" type="line" smooth="yes"/>
      <point x="22" y="428.672"/>
      <point x="40.667" y="447.005"/>
      <point x="78" y="447.005" type="curve" smooth="yes"/>
      <point x="240" y="447.005" type="line"/>
    </contour>
    <contour>
      <point x="384" y="625" type="line" smooth="yes"/>
      <point x="435.559" y="625"/>
      <point x="460" y="601.678"/>
      <point x="460" y="548" type="curve" smooth="yes"/>
      <point x="460" y="400" type="line"/>
      <point x="423" y="400" type="line"/>
      <point x="423" y="541" type="line" smooth="yes"/>
      <point x="423" y="579.354"/>
      <point x="413.56" y="593"/>
      <point x="375.598" y="593" type="curve" smooth="yes"/>
      <point x="22" y="593" type="line"/>
      <point x="22" y="625" type="line"/>
    </contour>
  </outline>
</glyph>
<glyph name="si_Ttha" format="1">
  <advance width="515"/>
  <unicode hex="0DA8"/>
  <outline>
    <contour>
      <point x="262.432" y="594" type="line"/>
      <point x="262.432" y="482.198" type="line" smooth="yes"/>
      <point x="262.432" y="460.842"/>
      <point x="268.491" y="459.402"/>
      <point x="285.001" y="459.402" type="curve" smooth="yes"/>
      <point x="422.002" y="459.402" type="line"/>
      <point x="422.003" y="558" type="line" smooth="yes"/>
      <point x="422.003" y="582.926"/>
      <point x="416.458" y="594"/>
      <point x="385.001" y="594" type="curve" smooth="yes"/>
    </contour>
    <contour>
      <point x="461.001" y="394" type="line"/>
      <point x="424.002" y="394" type="line"/>
      <point x="424.002" y="427.015" type="line"/>
      <point x="270.998" y="427.015" type="line" smooth="yes"/>
      <point x="237.706" y="427.015"/>
      <point x="225.215" y="437.986"/>
      <point x="225.215" y="474.4" type="curve" smooth="yes"/>
      <point x="225.215" y="595" type="line"/>
      <point x="159.598" y="595" type="line"/>
      <point x="159.598" y="626" type="line"/>
      <point x="395" y="626" type="line" smooth="yes"/>
      <point x="442.56" y="626"/>
      <point x="461.001" y="610.567"/>
      <point x="461.001" y="559" type="curve" smooth="yes"/>
    </contour>
    <contour>
      <point x="460.975" y="462" type="line"/>
      <point x="460.975" y="50" type="line" smooth="yes"/>
      <point x="460.975" y="19.6377"/>
      <point x="447.373" y="0"/>
      <point x="413.977" y="0" type="curve" smooth="yes"/>
      <point x="289.791" y="0" type="line" smooth="yes"/>
      <point x="263.791" y="0"/>
      <point x="247.457" y="12.333"/>
      <point x="240.791" y="37" type="curve"/>
      <point x="237.617" y="16.3779"/>
      <point x="217.061" y="0"/>
      <point x="193.791" y="0" type="curve" smooth="yes"/>
      <point x="69" y="0" type="line" smooth="yes"/>
      <point x="37.6096" y="0"/>
      <point x="22" y="15.0176"/>
      <point x="22" y="48" type="curve" smooth="yes"/>
      <point x="22" y="287.998" type="line" smooth="yes"/>
      <point x="22" y="326.553"/>
      <point x="40.0205" y="352.998"/>
      <point x="81" y="352.998" type="curve" smooth="yes"/>
      <point x="247.186" y="352.998" type="line"/>
      <point x="247.187" y="320.8" type="line"/>
      <point x="93" y="320.8" type="line" smooth="yes"/>
      <point x="66.3867" y="320.8"/>
      <point x="59" y="306.436"/>
      <point x="59" y="284.998" type="curve" smooth="yes"/>
      <point x="59" y="58" type="line" smooth="yes"/>
      <point x="59" y="42.2284"/>
      <point x="62.9558" y="32"/>
      <point x="82" y="32" type="curve" smooth="yes"/>
      <point x="175.988" y="32" type="line" smooth="yes"/>
      <point x="215.117" y="32"/>
      <point x="221.988" y="65.5156"/>
      <point x="221.988" y="100.802" type="curve" smooth="yes"/>
      <point x="221.988" y="200" type="line"/>
      <point x="259.188" y="200" type="line"/>
      <point x="259.188" y="101" type="line" smooth="yes"/>
      <point x="259.188" y="66.1592"/>
      <point x="268.267" y="32"/>
      <point x="309.988" y="32" type="curve" smooth="yes"/>
      <point x="401.977" y="32" type="line" smooth="yes"/>
      <point x="418.903" y="32"/>
      <point x="423.582" y="43.6895"/>
      <point x="423.582" y="60" type="curve" smooth="yes"/>
      <point x="423.582" y="461.8" type="line"/>
    </contour>
  </outline>
</glyph>
<glyph name="si_Ddha" format="1">
  <advance width="513"/>
  <unicode hex="0DAA"/>
  <outline>
    <contour>
      <point x="261.431" y="594" type="line"/>
      <point x="261.431" y="482.198" type="line" smooth="yes"/>
      <point x="261.431" y="460.842"/>
      <point x="267.49" y="459.402"/>
      <point x="284" y="459.402" type="curve" smooth="yes"/>
      <point x="423.003" y="459.402" type="line"/>
      <point x="423.004" y="558" type="line" smooth="yes"/>
      <point x="423.004" y="582.926"/>
      <point x="417.459" y="594"/>
      <point x="386.002" y="594" type="curve" smooth="yes"/>
    </contour>
    <contour>
      <point x="460" y="394" type="line"/>
      <point x="422.801" y="394" type="line"/>
      <point x="422.801" y="427.015" type="line"/>
      <point x="269.997" y="427.015" type="line" smooth="yes"/>
      <point x="236.705" y="427.015"/>
      <point x="224.214" y="437.986"/>
      <point x="224.214" y="474.4" type="curve" smooth="yes"/>
      <point x="224.214" y="595" type="line"/>
      <point x="158.597" y="595" type="line"/>
      <point x="158.597" y="626" type="line"/>
      <point x="393.999" y="626" type="line" smooth="yes"/>
      <point x="441.559" y="626"/>
      <point x="460" y="610.567"/>
      <point x="460" y="559" type="curve" smooth="yes"/>
    </contour>
    <contour>
      <point x="-6" y="274.742" type="line"/>
      <point x="130.574" y="274.742" type="line"/>
      <point x="130.574" y="242.805" type="line"/>
      <point x="-6" y="242.805" type="line"/>
    </contour>
    <contour>
      <point x="22" y="187.805" type="line" smooth="yes"/>
      <point x="22" y="208.64"/>
      <point x="29.918" y="231.739"/>
      <point x="51" y="243.805" type="curve"/>
      <point x="60.1592" y="257.421"/>
      <point x="61.9033" y="274.805"/>
      <point x="78" y="274.805" type="curve" smooth="yes"/>
      <point x="207.374" y="274.805" type="line"/>
      <point x="207.374" y="356.805" type="line" smooth="yes"/>
      <point x="207.374" y="379.784"/>
      <point x="194.638" y="386.805"/>
      <point x="171.374" y="386.805" type="curve" smooth="yes"/>
      <point x="23" y="386.805" type="line"/>
      <point x="23" y="418.805" type="line"/>
      <point x="181.374" y="418.805" type="line" smooth="yes"/>
      <point x="222.707" y="418.805"/>
      <point x="243.374" y="399.805"/>
      <point x="243.374" y="361.805" type="curve" smooth="yes"/>
      <point x="243.374" y="242.805" type="line"/>
      <point x="126.574" y="242.805" type="line" smooth="yes"/>
      <point x="72.2764" y="242.805"/>
      <point x="59" y="209.805"/>
      <point x="58.875" y="173.805" type="curve" smooth="yes"/>
      <point x="59" y="55.8926" type="line" smooth="yes"/>
      <point x="59.0169" y="39.9642"/>
      <point x="65.7998" y="32"/>
      <point x="79.1934" y="32" type="curve" smooth="yes"/>
      <point x="182.399" y="32" type="line" smooth="yes"/>
      <point x="206" y="32"/>
      <point x="222.401" y="38.9307"/>
      <point x="222.401" y="78" type="curve" smooth="yes"/>
      <point x="222.401" y="147" type="line"/>
      <point x="259.398" y="147" type="line"/>
      <point x="259.398" y="78.002" type="line" smooth="yes"/>
      <point x="259.398" y="39.5283"/>
      <point x="276.043" y="32"/>
      <point x="301.4" y="32" type="curve" smooth="yes"/>
      <point x="395.398" y="32" type="line" smooth="yes"/>
      <point x="417.689" y="32"/>
      <point x="422.798" y="42.2314"/>
      <point x="422.798" y="62" type="curve" smooth="yes"/>
      <point x="422.798" y="410" type="line"/>
      <point x="459.996" y="410" type="line"/>
      <point x="459.996" y="50" type="line" smooth="yes"/>
      <point x="459.996" y="19.6377"/>
      <point x="446.395" y="-4.08989e-15"/>
      <point x="412.998" y="0" type="curve" smooth="yes"/>
      <point x="290.202" y="0" type="line" smooth="yes"/>
      <point x="264.211" y="0"/>
      <point x="246.166" y="8.12695"/>
      <point x="241.202" y="28" type="curve"/>
      <point x="236.974" y="9.81934"/>
      <point x="217" y="0"/>
      <point x="194.202" y="0" type="curve" smooth="yes"/>
      <point x="69.998" y="0" type="line" smooth="yes"/>
      <point x="33" y="0"/>
      <point x="22" y="16.273"/>
      <point x="22" y="54" type="curve" smooth="yes"/>
    </contour>
  </outline>
</glyph>
<glyph name="si_Ta" format="1">
  <advance width="592"/>
  <unicode hex="0DAD"/>
  <outline>
    <contour>
      <point x="319.001" y="307.809" type="line" smooth="yes"/>
      <point x="319.001" y="326.779"/>
      <point x="309.04" y="332.809"/>
      <point x="294.001" y="332.809" type="curve" smooth="yes"/>
      <point x="163" y="332.81" type="line"/>
      <point x="71.2031" y="256" type="line"/>
      <point x="97.9844" y="256" type="line"/>
      <point x="97.9844" y="228.2" type="line"/>
      <point x="63.915" y="209.638"/>
      <point x="58.9844" y="193.123"/>
      <point x="58.9844" y="146.014" type="curve" smooth="yes"/>
      <point x="58.9844" y="56" type="line" smooth="yes"/>
      <point x="58.9844" y="38.667"/>
      <point x="64.6309" y="32"/>
      <point x="79.3838" y="32" type="curve" smooth="yes"/>
      <point x="293.007" y="32" type="line" smooth="yes"/>
      <point x="314.596" y="32"/>
      <point x="319.001" y="46.001"/>
      <point x="319.001" y="64" type="curve" smooth="yes"/>
    </contour>
    <contour>
      <point x="192.995" y="404.206" type="line"/>
      <point x="274.006" y="472" type="line" smooth="yes"/>
      <point x="297.624" y="491.765"/>
      <point x="320.747" y="497"/>
      <point x="339.209" y="497" type="curve" smooth="yes"/>
      <point x="481.598" y="497" type="line" smooth="yes"/>
      <point x="516.822" y="497"/>
      <point x="537.985" y="474.331"/>
      <point x="537.985" y="441" type="curve" smooth="yes"/>
      <point x="537.985" y="54" type="line" smooth="yes"/>
      <point x="537.985" y="19.2629"/>
      <point x="515.119" y="-3.566e-15"/>
      <point x="486" y="0" type="curve" smooth="yes"/>
      <point x="385.8" y="0" type="line"/>
      <point x="385.8" y="31.9971" type="line"/>
      <point x="475.199" y="31.998" type="line" smooth="yes"/>
      <point x="492.207" y="31.9982"/>
      <point x="500.977" y="43.8652"/>
      <point x="500.977" y="63" type="curve" smooth="yes"/>
      <point x="500.977" y="432" type="line" smooth="yes"/>
      <point x="500.977" y="452.244"/>
      <point x="491.24" y="465"/>
      <point x="468.598" y="465" type="curve" smooth="yes"/>
      <point x="355.815" y="465" type="line" smooth="yes"/>
      <point x="328.595" y="465"/>
      <point x="312.183" y="457.316"/>
      <point x="292.609" y="441" type="curve" smooth="yes"/>
      <point x="201.205" y="364.81" type="line"/>
      <point x="309.001" y="364.809" type="line" smooth="yes"/>
      <point x="334.375" y="364.809"/>
      <point x="356.001" y="350.017"/>
      <point x="356.001" y="315.809" type="curve" smooth="yes"/>
      <point x="356.001" y="52.999" type="line" smooth="yes"/>
      <point x="356.001" y="19.4961"/>
      <point x="332.58" y="-0.000976562"/>
      <point x="304.816" y="-0.000976562" type="curve" smooth="yes"/>
      <point x="66.9844" y="0" type="line" smooth="yes"/>
      <point x="38.4756" y="0.000117555"/>
      <point x="21.9844" y="19.7461"/>
      <point x="21.9844" y="46" type="curve" smooth="yes"/>
      <point x="21.9844" y="156.011" type="line" smooth="yes"/>
      <point x="21.9844" y="198.781"/>
      <point x="29.9258" y="215.78"/>
      <point x="44.7832" y="224.8" type="curve"/>
      <point x="12" y="224.8" type="line"/>
      <point x="12" y="252.991" type="line"/>
      <point x="156.992" y="374.211" type="line"/>
      <point x="156.831" y="430" type="line" smooth="yes"/>
      <point x="156.777" y="454.001"/>
      <point x="150.944" y="465"/>
      <point x="128" y="465" type="curve" smooth="yes"/>
      <point x="38" y="465" type="line"/>
      <point x="38" y="497.001" type="line"/>
      <point x="147.195" y="497" type="line" smooth="yes"/>
      <point x="175.434" y="497"/>
      <point x="192.909" y="477.275"/>
      <point x="192.947" y="440.799" type="curve" smooth="yes"/>
    </contour>
  </outline>
</glyph>
<glyph name="si_Tha" format="1">
  <advance width="512"/>
  <unicode hex="0DAE"/>
  <outline>
    <contour>
      <point x="261.431" y="594" type="line"/>
      <point x="261.431" y="482.198" type="line" smooth="yes"/>
      <point x="261.431" y="460.842"/>
      <point x="267.49" y="459.402"/>
      <point x="284" y="459.402" type="curve" smooth="yes"/>
      <point x="421.001" y="459.402" type="line"/>
      <point x="421.002" y="558" type="line" smooth="yes"/>
      <point x="421.002" y="582.926"/>
      <point x="415.457" y="594"/>
      <point x="384" y="594" type="curve" smooth="yes"/>
    </contour>
    <contour>
      <point x="460" y="394" type="line"/>
      <point x="423.001" y="394" type="line"/>
      <point x="423.001" y="427.015" type="line"/>
      <point x="269.997" y="427.015" type="line" smooth="yes"/>
      <point x="236.705" y="427.015"/>
      <point x="224.214" y="437.986"/>
      <point x="224.214" y="474.4" type="curve" smooth="yes"/>
      <point x="224.214" y="595" type="line"/>
      <point x="158.597" y="595" type="line"/>
      <point x="158.597" y="626" type="line"/>
      <point x="393.999" y="626" type="line" smooth="yes"/>
      <point x="441.559" y="626"/>
      <point x="460" y="610.567"/>
      <point x="460" y="559" type="curve" smooth="yes"/>
    </contour>
    <contour>
      <point x="197" y="362" type="line"/>
      <point x="87" y="362" type="line" smooth="yes"/>
      <point x="71.167" y="362"/>
      <point x="59" y="355.976"/>
      <point x="59" y="334" type="curve" smooth="yes"/>
      <point x="59" y="58" type="line" smooth="yes"/>
      <point x="59" y="43.333"/>
      <point x="60.958" y="32"/>
      <point x="78" y="32" type="curve" smooth="yes"/>
      <point x="400.8" y="32" type="line" smooth="yes"/>
      <point x="416.448" y="32"/>
      <point x="423" y="40.74"/>
      <point x="423" y="61" type="curve" smooth="yes"/>
      <point x="423" y="415" type="line"/>
      <point x="460" y="415" type="line"/>
      <point x="460" y="54" type="line" smooth="yes"/>
      <point x="460" y="16.2705"/>
      <point x="445.075" y="0"/>
      <point x="408" y="0" type="curve" smooth="yes"/>
      <point x="72" y="0" type="line" smooth="yes"/>
      <point x="34.9277" y="0"/>
      <point x="22" y="16.273"/>
      <point x="22" y="54" type="curve" smooth="yes"/>
      <point x="22" y="339" type="line" smooth="yes"/>
      <point x="22" y="375.667"/>
      <point x="40.667" y="394"/>
      <point x="78" y="394" type="curve" smooth="yes"/>
      <point x="197" y="394" type="line"/>
    </contour>
  </outline>
</glyph>
<glyph name="si_Da" format="1">
  <advance width="460"/>
  <unicode hex="0DAF"/>
  <outline>
    <contour>
      <point x="408" y="0.000976562" type="line"/>
      <point x="212" y="0" type="line" smooth="yes"/>
      <point x="178.899" y="-0.000164925"/>
      <point x="146.2" y="-16.4449"/>
      <point x="146.2" y="-52" type="curve" smooth="yes"/>
      <point x="146.2" y="-118" type="line" smooth="yes"/>
      <point x="146.2" y="-137.752"/>
      <point x="157.031" y="-140"/>
      <point x="170" y="-140" type="curve" smooth="yes"/>
      <point x="431" y="-140" type="line"/>
      <point x="431" y="-171" type="line"/>
      <point x="161" y="-171" type="line" smooth="yes"/>
      <point x="132.813" y="-171"/>
      <point x="109" y="-159.622"/>
      <point x="109" y="-126" type="curve" smooth="yes"/>
      <point x="109" y="-48" type="line" smooth="yes"/>
      <point x="109" y="-30.0273"/>
      <point x="115.947" y="-10.9576"/>
      <point x="138" y="0" type="curve"/>
      <point x="66" y="0" type="line" smooth="yes"/>
      <point x="32.3066" y="0"/>
      <point x="22" y="17.9256"/>
      <point x="22" y="49.5996" type="curve" smooth="yes"/>
      <point x="22" y="295.998" type="line" smooth="yes"/>
      <point x="22" y="336.654"/>
      <point x="43.1064" y="352.998"/>
      <point x="80" y="352.998" type="curve" smooth="yes"/>
      <point x="366.796" y="352.998" type="line"/>
      <point x="366.795" y="436" type="line" smooth="yes"/>
      <point x="366.795" y="457.285"/>
      <point x="358.271" y="465"/>
      <point x="340" y="465" type="curve" smooth="yes"/>
      <point x="22" y="465" type="line"/>
      <point x="22" y="497.001" type="line"/>
      <point x="351" y="497" type="line" smooth="yes"/>
      <point x="384.564" y="497"/>
      <point x="404" y="480.913"/>
      <point x="404" y="444" type="curve" smooth="yes"/>
      <point x="404" y="321.001" type="line"/>
      <point x="91" y="321" type="line" smooth="yes"/>
      <point x="66.6041" y="321"/>
      <point x="59" y="311.276"/>
      <point x="59" y="290" type="curve" smooth="yes"/>
      <point x="59" y="58.001" type="line" smooth="yes"/>
      <point x="59" y="38.1592"/>
      <point x="67.0479" y="32"/>
      <point x="82.2002" y="32" type="curve" smooth="yes"/>
      <point x="408" y="32.001" type="line"/>
    </contour>
  </outline>
</glyph>
<glyph name="si_Na" format="1">
  <advance width="591"/>
  <unicode hex="0DB1"/>
  <outline>
    <contour>
      <point x="216" y="360" type="line"/>
      <point x="178" y="316" type="line"/>
      <point x="178" y="436" type="line" smooth="yes"/>
      <point x="178" y="457.767"/>
      <point x="169.671" y="465"/>
      <point x="148" y="465" type="curve" smooth="yes"/>
      <point x="22" y="465" type="line"/>
      <point x="22" y="497" type="line"/>
      <point x="158" y="497" type="line" smooth="yes"/>
      <point x="201.332" y="497"/>
      <point x="216" y="482.112"/>
      <point x="216" y="439" type="curve" smooth="yes"/>
    </contour>
    <contour>
      <point x="182" y="291.5" type="line"/>
      <point x="210" y="324.06" type="line"/>
      <point x="294" y="324" type="line" smooth="yes"/>
      <point x="329.002" y="323.981"/>
      <point x="342" y="309.198"/>
      <point x="342" y="276.072" type="curve" smooth="yes"/>
      <point x="342" y="60" type="line" smooth="yes"/>
      <point x="342" y="12.6074"/>
      <point x="322.6" y="0"/>
      <point x="275" y="0" type="curve" smooth="yes"/>
      <point x="70" y="0" type="line" smooth="yes"/>
      <point x="33.3613" y="0"/>
      <point x="22" y="14.0518"/>
      <point x="22" y="51" type="curve" smooth="yes"/>
      <point x="22" y="341.25" type="line"/>
      <point x="58.875" y="341.25" type="line"/>
      <point x="58.875" y="214" type="line"/>
      <point x="58.875" y="194" type="line"/>
      <point x="58.875" y="56" type="line" smooth="yes"/>
      <point x="58.875" y="38.8638"/>
      <point x="62.2273" y="32"/>
      <point x="82" y="32" type="curve" smooth="yes"/>
      <point x="272" y="32" type="line" smooth="yes"/>
      <point x="299.784" y="32"/>
      <point x="305" y="40.9619"/>
      <point x="305" y="66" type="curve" smooth="yes"/>
      <point x="305" y="267" type="line" smooth="yes"/>
      <point x="305" y="286.299"/>
      <point x="295.581" y="291.5"/>
      <point x="279" y="291.5" type="curve" smooth="yes"/>
    </contour>
    <contour>
      <point x="98.5" y="188.5" type="line" smooth="yes"/>
      <point x="88.6056" y="177.149"/>
      <point x="79.3584" y="175.5"/>
      <point x="72.5" y="175.5" type="curve" smooth="yes"/>
      <point x="64.3711" y="175.5"/>
      <point x="58.8828" y="179.363"/>
      <point x="56" y="182.5" type="curve"/>
      <point x="56" y="182.986"/>
      <point x="55.875" y="224"/>
      <point x="55.875" y="224" type="curve"/>
      <point x="58.0586" y="221.136"/>
      <point x="62.3379" y="217"/>
      <point x="68" y="217" type="curve" smooth="yes"/>
      <point x="75.7842" y="217"/>
      <point x="80.2939" y="222.2"/>
      <point x="86" y="228.5" type="curve" smooth="yes"/>
      <point x="270" y="440" type="line" smooth="yes"/>
      <point x="292.494" y="465.856"/>
      <point x="317.21" y="497"/>
      <point x="355" y="497" type="curve" smooth="yes"/>
      <point x="467" y="497" type="line" smooth="yes"/>
      <point x="513.224" y="497"/>
      <point x="534" y="479.952"/>
      <point x="534" y="434" type="curve" smooth="yes"/>
      <point x="534" y="64" type="line" smooth="yes"/>
      <point x="534" y="15.29"/>
      <point x="520.134" y="0"/>
      <point x="471" y="0" type="curve" smooth="yes"/>
      <point x="374" y="0" type="line"/>
      <point x="374" y="32" type="line"/>
      <point x="466" y="32" type="line" smooth="yes"/>
      <point x="495.372" y="32"/>
      <point x="497" y="44.4395"/>
      <point x="497" y="68" type="curve" smooth="yes"/>
      <point x="497" y="430" type="line" smooth="yes"/>
      <point x="497" y="453.714"/>
      <point x="486.606" y="465"/>
      <point x="460" y="465" type="curve" smooth="yes"/>
      <point x="379" y="465" type="line" smooth="yes"/>
      <point x="344.312" y="465"/>
      <point x="332.595" y="457.682"/>
      <point x="312" y="434" type="curve" smooth="yes"/>
    </contour>
  </outline>
</glyph>
<glyph name="si_Pa" format="1">
  <advance width="509"/>
  <unicode hex="0DB4"/>
  <outline>
    <contour>
      <point x="72" y="0" type="line" smooth="yes"/>
      <point x="34.9277" y="0"/>
      <point x="22" y="16.273"/>
      <point x="22" y="54" type="curve" smooth="yes"/>
      <point x="22" y="298" type="line" smooth="yes"/>
      <point x="22" y="334.667"/>
      <point x="40.6667" y="353"/>
      <point x="78" y="353" type="curve" smooth="yes"/>
      <point x="181.999" y="353" type="line"/>
      <point x="181.999" y="435" type="line" smooth="yes"/>
      <point x="181.999" y="455"/>
      <point x="169.999" y="465"/>
      <point x="145.999" y="465" type="curve" smooth="yes"/>
      <point x="23" y="465" type="line"/>
      <point x="23" y="497" type="line"/>
      <point x="155.999" y="497" type="line" smooth="yes"/>
      <point x="197.332" y="497"/>
      <point x="217.999" y="478"/>
      <point x="217.999" y="440" type="curve" smooth="yes"/>
      <point x="217.999" y="321" type="line"/>
      <point x="81.9922" y="321" type="line" smooth="yes"/>
      <point x="68.5897" y="321"/>
      <point x="59" y="313.325"/>
      <point x="59" y="300.207" type="curve" smooth="yes"/>
      <point x="59" y="55.8926" type="line" smooth="yes"/>
      <point x="59" y="39.9642"/>
      <point x="65.498" y="32"/>
      <point x="78.4941" y="32" type="curve" smooth="yes"/>
      <point x="404.504" y="32" type="line" smooth="yes"/>
      <point x="417.5" y="32"/>
      <point x="423.998" y="39.9639"/>
      <point x="423.998" y="55.8926" type="curve" smooth="yes"/>
      <point x="423.998" y="300.207" type="line" smooth="yes"/>
      <point x="423.998" y="313.623"/>
      <point x="414.562" y="321"/>
      <point x="401.006" y="321" type="curve" smooth="yes"/>
      <point x="263.998" y="321" type="line"/>
      <point x="263.998" y="440" type="line" smooth="yes"/>
      <point x="263.998" y="478"/>
      <point x="284.665" y="497"/>
      <point x="325.998" y="497" type="curve" smooth="yes"/>
      <point x="459.998" y="497" type="line"/>
      <point x="459.998" y="465" type="line"/>
      <point x="335.998" y="465" type="line" smooth="yes"/>
      <point x="311.998" y="465"/>
      <point x="299.998" y="455"/>
      <point x="299.998" y="435" type="curve" smooth="yes"/>
      <point x="299.998" y="353" type="line"/>
      <point x="404.998" y="353" type="line" smooth="yes"/>
      <point x="442.331" y="353"/>
      <point x="460.998" y="334.667"/>
      <point x="460.998" y="298" type="curve" smooth="yes"/>
      <point x="460.998" y="54" type="line" smooth="yes"/>
      <point x="460.998" y="16.2705"/>
      <point x="448.073" y="0"/>
      <point x="410.998" y="0" type="curve" smooth="yes"/>
    </contour>
  </outline>
</glyph>
<glyph name="si_Mba" format="1">
  <advance width="515"/>
  <unicode hex="0DB9"/>
  <outline>
    <contour>
      <point x="384" y="625" type="line" smooth="yes"/>
      <point x="435.559" y="625"/>
      <point x="460" y="601.678"/>
      <point x="460" y="548" type="curve" smooth="yes"/>
      <point x="460" y="400" type="line"/>
      <point x="423" y="400" type="line"/>
      <point x="423" y="541" type="line" smooth="yes"/>
      <point x="423" y="579.354"/>
      <point x="413.56" y="593"/>
      <point x="375.598" y="593" type="curve" smooth="yes"/>
      <point x="22" y="593" type="line"/>
      <point x="22" y="625" type="line"/>
    </contour>
    <contour>
      <point x="460.024" y="54" type="line" smooth="yes"/>
      <point x="459.867" y="16"/>
      <point x="448.266" y="-0"/>
      <point x="414.799" y="0" type="curve" smooth="yes"/>
      <point x="302" y="0" type="line" smooth="yes"/>
      <point x="275.996" y="0"/>
      <point x="254.966" y="20.8428"/>
      <point x="254.966" y="47" type="curve" smooth="yes"/>
      <point x="254.966" y="97.7979" type="line" smooth="yes"/>
      <point x="254.966" y="127.929"/>
      <point x="286.113" y="142.086"/>
      <point x="292.999" y="146.201" type="curve" smooth="yes"/>
      <point x="298.989" y="149.781"/>
      <point x="319" y="159"/>
      <point x="319.4" y="175.003" type="curve" smooth="yes"/>
      <point x="319.395" y="193" type="line" smooth="yes"/>
      <point x="319.392" y="201.38"/>
      <point x="314.458" y="203.593"/>
      <point x="306" y="203.593" type="curve" smooth="yes"/>
      <point x="241.207" y="203.593" type="line"/>
      <point x="177" y="203.593" type="line" smooth="yes"/>
      <point x="170.041" y="203.593"/>
      <point x="163.163" y="201.38"/>
      <point x="163.16" y="193" type="curve" smooth="yes"/>
      <point x="163.154" y="175.203" type="line" smooth="yes"/>
      <point x="163" y="159"/>
      <point x="183.354" y="148.511"/>
      <point x="189" y="144.604" type="curve" smooth="yes"/>
      <point x="195.597" y="140.039"/>
      <point x="227.848" y="127.526"/>
      <point x="227.848" y="97.7979" type="curve" smooth="yes"/>
      <point x="227.848" y="47" type="line" smooth="yes"/>
      <point x="227.848" y="20.8428"/>
      <point x="206.515" y="0"/>
      <point x="180.814" y="0" type="curve" smooth="yes"/>
      <point x="67.2773" y="0" type="line" smooth="yes"/>
      <point x="33.7461" y="0"/>
      <point x="22.0572" y="16.0003"/>
      <point x="22.0518" y="54" type="curve" smooth="yes"/>
      <point x="22" y="412.799" type="line" smooth="yes"/>
      <point x="22" y="445"/>
      <point x="43.162" y="470.001"/>
      <point x="83" y="470.001" type="curve" smooth="yes"/>
      <point x="217.999" y="470.001" type="line" smooth="yes"/>
      <point x="254.256" y="470.001"/>
      <point x="276.998" y="456.32"/>
      <point x="276.999" y="419" type="curve" smooth="yes"/>
      <point x="277" y="343.197" type="line" smooth="yes"/>
      <point x="277" y="304.18"/>
      <point x="262.854" y="285.595"/>
      <point x="224.999" y="285.595" type="curve" smooth="yes"/>
      <point x="46.918" y="285.594" type="line"/>
      <point x="46.917" y="318.394" type="line"/>
      <point x="217.197" y="318" type="line" smooth="yes"/>
      <point x="230.197" y="318"/>
      <point x="239.797" y="325.197"/>
      <point x="239.797" y="346" type="curve" smooth="yes"/>
      <point x="239.793" y="415.003" type="line" smooth="yes"/>
      <point x="239.701" y="430.716"/>
      <point x="229.384" y="438.003"/>
      <point x="211.197" y="438.003" type="curve" smooth="yes"/>
      <point x="87" y="438.003" type="line" smooth="yes"/>
      <point x="65.3779" y="438.003"/>
      <point x="59" y="426.344"/>
      <point x="59" y="411.604" type="curve" smooth="yes"/>
      <point x="59" y="57" type="line" smooth="yes"/>
      <point x="59" y="41.6136"/>
      <point x="64.3438" y="32"/>
      <point x="75.1992" y="32" type="curve" smooth="yes"/>
      <point x="169" y="32" type="line" smooth="yes"/>
      <point x="179.569" y="32"/>
      <point x="190.789" y="34.4688"/>
      <point x="190.797" y="50.2002" type="curve" smooth="yes"/>
      <point x="190.617" y="89" type="line" smooth="yes"/>
      <point x="190.54" y="105.642"/>
      <point x="174.812" y="116.228"/>
      <point x="164" y="123" type="curve" smooth="yes"/>
      <point x="156.14" y="127.923"/>
      <point x="126.146" y="141.855"/>
      <point x="126.146" y="166" type="curve" smooth="yes"/>
      <point x="126.146" y="207" type="line" smooth="yes"/>
      <point x="126.146" y="228.586"/>
      <point x="139.99" y="235.591"/>
      <point x="155.001" y="235.591" type="curve" smooth="yes"/>
      <point x="241.207" y="235.591" type="line"/>
      <point x="326.204" y="235.591" type="line" smooth="yes"/>
      <point x="340.429" y="235.591"/>
      <point x="355.651" y="229.581"/>
      <point x="355.651" y="207" type="curve" smooth="yes"/>
      <point x="355.651" y="166" type="line" smooth="yes"/>
      <point x="355.651" y="139.055"/>
      <point x="322.55" y="127.567"/>
      <point x="315" y="122.999" type="curve" smooth="yes"/>
      <point x="302.094" y="115.191"/>
      <point x="292" y="106"/>
      <point x="291.74" y="90" type="curve" smooth="yes"/>
      <point x="291.741" y="51.2002" type="line" smooth="yes"/>
      <point x="291.741" y="36.2852"/>
      <point x="301.235" y="32"/>
      <point x="312" y="32" type="curve" smooth="yes"/>
      <point x="402.8" y="32" type="line" smooth="yes"/>
      <point x="418.358" y="32"/>
      <point x="423.001" y="44"/>
      <point x="423.001" y="56.7998" type="curve" smooth="yes"/>
      <point x="423.001" y="415" type="line"/>
      <point x="460.067" y="415" type="line"/>
    </contour>
  </outline>
</glyph>
<glyph name="si_La" format="1">
  <advance width="557"/>
  <unicode hex="0DBD"/>
  <outline>
    <contour>
      <point x="240.187" y="48" type="curve" smooth="yes"/>
      <point x="240.187" y="279.804" type="line"/>
      <point x="157.801" y="279.804" type="line"/>
      <point x="157.801" y="312.204" type="line"/>
      <point x="360.188" y="312.204" type="line"/>
      <point x="360.188" y="279.802" type="line"/>
      <point x="277.188" y="279.801" type="line"/>
      <point x="277.188" y="56" type="line" smooth="yes"/>
      <point x="277.188" y="40.7344"/>
      <point x="285.529" y="32"/>
      <point x="301.188" y="32" type="curve" smooth="yes"/>
      <point x="442.795" y="32" type="line" smooth="yes"/>
      <point x="460.962" y="32"/>
      <point x="466.796" y="45.9824"/>
      <point x="466.796" y="66" type="curve" smooth="yes"/>
      <point x="466.796" y="420" type="line" smooth="yes"/>
      <point x="466.796" y="441.176"/>
      <point x="461.851" y="465"/>
      <point x="432.795" y="465" type="curve" smooth="yes"/>
      <point x="89" y="465" type="line" smooth="yes"/>
      <point x="67.1859" y="465"/>
      <point x="59" y="450.776"/>
      <point x="59" y="427" type="curve" smooth="yes"/>
      <point x="59" y="-82" type="line" smooth="yes"/>
      <point x="59" y="-120.061"/>
      <point x="68.4766" y="-131.203"/>
      <point x="101.001" y="-131.203" type="curve" smooth="yes"/>
      <point x="503.606" y="-131.203" type="line"/>
      <point x="503.606" y="-162.611" type="line"/>
      <point x="92" y="-162.611" type="line" smooth="yes"/>
      <point x="52.1143" y="-162.611"/>
      <point x="22" y="-146.153"/>
      <point x="22" y="-90.6113" type="curve" smooth="yes"/>
      <point x="22" y="434" type="line" smooth="yes"/>
      <point x="22" y="471.686"/>
      <point x="47.3457" y="497.001"/>
      <point x="76.2002" y="497.001" type="curve" smooth="yes"/>
      <point x="442.795" y="497" type="line" smooth="yes"/>
      <point x="479.057" y="497"/>
      <point x="503.795" y="464"/>
      <point x="503.807" y="428" type="curve" smooth="yes"/>
      <point x="503.795" y="61" type="line" smooth="yes"/>
      <point x="503.794" y="27.2051"/>
      <point x="489.596" y="0"/>
      <point x="451.795" y="0" type="curve" smooth="yes"/>
      <point x="289.187" y="0" type="line" smooth="yes"/>
      <point x="256.286" y="0"/>
      <point x="240.187" y="20.8721"/>
    </contour>
  </outline>
</glyph>
<glyph name="si_Va" format="1">
  <advance width="490"/>
  <unicode hex="0DC0"/>
  <outline>
    <contour>
      <point x="460" y="415" type="line"/>
      <point x="460" y="54" type="line" smooth="yes"/>
      <point x="460" y="16.2705"/>
      <point x="445.075" y="0"/>
      <point x="408" y="0" type="curve" smooth="yes"/>
      <point x="72" y="0" type="line" smooth="yes"/>
      <point x="34.9277" y="0"/>
      <point x="22" y="16.273"/>
      <point x="22" y="54" type="curve" smooth="yes"/>
      <point x="22" y="238" type="line" smooth="yes"/>
      <point x="22" y="274.667"/>
      <point x="40.6667" y="293"/>
      <point x="78" y="293" type="curve" smooth="yes"/>
      <point x="203.094" y="293" type="line"/>
      <point x="203.094" y="360" type="line" smooth="yes"/>
      <point x="203.094" y="377.569"/>
      <point x="188.667" y="380"/>
      <point x="178" y="380" type="curve" smooth="yes"/>
      <point x="21.999" y="380" type="line"/>
      <point x="21.999" y="412" type="line"/>
      <point x="189" y="412" type="line" smooth="yes"/>
      <point x="224.222" y="412"/>
      <point x="239.994" y="396.405"/>
      <point x="239.996" y="360" type="curve" smooth="yes"/>
      <point x="240" y="261" type="line"/>
      <point x="87" y="261" type="line" smooth="yes"/>
      <point x="71.1674" y="261"/>
      <point x="59" y="254.976"/>
      <point x="59" y="233" type="curve" smooth="yes"/>
      <point x="59" y="58" type="line" smooth="yes"/>
      <point x="59" y="43.333"/>
      <point x="60.958" y="32"/>
      <point x="78" y="32" type="curve" smooth="yes"/>
      <point x="400.8" y="32" type="line" smooth="yes"/>
      <point x="416.448" y="32"/>
      <point x="423" y="40.74"/>
      <point x="423" y="61" type="curve" smooth="yes"/>
      <point x="423" y="415" type="line"/>
    </contour>
    <contour>
      <point x="384" y="625" type="line" smooth="yes"/>
      <point x="435.559" y="625"/>
      <point x="460" y="601.678"/>
      <point x="460" y="548" type="curve" smooth="yes"/>
      <point x="460" y="400" type="line"/>
      <point x="423" y="400" type="line"/>
      <point x="423" y="541" type="line" smooth="yes"/>
      <point x="423" y="579.354"/>
      <point x="413.56" y="593"/>
      <point x="375.598" y="593" type="curve" smooth="yes"/>
      <point x="22" y="593" type="line"/>
      <point x="22" y="625" type="line"/>
    </contour>
  </outline>
</glyph>
<glyph name="si_Sha" format="1">
  <advance width="592"/>
  <unicode hex="0DC1"/>
  <outline>
    <contour>
      <point x="466" y="32" type="line"/>
      <point x="413.263" y="47.4934"/>
      <point x="372.793" y="83.6602"/>
      <point x="372.793" y="148" type="curve" smooth="yes"/>
      <point x="372.793" y="274" type="line" smooth="yes"/>
      <point x="372.793" y="300.033"/>
      <point x="386.956" y="313.8"/>
      <point x="417" y="313.8" type="curve" smooth="yes"/>
      <point x="501.001" y="313.801" type="line"/>
      <point x="501.001" y="333.2"/>
      <point x="500.977" y="426"/>
      <point x="500.977" y="426" type="curve" smooth="yes"/>
      <point x="500.971" y="452.947"/>
      <point x="491.914" y="465"/>
      <point x="462" y="465" type="curve" smooth="yes"/>
      <point x="328.997" y="465" type="line" smooth="yes"/>
      <point x="300.491" y="465"/>
      <point x="290.479" y="454.047"/>
      <point x="286.997" y="435" type="curve" smooth="yes"/>
      <point x="259.575" y="285" type="line"/>
      <point x="283.583" y="285" type="line" smooth="yes"/>
      <point x="308.25" y="285"/>
      <point x="320.583" y="270.667"/>
      <point x="320.583" y="242" type="curve" smooth="yes"/>
      <point x="320.583" y="60" type="line" smooth="yes"/>
      <point x="320.583" y="12.6074"/>
      <point x="301.183" y="0"/>
      <point x="253.583" y="0" type="curve" smooth="yes"/>
      <point x="70" y="0" type="line" smooth="yes"/>
      <point x="33.3613" y="0"/>
      <point x="22" y="19.0518"/>
      <point x="22" y="56" type="curve" smooth="yes"/>
      <point x="22" y="441.999" type="line" smooth="yes"/>
      <point x="22" y="478.666"/>
      <point x="40.333" y="496.999"/>
      <point x="77" y="496.999" type="curve" smooth="yes"/>
      <point x="185.997" y="497" type="line"/>
      <point x="185.997" y="465" type="line"/>
      <point x="88.8066" y="464.999" type="line" smooth="yes"/>
      <point x="65.917" y="464.999"/>
      <point x="59.0039" y="459.096"/>
      <point x="59.0039" y="435.999" type="curve" smooth="yes"/>
      <point x="59" y="59.8008" type="line" smooth="yes"/>
      <point x="59" y="40.5879"/>
      <point x="62.9168" y="32"/>
      <point x="82" y="32" type="curve" smooth="yes"/>
      <point x="246.997" y="32" type="line" smooth="yes"/>
      <point x="274.132" y="32"/>
      <point x="283.583" y="37.6572"/>
      <point x="283.583" y="64" type="curve" smooth="yes"/>
      <point x="283.583" y="231.996" type="line" smooth="yes"/>
      <point x="283.583" y="245.996"/>
      <point x="279.144" y="252.996"/>
      <point x="264.997" y="252.996" type="curve" smooth="yes"/>
      <point x="218.583" y="252.996" type="line"/>
      <point x="252.583" y="446" type="line" smooth="yes"/>
      <point x="258.583" y="480"/>
      <point x="282.583" y="497"/>
      <point x="324.583" y="497" type="curve" smooth="yes"/>
      <point x="470.977" y="497" type="line" smooth="yes"/>
      <point x="517.2" y="497"/>
      <point x="537.977" y="479.952"/>
      <point x="537.977" y="434" type="curve" smooth="yes"/>
      <point x="537.977" y="63" type="line" smooth="yes"/>
      <point x="537.977" y="12.3447"/>
      <point x="514.431" y="-4.8318e-15"/>
      <point x="474.977" y="0" type="curve" smooth="yes"/>
      <point x="374" y="0" type="line"/>
      <point x="374" y="32" type="line"/>
    </contour>
    <contour>
      <point x="501" y="282" type="line"/>
      <point x="420" y="282" type="line" smooth="yes"/>
      <point x="411.185" y="282"/>
      <point x="408.793" y="276.057"/>
      <point x="408.793" y="267" type="curve" smooth="yes"/>
      <point x="408.793" y="144" type="line" smooth="yes"/>
      <point x="408.793" y="89.5118"/>
      <point x="462.101" y="64.2356"/>
      <point x="501" y="55" type="curve"/>
    </contour>
  </outline>
</glyph>
<glyph name="si_Ssa" format="1">
  <advance width="509"/>
  <unicode hex="0DC2"/>
  <outline>
    <contour>
      <point x="350" y="328" type="line"/>
      <point x="400" y="328" type="line"/>
      <point x="263" y="206" type="line" smooth="yes"/>
      <point x="246.148" y="189.812"/>
      <point x="246.003" y="178.552"/>
      <point x="246.002" y="153" type="curve" smooth="yes"/>
      <point x="246" y="103" type="line"/>
      <point x="209.005" y="102.999" type="line"/>
      <point x="209.005" y="159" type="line" smooth="yes"/>
      <point x="209.005" y="180.787"/>
      <point x="210.08" y="202.42"/>
      <point x="225.601" y="217.4" type="curve" smooth="yes"/>
    </contour>
    <contour>
      <point x="22" y="54" type="curve" smooth="yes"/>
      <point x="22" y="298" type="line" smooth="yes"/>
      <point x="22" y="334.667"/>
      <point x="40.6667" y="353"/>
      <point x="78" y="353" type="curve" smooth="yes"/>
      <point x="170.798" y="353" type="line"/>
      <point x="170.798" y="431" type="line" smooth="yes"/>
      <point x="170.798" y="455.331"/>
      <point x="160.863" y="465"/>
      <point x="134.798" y="465" type="curve" smooth="yes"/>
      <point x="23" y="465" type="line"/>
      <point x="23" y="497" type="line"/>
      <point x="145.999" y="497" type="line" smooth="yes"/>
      <point x="187.332" y="497"/>
      <point x="207.999" y="478"/>
      <point x="207.999" y="440" type="curve" smooth="yes"/>
      <point x="207.999" y="321" type="line"/>
      <point x="90" y="321" type="line" smooth="yes"/>
      <point x="68.8454" y="321"/>
      <point x="59" y="313.66"/>
      <point x="59" y="290" type="curve" smooth="yes"/>
      <point x="59" y="62" type="line" smooth="yes"/>
      <point x="59" y="42.4553"/>
      <point x="63" y="32"/>
      <point x="84.002" y="32" type="curve" smooth="yes"/>
      <point x="398.998" y="32" type="line" smooth="yes"/>
      <point x="420" y="32"/>
      <point x="424" y="42.4551"/>
      <point x="424" y="62" type="curve" smooth="yes"/>
      <point x="424" y="290" type="line" smooth="yes"/>
      <point x="424" y="313.659"/>
      <point x="414.154" y="321"/>
      <point x="393" y="321" type="curve" smooth="yes"/>
      <point x="255.001" y="321" type="line"/>
      <point x="255.001" y="440" type="line" smooth="yes"/>
      <point x="255.001" y="478"/>
      <point x="275.668" y="497"/>
      <point x="317.001" y="497" type="curve" smooth="yes"/>
      <point x="416" y="497" type="line" smooth="yes"/>
      <point x="433" y="497"/>
      <point x="460.999" y="484.992"/>
      <point x="460.999" y="443" type="curve" smooth="yes"/>
      <point x="460.999" y="406" type="line" smooth="yes"/>
      <point x="460.999" y="393.365"/>
      <point x="456.522" y="381.113"/>
      <point x="443.832" y="370" type="curve" smooth="yes"/>
      <point x="413" y="343" type="line"/>
      <point x="366.196" y="343" type="line"/>
      <point x="404.197" y="378" type="line" smooth="yes"/>
      <point x="416.559" y="389.692"/>
      <point x="423.998" y="400.389"/>
      <point x="423.998" y="424" type="curve" smooth="yes"/>
      <point x="423.998" y="447.805"/>
      <point x="423.864" y="465"/>
      <point x="398.799" y="465" type="curve" smooth="yes"/>
      <point x="328.002" y="465" type="line" smooth="yes"/>
      <point x="301.937" y="465"/>
      <point x="292.002" y="455.331"/>
      <point x="292.002" y="431" type="curve" smooth="yes"/>
      <point x="292.002" y="353" type="line"/>
      <point x="405" y="353" type="line" smooth="yes"/>
      <point x="442.333" y="353"/>
      <point x="461" y="334.667"/>
      <point x="461" y="298" type="curve" smooth="yes"/>
      <point x="461" y="54" type="line" smooth="yes"/>
      <point x="461" y="16.2734"/>
      <point x="446" y="0"/>
      <point x="408.998" y="0" type="curve" smooth="yes"/>
      <point x="408.998" y="0"/>
      <point x="74.002" y="0"/>
      <point x="74.002" y="0" type="curve" smooth="yes"/>
      <point x="37" y="0"/>
      <point x="22" y="16.273"/>
    </contour>
  </outline>
</glyph>
<glyph name="si_Sa" format="1">
  <advance width="565"/>
  <unicode hex="0DC3"/>
  <outline>
    <contour>
      <point x="248.313" y="165" type="line"/>
      <point x="285.286" y="165" type="line"/>
      <point x="285.286" y="93" type="line" smooth="yes"/>
      <point x="285.286" y="62.4385"/>
      <point x="297.732" y="32"/>
      <point x="332.8" y="32" type="curve" smooth="yes"/>
      <point x="453.506" y="32" type="line" smooth="yes"/>
      <point x="466.499" y="32"/>
      <point x="473" y="39.9639"/>
      <point x="473" y="55.8926" type="curve" smooth="yes"/>
      <point x="473" y="300.207" type="line" smooth="yes"/>
      <point x="473" y="313.324"/>
      <point x="463.408" y="321"/>
      <point x="450.008" y="321" type="curve" smooth="yes"/>
      <point x="290.226" y="321" type="line"/>
      <point x="290.226" y="440" type="line" smooth="yes"/>
      <point x="290.226" y="478"/>
      <point x="310.898" y="497"/>
      <point x="352.226" y="497" type="curve" smooth="yes"/>
      <point x="509" y="497" type="line"/>
      <point x="509" y="465" type="line"/>
      <point x="362.226" y="465" type="line" smooth="yes"/>
      <point x="338.964" y="465"/>
      <point x="326.226" y="457.98"/>
      <point x="326.226" y="435" type="curve" smooth="yes"/>
      <point x="326.226" y="353" type="line"/>
      <point x="454" y="353" type="line" smooth="yes"/>
      <point x="491.333" y="353"/>
      <point x="510" y="334.667"/>
      <point x="510" y="298" type="curve" smooth="yes"/>
      <point x="510" y="54" type="line" smooth="yes"/>
      <point x="510" y="16.2705"/>
      <point x="497.074" y="0"/>
      <point x="460" y="0" type="curve" smooth="yes"/>
      <point x="318.8" y="0" type="line" smooth="yes"/>
      <point x="300.774" y="0"/>
      <point x="275.469" y="10.9941"/>
      <point x="266.8" y="34.7246" type="curve"/>
      <point x="258.131" y="10.9941"/>
      <point x="232.829" y="0"/>
      <point x="214.8" y="0" type="curve" smooth="yes"/>
      <point x="72" y="0" type="line" smooth="yes"/>
      <point x="34.9721" y="0"/>
      <point x="22" y="16.273"/>
      <point x="22" y="54" type="curve" smooth="yes"/>
      <point x="22" y="266" type="line" smooth="yes"/>
      <point x="22" y="286.835"/>
      <point x="29.9175" y="309.935"/>
      <point x="51" y="322" type="curve"/>
      <point x="60.1592" y="335.616"/>
      <point x="61.9033" y="353"/>
      <point x="78" y="353" type="curve" smooth="yes"/>
      <point x="207.374" y="353" type="line"/>
      <point x="207.374" y="435" type="line" smooth="yes"/>
      <point x="207.374" y="457.979"/>
      <point x="194.638" y="465"/>
      <point x="171.374" y="465" type="curve" smooth="yes"/>
      <point x="23" y="465" type="line"/>
      <point x="23" y="497" type="line"/>
      <point x="181.374" y="497" type="line" smooth="yes"/>
      <point x="222.707" y="497"/>
      <point x="243.374" y="478"/>
      <point x="243.374" y="440" type="curve" smooth="yes"/>
      <point x="243.374" y="321" type="line"/>
      <point x="126.574" y="321" type="line" smooth="yes"/>
      <point x="72.2768" y="321"/>
      <point x="59" y="288"/>
      <point x="58.875" y="252" type="curve" smooth="yes"/>
      <point x="59" y="55.8926" type="line" smooth="yes"/>
      <point x="59.0102" y="39.9642"/>
      <point x="65.5218" y="32"/>
      <point x="78.4941" y="32" type="curve" smooth="yes"/>
      <point x="200.8" y="32" type="line" smooth="yes"/>
      <point x="235.876" y="32"/>
      <point x="248.313" y="62.4385"/>
      <point x="248.313" y="93" type="curve" smooth="yes"/>
    </contour>
    <contour>
      <point x="-6" y="352.938" type="line"/>
      <point x="130.574" y="352.938" type="line"/>
      <point x="130.574" y="321" type="line"/>
      <point x="-6" y="321" type="line"/>
    </contour>
  </outline>
</glyph>
<glyph name="si_Ha" format="1">
  <advance width="590"/>
  <unicode hex="0DC4"/>
  <outline>
    <contour>
      <point x="59" y="59.6006" type="line" smooth="yes"/>
      <point x="59" y="40.3877"/>
      <point x="62.9168" y="32"/>
      <point x="82" y="32" type="curve" smooth="yes"/>
      <point x="250" y="32" type="line" smooth="yes"/>
      <point x="277.134" y="32"/>
      <point x="286.586" y="37.6574"/>
      <point x="286.586" y="64" type="curve" smooth="yes"/>
      <point x="286.586" y="231.996" type="line" smooth="yes"/>
      <point x="286.586" y="245.996"/>
      <point x="282.146" y="252.996"/>
      <point x="268" y="252.996" type="curve" smooth="yes"/>
      <point x="221.586" y="252.996" type="line"/>
      <point x="255.586" y="446" type="line" smooth="yes"/>
      <point x="261.586" y="480"/>
      <point x="285.586" y="497"/>
      <point x="327.586" y="497" type="curve" smooth="yes"/>
      <point x="470.977" y="497" type="line" smooth="yes"/>
      <point x="517.2" y="497"/>
      <point x="537.977" y="479.952"/>
      <point x="537.977" y="434" type="curve" smooth="yes"/>
      <point x="537.977" y="64" type="line" smooth="yes"/>
      <point x="537.977" y="15.29"/>
      <point x="517.683" y="-5.23006e-15"/>
      <point x="474.977" y="0" type="curve" smooth="yes"/>
      <point x="385.984" y="0" type="line"/>
      <point x="385.984" y="32" type="line"/>
      <point x="469.277" y="32" type="line" smooth="yes"/>
      <point x="493.839" y="32"/>
      <point x="500.977" y="41.8621"/>
      <point x="500.977" y="68.9014" type="curve" smooth="yes"/>
      <point x="500.977" y="426" type="line" smooth="yes"/>
      <point x="500.977" y="454.593"/>
      <point x="491.914" y="465"/>
      <point x="462" y="465" type="curve" smooth="yes"/>
      <point x="332" y="465" type="line" smooth="yes"/>
      <point x="303.494" y="465"/>
      <point x="293.482" y="454.047"/>
      <point x="290" y="435" type="curve" smooth="yes"/>
      <point x="262.578" y="285" type="line"/>
      <point x="286.586" y="285" type="line" smooth="yes"/>
      <point x="311.253" y="285"/>
      <point x="323.586" y="270.667"/>
      <point x="323.586" y="242" type="curve" smooth="yes"/>
      <point x="323.586" y="60" type="line" smooth="yes"/>
      <point x="323.586" y="12.6075"/>
      <point x="304.186" y="0"/>
      <point x="256.586" y="0" type="curve" smooth="yes"/>
      <point x="70" y="0" type="line" smooth="yes"/>
      <point x="37.0673" y="0"/>
      <point x="22" y="15.2025"/>
      <point x="22" y="51" type="curve" smooth="yes"/>
      <point x="22" y="298" type="line" smooth="yes"/>
      <point x="22" y="334.667"/>
      <point x="40.333" y="353"/>
      <point x="77" y="353" type="curve" smooth="yes"/>
      <point x="148.79" y="353" type="line"/>
      <point x="148.79" y="423.798" type="line" smooth="yes"/>
      <point x="148.79" y="455.255"/>
      <point x="137.001" y="464.999"/>
      <point x="108.789" y="464.999" type="curve" smooth="yes"/>
      <point x="22" y="464.999" type="line"/>
      <point x="22" y="497" type="line"/>
      <point x="119.79" y="497" type="line" smooth="yes"/>
      <point x="163.79" y="497"/>
      <point x="185.79" y="475"/>
      <point x="185.79" y="431" type="curve" smooth="yes"/>
      <point x="185.79" y="321" type="line"/>
      <point x="88.8066" y="321" type="line" smooth="yes"/>
      <point x="65.917" y="321"/>
      <point x="59.0043" y="315.097"/>
      <point x="59.0039" y="292" type="curve" smooth="yes"/>
    </contour>
  </outline>
</glyph>
<glyph name="si_MatraAe" format="1">
  <advance width="250"/>
  <unicode hex="0DD0"/>
  <outline>
    <contour>
      <point x="22" y="479" type="line"/>
      <point x="202" y="478.999" type="line"/>
      <point x="202" y="445.999" type="line"/>
      <point x="73.4023" y="253.001" type="line" smooth="yes"/>
      <point x="62.4442" y="236.555"/>
      <point x="59" y="218.951"/>
      <point x="59" y="196.199" type="curve" smooth="yes"/>
      <point x="59" y="50.999" type="line" smooth="yes"/>
      <point x="59" y="38.332"/>
      <point x="65.667" y="31.999"/>
      <point x="79" y="31.999" type="curve" smooth="yes"/>
      <point x="202" y="31.999" type="line"/>
      <point x="202" y="0" type="line"/>
      <point x="57" y="0" type="line" smooth="yes"/>
      <point x="36.333" y="0"/>
      <point x="22" y="12.001"/>
      <point x="22" y="36.001" type="curve" smooth="yes"/>
      <point x="22" y="191" type="line" smooth="yes"/>
      <point x="22" y="219.758"/>
      <point x="23.727" y="243.522"/>
      <point x="40" y="268" type="curve" smooth="yes"/>
      <point x="159" y="446.998" type="line"/>
      <point x="22" y="446.999" type="line"/>
    </contour>
  </outline>
</glyph>
<glyph name="si_MatraAae" format="1">
  <advance width="248"/>
  <unicode hex="0DD1"/>
  <outline>
    <contour>
      <point x="22.001" y="497" type="line"/>
      <point x="204" y="496.999" type="line"/>
      <point x="204" y="465.998" type="line"/>
      <point x="78" y="360.98" type="line"/>
      <point x="204" y="360.979" type="line"/>
      <point x="204" y="330.186" type="line"/>
      <point x="85.0049" y="226.787" type="line" smooth="yes"/>
      <point x="62.7504" y="207.45"/>
      <point x="59" y="199.604"/>
      <point x="59" y="169.381" type="curve" smooth="yes"/>
      <point x="59" y="51" type="line" smooth="yes"/>
      <point x="59" y="33.9756"/>
      <point x="59.377" y="32.0001"/>
      <point x="76" y="32" type="curve" smooth="yes"/>
      <point x="204" y="31.999" type="line"/>
      <point x="204" y="0" type="line"/>
      <point x="52.001" y="0.000976562" type="line" smooth="yes"/>
      <point x="32.001" y="0.00110506"/>
      <point x="22.0011" y="12.001"/>
      <point x="22.001" y="36.001" type="curve" smooth="yes"/>
      <point x="22" y="175.187" type="line" smooth="yes"/>
      <point x="22" y="202.187"/>
      <point x="24.6782" y="222.807"/>
      <point x="49.6035" y="244.591" type="curve" smooth="yes"/>
      <point x="149.201" y="329.186" type="line"/>
      <point x="22.001" y="329.187" type="line"/>
      <point x="22.001" y="357.98" type="line"/>
      <point x="149.604" y="464.998" type="line"/>
      <point x="22.001" y="464.997" type="line"/>
    </contour>
  </outline>
</glyph>
<glyph name="si_MatraIi" format="1">
  <advance width="515"/>
  <unicode hex="0DD3"/>
  <outline>
    <contour>
      <point x="-243.192" y="608" type="line" smooth="yes"/>
      <point x="-253.192" y="608"/>
      <point x="-258.192" y="604"/>
      <point x="-258.192" y="596" type="curve" smooth="yes"/>
      <point x="-258.192" y="556" type="line" smooth="yes"/>
      <point x="-258.192" y="547.333"/>
      <point x="-256.859" y="543"/>
      <point x="-246.192" y="543" type="curve" smooth="yes"/>
      <point x="-108.192" y="543" type="line" smooth="yes"/>
      <point x="-97.5254" y="543"/>
      <point x="-96.1924" y="547.667"/>
      <point x="-96.1924" y="557" type="curve" smooth="yes"/>
      <point x="-96.1924" y="592.196" type="line" smooth="yes"/>
      <point x="-96.1924" y="602.605"/>
      <point x="-101.859" y="608"/>
      <point x="-113.192" y="608" type="curve" smooth="yes"/>
    </contour>
    <contour>
      <point x="-498.991" y="608.008" type="line" smooth="yes"/>
      <point x="-510.438" y="608.008"/>
      <point x="-518.192" y="602"/>
      <point x="-518.192" y="590" type="curve" smooth="yes"/>
      <point x="-518.192" y="511" type="line"/>
      <point x="-554.998" y="511" type="line"/>
      <point x="-554.998" y="595.803" type="line" smooth="yes"/>
      <point x="-554.998" y="625.797"/>
      <point x="-537.387" y="640.011"/>
      <point x="-510.192" y="640.011" type="curve" smooth="yes"/>
      <point x="-101.192" y="640.012" type="line" smooth="yes"/>
      <point x="-73.3926" y="640.012"/>
      <point x="-59.1934" y="626.66"/>
      <point x="-59.1934" y="600" type="curve" smooth="yes"/>
      <point x="-59.1934" y="540.996" type="line" smooth="yes"/>
      <point x="-59.1934" y="521"/>
      <point x="-69.1953" y="510.996"/>
      <point x="-89.1934" y="510.996" type="curve" smooth="yes"/>
      <point x="-267.596" y="510.994" type="line" smooth="yes"/>
      <point x="-290.871" y="510.994"/>
      <point x="-295.396" y="521.302"/>
      <point x="-295.396" y="537" type="curve" smooth="yes"/>
      <point x="-295.396" y="600" type="line" smooth="yes"/>
      <point x="-295.396" y="604.531"/>
      <point x="-294.578" y="607.009"/>
      <point x="-292.996" y="608" type="curve"/>
    </contour>
  </outline>
</glyph>
<glyph name="si_MatraU" format="1">
  <advance width="2"/>
  <unicode hex="0DD4"/>
  <outline>
    <contour>
      <point x="-68" y="-159" type="line"/>
      <point x="-551.195" y="-159" type="line"/>
      <point x="-551.195" y="-126.904" type="line"/>
      <point x="-105.088" y="-126.904" type="line"/>
      <point x="-105.088" y="28" type="line"/>
      <point x="-100.088" y="28" type="line" smooth="yes"/>
      <point x="-91.626" y="28"/>
      <point x="-73.333" y="38"/>
      <point x="-68" y="64" type="curve"/>
    </contour>
  </outline>
</glyph>
<glyph name="si_MatraUu" format="1">
  <advance width="2"/>
  <unicode hex="0DD6"/>
  <outline>
    <contour>
      <point x="-64" y="-158.999" type="line"/>
      <point x="-94.8018" y="-158.999" type="line"/>
      <point x="-100.002" y="-149.728"/>
      <point x="-111.47" y="-138.132"/>
      <point x="-119.198" y="-132.798" type="curve" smooth="yes"/>
      <point x="-129.369" y="-125.778"/>
      <point x="-147.392" y="-119.993"/>
      <point x="-166.202" y="-119.993" type="curve"/>
      <point x="-223.006" y="-119.993" type="line"/>
      <point x="-240.664" y="-119.993"/>
      <point x="-261.166" y="-127.5"/>
      <point x="-273.595" y="-132.599" type="curve"/>
      <point x="-321.203" y="-152.402" type="line"/>
      <point x="-336.875" y="-158.382"/>
      <point x="-365.689" y="-162.805"/>
      <point x="-400" y="-162.805" type="curve" smooth="yes"/>
      <point x="-453.797" y="-162.805" type="line" smooth="yes"/>
      <point x="-486.211" y="-162.805"/>
      <point x="-501.798" y="-150.575"/>
      <point x="-501.798" y="-122.002" type="curve" smooth="yes"/>
      <point x="-501.798" y="-29.0029" type="line"/>
      <point x="-465" y="-29.0029" type="line"/>
      <point x="-465" y="-112.604" type="line" smooth="yes"/>
      <point x="-465" y="-123.889"/>
      <point x="-460.132" y="-130.605"/>
      <point x="-448.195" y="-130.605" type="curve" smooth="yes"/>
      <point x="-394.206" y="-130.605" type="line" smooth="yes"/>
      <point x="-373.238" y="-130.605"/>
      <point x="-347.41" y="-127.924"/>
      <point x="-324.006" y="-119.002" type="curve"/>
      <point x="-284.8" y="-102.799" type="line"/>
      <point x="-271.834" y="-97.4717"/>
      <point x="-247.406" y="-87.9922"/>
      <point x="-225.21" y="-87.9922" type="curve"/>
      <point x="-161.991" y="-87.9922" type="line"/>
      <point x="-138.301" y="-87.9993"/>
      <point x="-120.854" y="-95.7715"/>
      <point x="-112.592" y="-101.199" type="curve" smooth="yes"/>
      <point x="-106.638" y="-105.111"/>
      <point x="-105.951" y="-105.237"/>
      <point x="-101.204" y="-109.998" type="curve"/>
      <point x="-101.204" y="35" type="line"/>
      <point x="-88.0059" y="35" type="line" smooth="yes"/>
      <point x="-82.4375" y="35"/>
      <point x="-68" y="49"/>
      <point x="-64" y="77" type="curve"/>
    </contour>
  </outline>
</glyph>
<glyph name="si_MatraLs" format="1">
  <advance width="355"/>
  <unicode hex="0DDF"/>
  <outline>
    <contour>
      <point x="22" y="497" type="line"/>
      <point x="22" y="296.593" type="line" smooth="yes"/>
      <point x="22" y="273.958"/>
      <point x="35.0068" y="263.593"/>
      <point x="55" y="263.593" type="curve" smooth="yes"/>
      <point x="135.6" y="263.593" type="line" smooth="yes"/>
      <point x="161.569" y="263.593"/>
      <point x="177.6" y="271.499"/>
      <point x="177.6" y="298.593" type="curve" smooth="yes"/>
      <point x="177.6" y="449" type="line" smooth="yes"/>
      <point x="177.6" y="459.665"/>
      <point x="180.933" y="465"/>
      <point x="187.6" y="465" type="curve" smooth="yes"/>
      <point x="263.797" y="465" type="line" smooth="yes"/>
      <point x="269.796" y="465"/>
      <point x="272.797" y="460.333"/>
      <point x="272.797" y="451" type="curve" smooth="yes"/>
      <point x="272.797" y="49.001" type="line" smooth="yes"/>
      <point x="272.797" y="37.668"/>
      <point x="271" y="32.001"/>
      <point x="261" y="32.001" type="curve" smooth="yes"/>
      <point x="74" y="32.001" type="line" smooth="yes"/>
      <point x="60.0908" y="32.001"/>
      <point x="59" y="34.708"/>
      <point x="59" y="49.001" type="curve" smooth="yes"/>
      <point x="59" y="147" type="line"/>
      <point x="22" y="147" type="line"/>
      <point x="22" y="47" type="line" smooth="yes"/>
      <point x="22" y="16.3372"/>
      <point x="38.0887" y="0"/>
      <point x="62" y="0" type="curve" smooth="yes"/>
      <point x="259" y="0" type="line" smooth="yes"/>
      <point x="287.587" y="0"/>
      <point x="307" y="16.7559"/>
      <point x="307" y="46" type="curve" smooth="yes"/>
      <point x="307" y="456" type="line" smooth="yes"/>
      <point x="307" y="478.214"/>
      <point x="290.729" y="497"/>
      <point x="265" y="497" type="curve" smooth="yes"/>
      <point x="178.61" y="497" type="line" smooth="yes"/>
      <point x="155.632" y="497"/>
      <point x="142.013" y="485.421"/>
      <point x="142.013" y="457" type="curve" smooth="yes"/>
      <point x="142.013" y="320.186" type="line" smooth="yes"/>
      <point x="142.013" y="304.186"/>
      <point x="141.578" y="296.186"/>
      <point x="132.013" y="296.186" type="curve" smooth="yes"/>
      <point x="67.8018" y="296.186" type="line" smooth="yes"/>
      <point x="60.2832" y="296.186"/>
      <point x="59" y="300.853"/>
      <point x="59" y="318.186" type="curve" smooth="yes"/>
      <point x="59" y="497" type="line"/>
    </contour>
  </outline>
</glyph>
<glyph name="si_MatraLl" format="1">
  <advance width="355"/>
  <unicode hex="0DF3"/>
  <outline>
    <contour>
      <point x="22" y="497" type="line"/>
      <point x="22" y="296.593" type="line" smooth="yes"/>
      <point x="22" y="273.958"/>
      <point x="35.0068" y="263.593"/>
      <point x="55" y="263.593" type="curve" smooth="yes"/>
      <point x="135.6" y="263.593" type="line" smooth="yes"/>
      <point x="161.569" y="263.593"/>
      <point x="177.6" y="271.499"/>
      <point x="177.6" y="298.593" type="curve" smooth="yes"/>
      <point x="177.6" y="441.199" type="line" smooth="yes"/>
      <point x="177.6" y="459.723"/>
      <point x="182.348" y="465"/>
      <point x="197.203" y="465" type="curve" smooth="yes"/>
      <point x="249.998" y="465" type="line" smooth="yes"/>
      <point x="263.571" y="465"/>
      <point x="269.794" y="457.214"/>
      <point x="269.794" y="443" type="curve" smooth="yes"/>
      <point x="269.794" y="58" type="line" smooth="yes"/>
      <point x="269.794" y="39.457"/>
      <point x="261.143" y="32"/>
      <point x="246.795" y="32" type="curve" smooth="yes"/>
      <point x="83.0049" y="32" type="line" smooth="yes"/>
      <point x="66.5098" y="32"/>
      <point x="59" y="37.582"/>
      <point x="59" y="56.9961" type="curve" smooth="yes"/>
      <point x="59" y="147" type="line"/>
      <point x="22" y="147" type="line"/>
      <point x="22" y="47" type="line" smooth="yes"/>
      <point x="22" y="16.3372"/>
      <point x="38.0887" y="0"/>
      <point x="62" y="0" type="curve" smooth="yes"/>
      <point x="259" y="0" type="line" smooth="yes"/>
      <point x="287.587" y="0"/>
      <point x="307" y="16.7559"/>
      <point x="307" y="46" type="curve" smooth="yes"/>
      <point x="307" y="456" type="line" smooth="yes"/>
      <point x="307" y="478.214"/>
      <point x="290.729" y="497"/>
      <point x="265" y="497" type="curve" smooth="yes"/>
      <point x="176.809" y="497" type="line" smooth="yes"/>
      <point x="153.83" y="497"/>
      <point x="140.211" y="481.421"/>
      <point x="140.211" y="453" type="curve" smooth="yes"/>
      <point x="140.211" y="315.181" type="line" smooth="yes"/>
      <point x="140.211" y="297.911"/>
      <point x="132.8" y="296.186"/>
      <point x="118.196" y="296.186" type="curve" smooth="yes"/>
      <point x="79.0029" y="296.186" type="line" smooth="yes"/>
      <point x="63.7539" y="296.186"/>
      <point x="59" y="297.744"/>
      <point x="59" y="315.183" type="curve" smooth="yes"/>
      <point x="59" y="497" type="line"/>
    </contour>
  </outline>
</glyph>
<glyph name="si_NyAe" format="1">
  <advance width="1088"/>
  <outline>
    <contour>
      <point x="480.196" y="307.809" type="line" smooth="yes"/>
      <point x="480.196" y="326.779"/>
      <point x="470.235" y="332.809"/>
      <point x="455.196" y="332.809" type="curve" smooth="yes"/>
      <point x="312.202" y="332.81" type="line"/>
      <point x="220.405" y="256" type="line"/>
      <point x="247.187" y="256" type="line"/>
      <point x="247.187" y="228.2" type="line"/>
      <point x="213.117" y="209.638"/>
      <point x="208.187" y="193.123"/>
      <point x="208.187" y="146.014" type="curve" smooth="yes"/>
      <point x="208.187" y="56" type="line" smooth="yes"/>
      <point x="208.187" y="38.667"/>
      <point x="213.833" y="32"/>
      <point x="228.586" y="32" type="curve" smooth="yes"/>
      <point x="283" y="32" type="line" smooth="yes"/>
      <point x="323.105" y="32"/>
      <point x="325.399" y="61.5811"/>
      <point x="325.399" y="94" type="curve" smooth="yes"/>
      <point x="325.399" y="188" type="line"/>
      <point x="362.601" y="188.003" type="line"/>
      <point x="362.601" y="94" type="line" smooth="yes"/>
      <point x="362.601" y="61.5684"/>
      <point x="363.104" y="32"/>
      <point x="401" y="32" type="curve" smooth="yes"/>
      <point x="454.202" y="32" type="line" smooth="yes"/>
      <point x="475.791" y="32"/>
      <point x="480.196" y="46.001"/>
      <point x="480.196" y="64" type="curve" smooth="yes"/>
    </contour>
    <contour>
      <point x="591" y="465" type="line"/>
      <point x="551" y="465" type="line" smooth="yes"/>
      <point x="531.7" y="465"/>
      <point x="507.149" y="463.127"/>
      <point x="490" y="458" type="curve" smooth="yes"/>
      <point x="470.51" y="452.174"/>
      <point x="447.156" y="438.916"/>
      <point x="422.202" y="419.802" type="curve" smooth="yes"/>
      <point x="350.407" y="364.81" type="line"/>
      <point x="470.196" y="364.809" type="line" smooth="yes"/>
      <point x="495.57" y="364.809"/>
      <point x="517.196" y="350.017"/>
      <point x="517.196" y="315.809" type="curve" smooth="yes"/>
      <point x="517.196" y="52.999" type="line" smooth="yes"/>
      <point x="517.196" y="19.4961"/>
      <point x="493.775" y="-0.000976562"/>
      <point x="466.012" y="-0.000976562" type="curve" smooth="yes"/>
      <point x="380.199" y="0" type="line" smooth="yes"/>
      <point x="361.242" y="0"/>
      <point x="347.866" y="9.66699"/>
      <point x="343.199" y="29.001" type="curve"/>
      <point x="338.532" y="9.66699"/>
      <point x="321.892" y="0"/>
      <point x="304.199" y="0" type="curve" smooth="yes"/>
      <point x="216.187" y="0" type="line" smooth="yes"/>
      <point x="187.678" y="0"/>
      <point x="171.187" y="19.7461"/>
      <point x="171.187" y="46" type="curve" smooth="yes"/>
      <point x="171.187" y="156.011" type="line" smooth="yes"/>
      <point x="171.187" y="198.781"/>
      <point x="179.128" y="215.78"/>
      <point x="193.985" y="224.8" type="curve"/>
      <point x="161.202" y="224.8" type="line"/>
      <point x="161.202" y="252.991" type="line"/>
      <point x="306.194" y="374.211" type="line"/>
      <point x="306.033" y="430" type="line" smooth="yes"/>
      <point x="305.979" y="454.001"/>
      <point x="300.146" y="465"/>
      <point x="277.202" y="465" type="curve" smooth="yes"/>
      <point x="187.202" y="465" type="line"/>
      <point x="187.202" y="497.001" type="line"/>
      <point x="296.397" y="497" type="line" smooth="yes"/>
      <point x="324.636" y="497"/>
      <point x="342.111" y="477.275"/>
      <point x="342.149" y="440.799" type="curve" smooth="yes"/>
      <point x="342.197" y="404.206" type="line"/>
      <point x="408" y="454" type="line" smooth="yes"/>
      <point x="434.984" y="474.419"/>
      <point x="455.547" y="483.593"/>
      <point x="471" y="488.6" type="curve" smooth="yes"/>
      <point x="489.38" y="494.555"/>
      <point x="516.087" y="497"/>
      <point x="538" y="497" type="curve" smooth="yes"/>
      <point x="591" y="497" type="line"/>
    </contour>
    <contour>
      <point x="116.602" y="465" type="line" smooth="yes"/>
      <point x="76.8906" y="465"/>
      <point x="59" y="452.74"/>
      <point x="59" y="412" type="curve" smooth="yes"/>
      <point x="59" y="0" type="line"/>
      <point x="22" y="0" type="line"/>
      <point x="22" y="424" type="line" smooth="yes"/>
      <point x="22" y="476.166"/>
      <point x="58.8513" y="497"/>
      <point x="105.4" y="497" type="curve" smooth="yes"/>
      <point x="281.614" y="497" type="line"/>
      <point x="211.614" y="465" type="line"/>
    </contour>
    <component base="si_DAe" xOffset="567"/>
  </outline>
</glyph>
<glyph name="si_B.halant" format="1">
  <advance width="515"/>
  <outline>
    <contour>
      <point x="460" y="400" type="line"/>
      <point x="423" y="400" type="line"/>
      <point x="423" y="484" type="line" smooth="yes"/>
      <point x="423" y="513.546"/>
      <point x="406.062" y="518"/>
      <point x="387" y="518" type="curve" smooth="yes"/>
      <point x="14" y="518" type="line"/>
      <point x="14" y="550" type="line"/>
      <point x="82" y="550" type="line"/>
      <point x="52.667" y="557.333"/>
      <point x="50" y="582.667"/>
      <point x="50" y="604" type="curve" smooth="yes"/>
      <point x="50" y="632" type="line" smooth="yes"/>
      <point x="50" y="659.333"/>
      <point x="66.3333" y="673"/>
      <point x="99" y="673" type="curve" smooth="yes"/>
      <point x="458" y="673" type="line"/>
      <point x="458" y="641" type="line"/>
      <point x="102.5" y="641" type="line" smooth="yes"/>
      <point x="87.5312" y="641"/>
      <point x="87" y="633.667"/>
      <point x="87" y="616" type="curve" smooth="yes"/>
      <point x="87" y="573.678"/>
      <point x="97.3973" y="550"/>
      <point x="168" y="550" type="curve" smooth="yes"/>
      <point x="391" y="550" type="line" smooth="yes"/>
      <point x="446.441" y="550"/>
      <point x="460" y="525.687"/>
      <point x="460" y="469" type="curve" smooth="yes"/>
    </contour>
    <contour>
      <point x="215.002" y="54" type="curve" smooth="yes"/>
      <point x="214.002" y="356.586" type="line" smooth="yes"/>
      <point x="213.945" y="376.709"/>
      <point x="206.548" y="385.586"/>
      <point x="188" y="385.586" type="curve" smooth="yes"/>
      <point x="85" y="385.586" type="line" smooth="yes"/>
      <point x="64.3496" y="385.586"/>
      <point x="59" y="375.711"/>
      <point x="59" y="356.386" type="curve" smooth="yes"/>
      <point x="59" y="60" type="line" smooth="yes"/>
      <point x="59" y="37.8389"/>
      <point x="64.4795" y="32"/>
      <point x="82" y="32" type="curve" smooth="yes"/>
      <point x="172" y="32" type="line"/>
      <point x="172" y="0" type="line"/>
      <point x="72" y="0" type="line" smooth="yes"/>
      <point x="34.9277" y="0"/>
      <point x="22" y="16.2734"/>
      <point x="22" y="54" type="curve" smooth="yes"/>
      <point x="22" y="362.602" type="line" smooth="yes"/>
      <point x="22" y="399.269"/>
      <point x="40.667" y="417.602"/>
      <point x="78" y="417.602" type="curve" smooth="yes"/>
      <point x="196.603" y="417.602" type="line" smooth="yes"/>
      <point x="228.73" y="417.602"/>
      <point x="251.603" y="403.389"/>
      <point x="251.603" y="364" type="curve" smooth="yes"/>
      <point x="251.603" y="62" type="line" smooth="yes"/>
      <point x="251.603" y="41.9082"/>
      <point x="255.226" y="32"/>
      <point x="277" y="32" type="curve" smooth="yes"/>
      <point x="402" y="32" type="line" smooth="yes"/>
      <point x="418.515" y="32"/>
      <point x="423.004" y="39.3467"/>
      <point x="423.004" y="58" type="curve" smooth="yes"/>
      <point x="423.004" y="415" type="line"/>
      <point x="460.001" y="415" type="line"/>
      <point x="460.001" y="54" type="line" smooth="yes"/>
      <point x="460.001" y="16.2705"/>
      <point x="447.076" y="-0"/>
      <point x="410.001" y="0" type="curve" smooth="yes"/>
      <point x="267.002" y="0" type="line" smooth="yes"/>
      <point x="230.255" y="0"/>
      <point x="215.125" y="16.7315"/>
    </contour>
  </outline>
</glyph>
<glyph name="si_Ba.reph" format="1">
  <advance width="515"/>
  <outline>
    <contour>
      <point x="384" y="625" type="line" smooth="yes"/>
      <point x="435.559" y="625"/>
      <point x="460" y="601.678"/>
      <point x="460" y="548" type="curve" smooth="yes"/>
      <point x="460" y="400" type="line"/>
      <point x="423" y="400" type="line"/>
      <point x="423" y="541" type="line" smooth="yes"/>
      <point x="423" y="579.354"/>
      <point x="413.56" y="593"/>
      <point x="375.598" y="593" type="curve" smooth="yes"/>
      <point x="22" y="593" type="line"/>
      <point x="22" y="625" type="line"/>
    </contour>
    <contour>
      <point x="215.002" y="54" type="curve" smooth="yes"/>
      <point x="214.002" y="409" type="line" smooth="yes"/>
      <point x="213.945" y="429.123"/>
      <point x="206.548" y="438"/>
      <point x="188" y="438" type="curve" smooth="yes"/>
      <point x="85" y="438" type="line" smooth="yes"/>
      <point x="64.3496" y="438"/>
      <point x="59" y="428.125"/>
      <point x="59" y="408.8" type="curve" smooth="yes"/>
      <point x="59" y="60" type="line" smooth="yes"/>
      <point x="59" y="37.8389"/>
      <point x="64.4795" y="32"/>
      <point x="82" y="32" type="curve" smooth="yes"/>
      <point x="172" y="32" type="line"/>
      <point x="172" y="0" type="line"/>
      <point x="72" y="0" type="line" smooth="yes"/>
      <point x="34.9277" y="0"/>
      <point x="22" y="16.2734"/>
      <point x="22" y="54" type="curve" smooth="yes"/>
      <point x="22" y="415.016" type="line" smooth="yes"/>
      <point x="22" y="451.683"/>
      <point x="40.667" y="470.016"/>
      <point x="78" y="470.016" type="curve" smooth="yes"/>
      <point x="196.603" y="470.016" type="line" smooth="yes"/>
      <point x="228.73" y="470.016"/>
      <point x="251.603" y="455.803"/>
      <point x="251.603" y="416.414" type="curve" smooth="yes"/>
      <point x="251.603" y="62" type="line" smooth="yes"/>
      <point x="251.603" y="41.9082"/>
      <point x="255.225" y="32"/>
      <point x="277" y="32" type="curve" smooth="yes"/>
      <point x="402" y="32" type="line" smooth="yes"/>
      <point x="418.514" y="32"/>
      <point x="423.004" y="39.3467"/>
      <point x="423.004" y="58" type="curve" smooth="yes"/>
      <point x="423.004" y="415" type="line"/>
      <point x="460.001" y="415" type="line"/>
      <point x="460.001" y="54" type="line" smooth="yes"/>
      <point x="460.001" y="16.2705"/>
      <point x="447.076" y="-0"/>
      <point x="410.001" y="0" type="curve" smooth="yes"/>
      <point x="267.002" y="0" type="line" smooth="yes"/>
      <point x="230.255" y="0"/>
      <point x="215.107" y="16.7314"/>
    </contour>
    <contour>
      <point x="208.997" y="659.598" type="line"/>
      <point x="247" y="659.598" type="line"/>
      <point x="247" y="566" type="line" smooth="yes"/>
      <point x="247" y="538.822"/>
      <point x="235.509" y="529"/>
      <point x="216" y="529" type="curve" smooth="yes"/>
      <point x="116.606" y="529" type="line" smooth="yes"/>
      <point x="90.1426" y="529"/>
      <point x="76.6064" y="542.896"/>
      <point x="76.6064" y="575" type="curve" smooth="yes"/>
      <point x="76.6064" y="668.207" type="line" smooth="yes"/>
      <point x="76.6064" y="696.944"/>
      <point x="93.8555" y="716.207"/>
      <point x="130.606" y="716.207" type="curve" smooth="yes"/>
      <point x="322" y="716.207" type="line" smooth="yes"/>
      <point x="355.445" y="716.207"/>
      <point x="373" y="699.386"/>
      <point x="373" y="660.207" type="curve" smooth="yes"/>
      <point x="373" y="533.603" type="line"/>
      <point x="336.002" y="533.603" type="line"/>
      <point x="336.002" y="655.806" type="line" smooth="yes"/>
      <point x="336.002" y="675.583"/>
      <point x="329.771" y="684.204"/>
      <point x="316" y="684.204" type="curve" smooth="yes"/>
      <point x="135.606" y="684.204" type="line" smooth="yes"/>
      <point x="123.006" y="684.204"/>
      <point x="113.614" y="677.9"/>
      <point x="113.614" y="662.806" type="curve" smooth="yes"/>
      <point x="113.614" y="580.599" type="line" smooth="yes"/>
      <point x="113.614" y="567.926"/>
      <point x="116.859" y="560.391"/>
      <point x="128.606" y="560.391" type="curve" smooth="yes"/>
      <point x="196.206" y="560.391" type="line" smooth="yes"/>
      <point x="207.471" y="560.391"/>
      <point x="208.997" y="565.724"/>
      <point x="208.997" y="576.391" type="curve" smooth="yes"/>
    </contour>
  </outline>
</glyph>
<glyph name="si_C.halant" format="1">
  <advance width="539"/>
  <outline>
    <contour>
      <point x="-6" y="309" type="line"/>
      <point x="183.996" y="309" type="line"/>
      <point x="183.996" y="277" type="line"/>
      <point x="-6.00195" y="277" type="line"/>
    </contour>
    <contour>
      <point x="496.992" y="400" type="line"/>
      <point x="459.992" y="400" type="line"/>
      <point x="459.992" y="465" type="line" smooth="yes"/>
      <point x="459.992" y="505.98"/>
      <point x="447.356" y="518"/>
      <point x="411.992" y="518" type="curve" smooth="yes"/>
      <point x="50.9922" y="518" type="line"/>
      <point x="50.9922" y="550" type="line"/>
      <point x="118.992" y="550" type="line"/>
      <point x="89.6592" y="557.333"/>
      <point x="86.9922" y="582.667"/>
      <point x="86.9922" y="604" type="curve" smooth="yes"/>
      <point x="86.9922" y="632" type="line" smooth="yes"/>
      <point x="86.9922" y="659.333"/>
      <point x="103.325" y="673"/>
      <point x="135.992" y="673" type="curve" smooth="yes"/>
      <point x="494.992" y="673" type="line"/>
      <point x="494.992" y="641" type="line"/>
      <point x="139.492" y="641" type="line" smooth="yes"/>
      <point x="124.523" y="641"/>
      <point x="123.992" y="633.667"/>
      <point x="123.992" y="616" type="curve" smooth="yes"/>
      <point x="123.992" y="573.678"/>
      <point x="134.39" y="550"/>
      <point x="204.992" y="550" type="curve" smooth="yes"/>
      <point x="419.992" y="550" type="line" smooth="yes"/>
      <point x="480.371" y="550"/>
      <point x="496.992" y="528.468"/>
      <point x="496.992" y="469" type="curve" smooth="yes"/>
    </contour>
    <contour>
      <point x="497" y="415" type="line"/>
      <point x="497" y="54" type="line" smooth="yes"/>
      <point x="497" y="16.2705"/>
      <point x="484.075" y="0"/>
      <point x="447" y="0" type="curve" smooth="yes"/>
      <point x="116.997" y="0" type="line" smooth="yes"/>
      <point x="79.9248" y="0"/>
      <point x="66.9971" y="16.2744"/>
      <point x="66.9971" y="54" type="curve" smooth="yes"/>
      <point x="66.9971" y="226" type="line" smooth="yes"/>
      <point x="66.9971" y="253.079"/>
      <point x="79.2979" y="273.443"/>
      <point x="97.9961" y="282" type="curve" smooth="yes"/>
      <point x="97.9961" y="282"/>
      <point x="137.934" y="309"/>
      <point x="156.996" y="309" type="curve" smooth="yes"/>
      <point x="248.091" y="309" type="line"/>
      <point x="248.091" y="418" type="line" smooth="yes"/>
      <point x="248.091" y="435.568"/>
      <point x="233.664" y="438"/>
      <point x="222.997" y="438" type="curve" smooth="yes"/>
      <point x="66.9961" y="438" type="line"/>
      <point x="66.9961" y="470" type="line"/>
      <point x="233.997" y="470" type="line" smooth="yes"/>
      <point x="269.22" y="470"/>
      <point x="284.992" y="454.405"/>
      <point x="284.993" y="418" type="curve" smooth="yes"/>
      <point x="284.997" y="277" type="line"/>
      <point x="166.998" y="277" type="line" smooth="yes"/>
      <point x="133.544" y="277"/>
      <point x="104.001" y="265.318"/>
      <point x="104.001" y="220" type="curve" smooth="yes"/>
      <point x="104.001" y="59" type="line" smooth="yes"/>
      <point x="104.001" y="39.2084"/>
      <point x="111.293" y="32"/>
      <point x="128" y="32" type="curve" smooth="yes"/>
      <point x="436.003" y="32" type="line" smooth="yes"/>
      <point x="453.915" y="32"/>
      <point x="460" y="40.375"/>
      <point x="460" y="62" type="curve" smooth="yes"/>
      <point x="460" y="415" type="line"/>
    </contour>
  </outline>
</glyph>
<glyph name="si_CIi" format="1">
  <advance width="539"/>
  <outline>
    <contour>
      <point x="460" y="405" type="line"/>
      <point x="460" y="479.5" type="line" smooth="yes"/>
      <point x="460" y="497.69"/>
      <point x="442.683" y="509.5"/>
      <point x="424" y="509.5" type="curve" smooth="yes"/>
      <point x="102" y="509.5" type="line" smooth="yes"/>
      <point x="72.1572" y="509.5"/>
      <point x="59" y="518.271"/>
      <point x="59" y="550.5" type="curve" smooth="yes"/>
      <point x="59" y="618" type="line" smooth="yes"/>
      <point x="59" y="654.859"/>
      <point x="72.4111" y="672"/>
      <point x="109" y="672" type="curve" smooth="yes"/>
      <point x="447" y="672" type="line" smooth="yes"/>
      <point x="483.588" y="672"/>
      <point x="497" y="654.858"/>
      <point x="497" y="618" type="curve" smooth="yes"/>
      <point x="497" y="570" type="line" smooth="yes"/>
      <point x="497" y="547.838"/>
      <point x="487.687" y="532.87"/>
      <point x="470" y="528" type="curve"/>
      <point x="491.911" y="521.152"/>
      <point x="497" y="504.274"/>
      <point x="497" y="475" type="curve" smooth="yes"/>
      <point x="497" y="405" type="line"/>
    </contour>
    <contour>
      <point x="309" y="539" type="line"/>
      <point x="297.918" y="542.512"/>
      <point x="291" y="550.292"/>
      <point x="291" y="567" type="curve" smooth="yes"/>
      <point x="291" y="621" type="line" smooth="yes"/>
      <point x="291" y="633.107"/>
      <point x="297.501" y="638.25"/>
      <point x="301" y="640" type="curve"/>
      <point x="300.853" y="640"/>
      <point x="112.875" y="640"/>
      <point x="112.875" y="640" type="curve" smooth="yes"/>
      <point x="101.542" y="640"/>
      <point x="95.875" y="635.333"/>
      <point x="95.875" y="626" type="curve" smooth="yes"/>
      <point x="95.875" y="554" type="line" smooth="yes"/>
      <point x="95.875" y="544"/>
      <point x="101.208" y="539"/>
      <point x="111.875" y="539" type="curve" smooth="yes"/>
    </contour>
    <contour>
      <point x="352" y="640" type="line" smooth="yes"/>
      <point x="336.45" y="640"/>
      <point x="328" y="630.698"/>
      <point x="328" y="616" type="curve" smooth="yes"/>
      <point x="328" y="570.5" type="line" smooth="yes"/>
      <point x="328" y="551.602"/>
      <point x="344.267" y="545.5"/>
      <point x="361.5" y="545.5" type="curve" smooth="yes"/>
      <point x="424" y="545.5" type="line" smooth="yes"/>
      <point x="440.345" y="545.5"/>
      <point x="460" y="550.393"/>
      <point x="460" y="577" type="curve" smooth="yes"/>
      <point x="460" y="627.5" type="line" smooth="yes"/>
      <point x="460" y="636.697"/>
      <point x="452.693" y="640"/>
      <point x="445.5" y="640" type="curve" smooth="yes"/>
    </contour>
    <contour>
      <point x="-6" y="309" type="line"/>
      <point x="183.996" y="309" type="line"/>
      <point x="183.996" y="277" type="line"/>
      <point x="-6.00195" y="277" type="line"/>
    </contour>
    <contour>
      <point x="497" y="415" type="line"/>
      <point x="497" y="54" type="line" smooth="yes"/>
      <point x="497" y="16.2705"/>
      <point x="484.075" y="0"/>
      <point x="447" y="0" type="curve" smooth="yes"/>
      <point x="116.997" y="0" type="line" smooth="yes"/>
      <point x="79.9248" y="0"/>
      <point x="66.9971" y="16.2744"/>
      <point x="66.9971" y="54" type="curve" smooth="yes"/>
      <point x="66.9971" y="226" type="line" smooth="yes"/>
      <point x="66.9971" y="253.079"/>
      <point x="79.2979" y="273.443"/>
      <point x="97.9961" y="282" type="curve" smooth="yes"/>
      <point x="97.9961" y="282"/>
      <point x="137.934" y="309"/>
      <point x="156.996" y="309" type="curve" smooth="yes"/>
      <point x="248.091" y="309" type="line"/>
      <point x="248.091" y="418" type="line" smooth="yes"/>
      <point x="248.091" y="435.568"/>
      <point x="233.664" y="438"/>
      <point x="222.997" y="438" type="curve" smooth="yes"/>
      <point x="66.9961" y="438" type="line"/>
      <point x="66.9961" y="470" type="line"/>
      <point x="233.997" y="470" type="line" smooth="yes"/>
      <point x="269.22" y="470"/>
      <point x="284.992" y="454.405"/>
      <point x="284.993" y="418" type="curve" smooth="yes"/>
      <point x="284.997" y="277" type="line"/>
      <point x="166.998" y="277" type="line" smooth="yes"/>
      <point x="133.544" y="277"/>
      <point x="104.001" y="265.318"/>
      <point x="104.001" y="220" type="curve" smooth="yes"/>
      <point x="104.001" y="59" type="line" smooth="yes"/>
      <point x="104.001" y="39.2084"/>
      <point x="111.293" y="32"/>
      <point x="128" y="32" type="curve" smooth="yes"/>
      <point x="436.003" y="32" type="line" smooth="yes"/>
      <point x="453.915" y="32"/>
      <point x="460" y="40.375"/>
      <point x="460" y="62" type="curve" smooth="yes"/>
      <point x="460" y="415" type="line"/>
    </contour>
  </outline>
</glyph>
<glyph name="si_CRa" format="1">
  <advance width="539"/>
  <outline>
    <contour>
      <point x="67.1943" y="-21" type="line"/>
      <point x="67.1943" y="-105.803" type="line" smooth="yes"/>
      <point x="67.1943" y="-135.797"/>
      <point x="84.1104" y="-150"/>
      <point x="111.194" y="-150" type="curve" smooth="yes"/>
      <point x="453.202" y="-150" type="line" smooth="yes"/>
      <point x="478.535" y="-150"/>
      <point x="494.202" y="-138.565"/>
      <point x="494.202" y="-107" type="curve" smooth="yes"/>
      <point x="494.202" y="-21" type="line"/>
      <point x="457.201" y="-21" type="line"/>
      <point x="457.201" y="-97" type="line" smooth="yes"/>
      <point x="457.201" y="-109.878"/>
      <point x="452.036" y="-118.006"/>
      <point x="437.202" y="-118.006" type="curve" smooth="yes"/>
      <point x="122.204" y="-118.006" type="line" smooth="yes"/>
      <point x="109.09" y="-118.006"/>
      <point x="104" y="-110"/>
      <point x="104" y="-98" type="curve" smooth="yes"/>
      <point x="104" y="-21" type="line"/>
    </contour>
    <component base="si_Ca"/>
  </outline>
</glyph>
<glyph name="si_Ca.reph" format="1">
  <advance width="539"/>
  <outline>
    <contour>
      <point x="248.391" y="659.598" type="line"/>
      <point x="286.394" y="659.598" type="line"/>
      <point x="286.394" y="566" type="line" smooth="yes"/>
      <point x="286.394" y="538.822"/>
      <point x="274.902" y="529"/>
      <point x="255.394" y="529" type="curve" smooth="yes"/>
      <point x="156" y="529" type="line" smooth="yes"/>
      <point x="129.536" y="529"/>
      <point x="116" y="542.896"/>
      <point x="116" y="575" type="curve" smooth="yes"/>
      <point x="116" y="668.207" type="line" smooth="yes"/>
      <point x="116" y="696.944"/>
      <point x="133.249" y="716.207"/>
      <point x="170" y="716.207" type="curve" smooth="yes"/>
      <point x="361.394" y="716.207" type="line" smooth="yes"/>
      <point x="394.839" y="716.207"/>
      <point x="412.394" y="699.386"/>
      <point x="412.394" y="660.207" type="curve" smooth="yes"/>
      <point x="412.394" y="533.603" type="line"/>
      <point x="375.396" y="533.603" type="line"/>
      <point x="375.396" y="655.806" type="line" smooth="yes"/>
      <point x="375.396" y="675.583"/>
      <point x="369.165" y="684.204"/>
      <point x="355.394" y="684.204" type="curve" smooth="yes"/>
      <point x="175" y="684.204" type="line" smooth="yes"/>
      <point x="162.399" y="684.204"/>
      <point x="153.008" y="677.9"/>
      <point x="153.008" y="662.806" type="curve" smooth="yes"/>
      <point x="153.008" y="580.599" type="line" smooth="yes"/>
      <point x="153.008" y="567.926"/>
      <point x="156.253" y="560.391"/>
      <point x="168" y="560.391" type="curve" smooth="yes"/>
      <point x="235.6" y="560.391" type="line" smooth="yes"/>
      <point x="246.864" y="560.391"/>
      <point x="248.391" y="565.724"/>
      <point x="248.391" y="576.391" type="curve" smooth="yes"/>
    </contour>
    <component base="si_Ca"/>
  </outline>
</glyph>
<glyph name="si_Ch.halant" format="1">
  <advance width="513"/>
  <outline>
    <contour>
      <point x="218.809" y="477.786" type="curve"/>
      <point x="218.809" y="649" type="line"/>
      <point x="255.599" y="649" type="line"/>
      <point x="255.599" y="462.798" type="line"/>
      <point x="249.693" y="468.584"/>
      <point x="228.988" y="477.786"/>
    </contour>
    <component base="si_Cha"/>
  </outline>
</glyph>
<glyph name="si_ChIi" format="1">
  <advance width="513"/>
  <outline>
    <contour>
      <point x="211.626" y="601" type="curve" smooth="yes"/>
      <point x="211.626" y="568" type="line" smooth="yes"/>
      <point x="211.626" y="561.115"/>
      <point x="214.417" y="557.199"/>
      <point x="224.653" y="557.199" type="curve" smooth="yes"/>
      <point x="273.653" y="557.199" type="line" smooth="yes"/>
      <point x="286.08" y="557.199"/>
      <point x="286.652" y="562.695"/>
      <point x="286.652" y="570" type="curve" smooth="yes"/>
      <point x="286.652" y="594" type="line" smooth="yes"/>
      <point x="286.652" y="604.651"/>
      <point x="283.767" y="612.24"/>
      <point x="271.653" y="612.24" type="curve" smooth="yes"/>
      <point x="225" y="612.24" type="line" smooth="yes"/>
      <point x="214.658" y="612.24"/>
      <point x="211.626" y="605.667"/>
    </contour>
    <contour>
      <point x="292" y="525" type="curve" smooth="yes"/>
      <point x="197.653" y="525" type="line" smooth="yes"/>
      <point x="184.461" y="525"/>
      <point x="174.653" y="531.492"/>
      <point x="174.653" y="548" type="curve" smooth="yes"/>
      <point x="174.653" y="605" type="line" smooth="yes"/>
      <point x="174.653" y="608"/>
      <point x="175.965" y="611.22"/>
      <point x="177.653" y="613.201" type="curve"/>
      <point x="98" y="613.201" type="line" smooth="yes"/>
      <point x="83.1412" y="613.201"/>
      <point x="77.002" y="604"/>
      <point x="77.002" y="592" type="curve" smooth="yes"/>
      <point x="77.002" y="507" type="line"/>
      <point x="40" y="507" type="line"/>
      <point x="40" y="600.792" type="line" smooth="yes"/>
      <point x="40" y="625.454"/>
      <point x="61.7109" y="644.792"/>
      <point x="86" y="644.792" type="curve" smooth="yes"/>
      <point x="279.653" y="644.792" type="line" smooth="yes"/>
      <point x="305.085" y="644.792"/>
      <point x="323.718" y="631.85"/>
      <point x="323.842" y="599" type="curve" smooth="yes"/>
      <point x="324" y="557" type="line" smooth="yes"/>
      <point x="324" y="540"/>
      <point x="311.09" y="525"/>
    </contour>
    <component base="si_Cha"/>
  </outline>
</glyph>
<glyph name="si_DAa.halant" format="1">
  <advance width="611"/>
  <outline>
    <contour>
      <point x="328.602" y="16" type="line"/>
      <point x="320.185" y="4.64844"/>
      <point x="318.443" y="0"/>
      <point x="263.6" y="0" type="curve" smooth="yes"/>
      <point x="66.2002" y="0" type="line" smooth="yes"/>
      <point x="32.2002" y="0"/>
      <point x="22" y="17.9258"/>
      <point x="22" y="49.5996" type="curve" smooth="yes"/>
      <point x="22" y="295.998" type="line" smooth="yes"/>
      <point x="22" y="336.654"/>
      <point x="43.1064" y="352.998"/>
      <point x="80" y="352.998" type="curve" smooth="yes"/>
      <point x="366.796" y="352.998" type="line"/>
      <point x="366.795" y="436" type="line" smooth="yes"/>
      <point x="366.795" y="457.285"/>
      <point x="358.271" y="465"/>
      <point x="340" y="465" type="curve" smooth="yes"/>
      <point x="22" y="465" type="line"/>
      <point x="22" y="497.001" type="line"/>
      <point x="351" y="497" type="line" smooth="yes"/>
      <point x="384.564" y="497"/>
      <point x="404" y="480.913"/>
      <point x="404" y="444" type="curve" smooth="yes"/>
      <point x="404" y="321.001" type="line"/>
      <point x="91" y="321" type="line" smooth="yes"/>
      <point x="66.6045" y="321"/>
      <point x="59" y="311.276"/>
      <point x="59" y="290" type="curve" smooth="yes"/>
      <point x="59" y="58.001" type="line" smooth="yes"/>
      <point x="59" y="38.1592"/>
      <point x="67.0479" y="32"/>
      <point x="82.2002" y="32" type="curve" smooth="yes"/>
      <point x="280.6" y="32" type="line" smooth="yes"/>
      <point x="334.561" y="32"/>
      <point x="353.234" y="69.8838"/>
      <point x="367.998" y="92" type="curve"/>
    </contour>
    <contour>
      <point x="518.998" y="-36" type="line" smooth="yes"/>
      <point x="518.998" y="-24.709"/>
      <point x="512.997" y="-20"/>
      <point x="502.001" y="-20" type="curve" smooth="yes"/>
      <point x="346.6" y="-20" type="line"/>
      <point x="336" y="-40" type="line"/>
      <point x="298.203" y="-40" type="line"/>
      <point x="393.396" y="141" type="line"/>
      <point x="431.6" y="141" type="line"/>
      <point x="363.6" y="11.9932" type="line"/>
      <point x="519.003" y="11.9932" type="line" smooth="yes"/>
      <point x="545.003" y="11.9932"/>
      <point x="556" y="-1.00684"/>
      <point x="556" y="-25.0068" type="curve" smooth="yes"/>
      <point x="556" y="-125.399" type="line" smooth="yes"/>
      <point x="556" y="-159.018"/>
      <point x="532.186" y="-171"/>
      <point x="504" y="-171" type="curve" smooth="yes"/>
      <point x="279" y="-171" type="line"/>
      <point x="279" y="-138.801" type="line"/>
      <point x="497.998" y="-138.801" type="line" smooth="yes"/>
      <point x="510.966" y="-138.801"/>
      <point x="518.998" y="-133.938"/>
      <point x="518.998" y="-120.801" type="curve" smooth="yes"/>
    </contour>
    <contour>
      <point x="519.2" y="4" type="line"/>
      <point x="519.2" y="631" type="line"/>
      <point x="555.99" y="631" type="line"/>
      <point x="555.99" y="-50" type="line"/>
      <point x="553.624" y="-44.3252"/>
      <point x="547.2" y="-24.9141"/>
      <point x="542.6" y="-16" type="curve" smooth="yes"/>
      <point x="538.6" y="-8.24902"/>
      <point x="527.329" y="4"/>
      <point x="521.6" y="4" type="curve" smooth="yes"/>
    </contour>
  </outline>
</glyph>
<glyph name="si_DAae" format="1">
  <advance width="527"/>
  <outline>
    <contour>
      <point x="386.391" y="143" type="line"/>
      <point x="485.6" y="143" type="line"/>
      <point x="485.803" y="116" type="line"/>
      <point x="392" y="52.001" type="line"/>
      <point x="452.002" y="52" type="line"/>
      <point x="452" y="25" type="line"/>
      <point x="417.432" y="16.6469"/>
      <point x="348.042" y="-7.08409"/>
      <point x="326" y="-51" type="curve" smooth="yes"/>
      <point x="299.398" y="-104" type="line" smooth="yes"/>
      <point x="291.853" y="-118.811"/>
      <point x="292.59" y="-130.891"/>
      <point x="296.8" y="-138.601" type="curve" smooth="yes"/>
      <point x="300.777" y="-145.884"/>
      <point x="308.449" y="-151.803"/>
      <point x="331" y="-151.803" type="curve" smooth="yes"/>
      <point x="457.999" y="-151.805" type="line"/>
      <point x="458" y="-184" type="line"/>
      <point x="312" y="-184" type="line"/>
      <point x="275.599" y="-183.993"/>
      <point x="255.001" y="-158.021"/>
      <point x="255.001" y="-134" type="curve" smooth="yes"/>
      <point x="255.001" y="-127" type="line" smooth="yes"/>
      <point x="255.001" y="-105.348"/>
      <point x="266.229" y="-86.0987"/>
      <point x="272" y="-75" type="curve" smooth="yes"/>
      <point x="298" y="-25" type="line" smooth="yes"/>
      <point x="311.622" y="1.19647"/>
      <point x="368.86" y="26"/>
      <point x="368.86" y="26" type="curve"/>
      <point x="325.809" y="26" type="line"/>
      <point x="337.591" y="50" type="line"/>
      <point x="432" y="114.999" type="line"/>
      <point x="371.65" y="115" type="line"/>
    </contour>
    <contour>
      <point x="316.193" y="143" type="line"/>
      <point x="359.191" y="143" type="line"/>
      <point x="244.988" y="-72.7988" type="line" smooth="yes"/>
      <point x="230.872" y="-99.8574"/>
      <point x="228.195" y="-112.268"/>
      <point x="228.195" y="-131.404" type="curve" smooth="yes"/>
      <point x="228.195" y="-136" type="line" smooth="yes"/>
      <point x="228.195" y="-155.28"/>
      <point x="242.031" y="-175.1"/>
      <point x="254" y="-184" type="curve"/>
      <point x="210.402" y="-184" type="line"/>
      <point x="201.418" y="-181.562"/>
      <point x="188.194" y="-158.131"/>
      <point x="188.194" y="-133.794" type="curve" smooth="yes"/>
      <point x="188.194" y="-125.201" type="line" smooth="yes"/>
      <point x="188.194" y="-100.757"/>
      <point x="204.375" y="-66.6777"/>
      <point x="210.197" y="-55.5996" type="curve" smooth="yes"/>
    </contour>
    <contour>
      <point x="252.601" y="16" type="line"/>
      <point x="244.184" y="4.64844"/>
      <point x="242.442" y="0"/>
      <point x="187.599" y="0" type="curve" smooth="yes"/>
      <point x="66.2002" y="0" type="line" smooth="yes"/>
      <point x="32.2002" y="0"/>
      <point x="22" y="17.9258"/>
      <point x="22" y="49.5996" type="curve" smooth="yes"/>
      <point x="22" y="295.998" type="line" smooth="yes"/>
      <point x="22" y="336.654"/>
      <point x="43.1064" y="352.998"/>
      <point x="80" y="352.998" type="curve" smooth="yes"/>
      <point x="366.796" y="352.998" type="line"/>
      <point x="366.795" y="436" type="line" smooth="yes"/>
      <point x="366.795" y="457.285"/>
      <point x="358.271" y="465"/>
      <point x="340" y="465" type="curve" smooth="yes"/>
      <point x="22" y="465" type="line"/>
      <point x="22" y="497.001" type="line"/>
      <point x="351" y="497" type="line" smooth="yes"/>
      <point x="384.564" y="497"/>
      <point x="404" y="480.913"/>
      <point x="404" y="444" type="curve" smooth="yes"/>
      <point x="404" y="321.001" type="line"/>
      <point x="91" y="321" type="line" smooth="yes"/>
      <point x="66.6045" y="321"/>
      <point x="59" y="311.276"/>
      <point x="59" y="290" type="curve" smooth="yes"/>
      <point x="59" y="58.001" type="line" smooth="yes"/>
      <point x="59" y="38.1592"/>
      <point x="67.0479" y="32"/>
      <point x="82.2002" y="32" type="curve" smooth="yes"/>
      <point x="204.599" y="32" type="line" smooth="yes"/>
      <point x="258.56" y="32"/>
      <point x="277.233" y="69.8838"/>
      <point x="291.997" y="92" type="curve"/>
    </contour>
  </outline>
</glyph>
<glyph name="si_DDhI" format="1">
  <advance width="671"/>
  <outline>
    <contour>
      <point x="621.001" y="400" type="line"/>
      <point x="583.601" y="400" type="line"/>
      <point x="583.601" y="476" type="line" smooth="yes"/>
      <point x="583.601" y="487.69"/>
      <point x="581.983" y="496.065"/>
      <point x="577.224" y="501.518" type="curve" smooth="yes"/>
      <point x="572.465" y="506.97"/>
      <point x="564.564" y="509.5"/>
      <point x="552.001" y="509.5" type="curve" smooth="yes"/>
      <point x="230.001" y="509.5" type="line" smooth="yes"/>
      <point x="198.668" y="509.5"/>
      <point x="183.001" y="525.5"/>
      <point x="183.001" y="557.5" type="curve" smooth="yes"/>
      <point x="183.001" y="620" type="line" smooth="yes"/>
      <point x="183.001" y="636.707"/>
      <point x="186.527" y="649.707"/>
      <point x="194.54" y="658.531" type="curve" smooth="yes"/>
      <point x="202.553" y="667.354"/>
      <point x="215.053" y="672"/>
      <point x="233.001" y="672" type="curve" smooth="yes"/>
      <point x="619.501" y="672" type="line"/>
      <point x="619.501" y="640" type="line"/>
      <point x="245.001" y="640" type="line" smooth="yes"/>
      <point x="224.084" y="640"/>
      <point x="219.876" y="635.559"/>
      <point x="219.876" y="611" type="curve" smooth="yes"/>
      <point x="219.876" y="566" type="line" smooth="yes"/>
      <point x="219.876" y="552.489"/>
      <point x="221.434" y="541.5"/>
      <point x="244.001" y="541.5" type="curve" smooth="yes"/>
      <point x="552.001" y="541.5" type="line" smooth="yes"/>
      <point x="580.408" y="541.5"/>
      <point x="597.658" y="537.146"/>
      <point x="607.806" y="525.532" type="curve" smooth="yes"/>
      <point x="617.955" y="513.918"/>
      <point x="621.001" y="495.043"/>
      <point x="621.001" y="466" type="curve" smooth="yes"/>
    </contour>
    <contour>
      <point x="620.975" y="428" type="line"/>
      <point x="620.975" y="50" type="line" smooth="yes"/>
      <point x="620.975" y="19.6377"/>
      <point x="607.373" y="0"/>
      <point x="573.977" y="0" type="curve" smooth="yes"/>
      <point x="449.791" y="0" type="line" smooth="yes"/>
      <point x="423.791" y="0"/>
      <point x="407.457" y="12.333"/>
      <point x="400.791" y="37" type="curve"/>
      <point x="397.617" y="16.3779"/>
      <point x="377.061" y="0"/>
      <point x="353.791" y="0" type="curve" smooth="yes"/>
      <point x="229" y="0" type="line" smooth="yes"/>
      <point x="197.609" y="0"/>
      <point x="182" y="15.0176"/>
      <point x="182" y="48" type="curve" smooth="yes"/>
      <point x="182" y="345.003" type="line" smooth="yes"/>
      <point x="182" y="383.558"/>
      <point x="200.021" y="410.003"/>
      <point x="241" y="410.003" type="curve" smooth="yes"/>
      <point x="407.186" y="410.003" type="line"/>
      <point x="407.187" y="377.805" type="line"/>
      <point x="253" y="377.805" type="line" smooth="yes"/>
      <point x="226.387" y="377.805"/>
      <point x="219" y="363.44"/>
      <point x="219" y="342.003" type="curve" smooth="yes"/>
      <point x="219" y="58" type="line" smooth="yes"/>
      <point x="219" y="42.2285"/>
      <point x="222.956" y="32"/>
      <point x="242" y="32" type="curve" smooth="yes"/>
      <point x="335.988" y="32" type="line" smooth="yes"/>
      <point x="375.117" y="32"/>
      <point x="381.988" y="65.5215"/>
      <point x="381.988" y="100.802" type="curve" smooth="yes"/>
      <point x="381.988" y="229" type="line"/>
      <point x="419.188" y="229" type="line"/>
      <point x="419.188" y="101" type="line" smooth="yes"/>
      <point x="419.188" y="66.165"/>
      <point x="428.267" y="32"/>
      <point x="469.988" y="32" type="curve" smooth="yes"/>
      <point x="561.977" y="32" type="line" smooth="yes"/>
      <point x="578.903" y="32"/>
      <point x="583.582" y="43.6895"/>
      <point x="583.582" y="60" type="curve" smooth="yes"/>
      <point x="583.582" y="428" type="line"/>
    </contour>
    <contour>
      <point x="116.602" y="378.002" type="line" smooth="yes"/>
      <point x="76.8906" y="378.002"/>
      <point x="59" y="365.742"/>
      <point x="59" y="325.002" type="curve" smooth="yes"/>
      <point x="59" y="0" type="line"/>
      <point x="22" y="0" type="line"/>
      <point x="22" y="337.002" type="line" smooth="yes"/>
      <point x="22" y="389.168"/>
      <point x="58.8516" y="410.002"/>
      <point x="105.4" y="410.002" type="curve" smooth="yes"/>
      <point x="281.614" y="410.002" type="line"/>
      <point x="211.614" y="378.002" type="line"/>
    </contour>
  </outline>
</glyph>
<glyph name="si_DDhIi" format="1">
  <advance width="671"/>
  <outline>
    <contour>
      <point x="116.602" y="378.002" type="line" smooth="yes"/>
      <point x="76.8906" y="378.002"/>
      <point x="59" y="365.742"/>
      <point x="59" y="325.002" type="curve" smooth="yes"/>
      <point x="59" y="0" type="line"/>
      <point x="22" y="0" type="line"/>
      <point x="22" y="337.002" type="line" smooth="yes"/>
      <point x="22" y="389.168"/>
      <point x="58.8516" y="410.002"/>
      <point x="105.4" y="410.002" type="curve" smooth="yes"/>
      <point x="281.614" y="410.002" type="line"/>
      <point x="211.614" y="378.002" type="line"/>
    </contour>
    <component base="si_DhIi" xOffset="160"/>
  </outline>
</glyph>
<glyph name="si_DDha" format="1">
  <advance width="671"/>
  <outline>
    <contour>
      <point x="116.602" y="465" type="line" smooth="yes"/>
      <point x="76.8906" y="465"/>
      <point x="59" y="452.74"/>
      <point x="59" y="412" type="curve" smooth="yes"/>
      <point x="59" y="0" type="line"/>
      <point x="22" y="0" type="line"/>
      <point x="22" y="424" type="line" smooth="yes"/>
      <point x="22" y="476.166"/>
      <point x="58.8513" y="497"/>
      <point x="105.4" y="497" type="curve" smooth="yes"/>
      <point x="281.614" y="497" type="line"/>
      <point x="211.614" y="465" type="line"/>
    </contour>
    <component base="si_Dha" xOffset="160"/>
  </outline>
</glyph>
<glyph name="si_DRI" format="1">
  <advance width="458"/>
  <outline>
    <contour>
      <point x="19.1943" y="511" type="line"/>
      <point x="19.1943" y="595.803" type="line" smooth="yes"/>
      <point x="19.1943" y="625.797"/>
      <point x="36.1104" y="640"/>
      <point x="63.1943" y="640" type="curve" smooth="yes"/>
      <point x="362" y="640" type="line" smooth="yes"/>
      <point x="387.333" y="640"/>
      <point x="403" y="628.565"/>
      <point x="403" y="597" type="curve" smooth="yes"/>
      <point x="403" y="511" type="line"/>
      <point x="365.999" y="511" type="line"/>
      <point x="365.999" y="587" type="line" smooth="yes"/>
      <point x="365.999" y="599.878"/>
      <point x="360.834" y="608.006"/>
      <point x="346" y="608.006" type="curve" smooth="yes"/>
      <point x="74.2041" y="608.006" type="line" smooth="yes"/>
      <point x="61.0898" y="608.006"/>
      <point x="56" y="600"/>
      <point x="56" y="588" type="curve" smooth="yes"/>
      <point x="56" y="511" type="line"/>
    </contour>
    <component base="si_DRa"/>
  </outline>
</glyph>
<glyph name="si_DYAa.post" format="1">
  <advance width="816"/>
  <outline>
    <contour>
      <point x="617" y="31.9971" type="line"/>
      <point x="726" y="31.9971" type="line" smooth="yes"/>
      <point x="755.994" y="31.9971"/>
      <point x="767" y="17.084"/>
      <point x="767" y="-10" type="curve" smooth="yes"/>
      <point x="767" y="-149.199" type="line" smooth="yes"/>
      <point x="767" y="-174.532"/>
      <point x="753.333" y="-187.199"/>
      <point x="726" y="-187.199" type="curve" smooth="yes"/>
      <point x="617" y="-187.199" type="line"/>
      <point x="617" y="-155.196" type="line"/>
      <point x="714.001" y="-155.196" type="line" smooth="yes"/>
      <point x="726.879" y="-155.196"/>
      <point x="730" y="-148.879"/>
      <point x="730" y="-135.999" type="curve" smooth="yes"/>
      <point x="730" y="-16.0029" type="line" smooth="yes"/>
      <point x="730" y="-4.66992"/>
      <point x="725.602" y="0.99707"/>
      <point x="713.602" y="0.99707" type="curve" smooth="yes"/>
      <point x="617" y="0.99707" type="line"/>
    </contour>
    <contour>
      <point x="415.212" y="-68.5957" type="line"/>
      <point x="415.214" y="-39.3965" type="line" smooth="yes"/>
      <point x="415.215" y="14.5762"/>
      <point x="442.432" y="32.001"/>
      <point x="492.012" y="32" type="curve" smooth="yes"/>
      <point x="588.193" y="31.999" type="line"/>
      <point x="588.193" y="0" type="line"/>
      <point x="500.212" y="0" type="line" smooth="yes"/>
      <point x="460" y="0"/>
      <point x="452.197" y="-15.9654"/>
      <point x="452.197" y="-30" type="curve" smooth="yes"/>
      <point x="452.197" y="-36.3965" type="line"/>
      <point x="516.193" y="-36.3965" type="line" smooth="yes"/>
      <point x="570.984" y="-36.3965"/>
      <point x="588.212" y="-47.2607"/>
      <point x="588.212" y="-94" type="curve" smooth="yes"/>
      <point x="588.212" y="-118" type="line" smooth="yes"/>
      <point x="588.212" y="-165.16"/>
      <point x="565.688" y="-187.999"/>
      <point x="521.212" y="-187.999" type="curve" smooth="yes"/>
      <point x="433.814" y="-188" type="line" smooth="yes"/>
      <point x="396.843" y="-188"/>
      <point x="371.821" y="-186.556"/>
      <point x="336" y="-168" type="curve" smooth="yes"/>
      <point x="291.201" y="-146" type="line"/>
      <point x="258" y="-188" type="line"/>
      <point x="218.997" y="-188" type="line"/>
      <point x="325" y="-48" type="line" smooth="yes"/>
      <point x="339.107" y="-29.368"/>
      <point x="338.989" y="-19.9658"/>
      <point x="338.989" y="-16.3984" type="curve" smooth="yes"/>
      <point x="338.989" y="-5.75488"/>
      <point x="332.256" y="0"/>
      <point x="321.59" y="0" type="curve" smooth="yes"/>
      <point x="227.396" y="0" type="line"/>
      <point x="227.396" y="31.999" type="line"/>
      <point x="323.989" y="32" type="line" smooth="yes"/>
      <point x="365.943" y="32"/>
      <point x="375.788" y="13.3936"/>
      <point x="375.788" y="-14" type="curve" smooth="yes"/>
      <point x="375.788" y="-27.7266"/>
      <point x="364.701" y="-48.3981"/>
      <point x="353" y="-64" type="curve" smooth="yes"/>
      <point x="314" y="-116" type="line"/>
      <point x="351" y="-136" type="line" smooth="yes"/>
      <point x="380.801" y="-152.109"/>
      <point x="404.714" y="-156"/>
      <point x="441.416" y="-156" type="curve" smooth="yes"/>
      <point x="513.193" y="-156" type="line" smooth="yes"/>
      <point x="542.549" y="-156"/>
      <point x="551.198" y="-138.62"/>
      <point x="551.198" y="-112" type="curve" smooth="yes"/>
      <point x="551.198" y="-100" type="line" smooth="yes"/>
      <point x="551.198" y="-67.2881"/>
      <point x="540.011" y="-68.5957"/>
      <point x="510.193" y="-68.5957" type="curve" smooth="yes"/>
    </contour>
    <contour>
      <point x="237" y="0" type="line"/>
      <point x="180" y="0"/>
      <point x="123" y="-0"/>
      <point x="66" y="0" type="curve" smooth="yes"/>
      <point x="32" y="0"/>
      <point x="22" y="17.9256"/>
      <point x="22" y="49.5996" type="curve" smooth="yes"/>
      <point x="22" y="295.998" type="line" smooth="yes"/>
      <point x="22" y="336.654"/>
      <point x="43.1064" y="352.998"/>
      <point x="80" y="352.998" type="curve" smooth="yes"/>
      <point x="366.796" y="352.998" type="line"/>
      <point x="366.795" y="436" type="line" smooth="yes"/>
      <point x="366.795" y="457.285"/>
      <point x="358.271" y="465"/>
      <point x="340" y="465" type="curve" smooth="yes"/>
      <point x="22" y="465" type="line"/>
      <point x="22" y="497.001" type="line"/>
      <point x="351" y="497" type="line" smooth="yes"/>
      <point x="384.564" y="497"/>
      <point x="404" y="480.913"/>
      <point x="404" y="444" type="curve" smooth="yes"/>
      <point x="404" y="321.001" type="line"/>
      <point x="91" y="321" type="line" smooth="yes"/>
      <point x="66.6041" y="321"/>
      <point x="59" y="311.276"/>
      <point x="59" y="290" type="curve" smooth="yes"/>
      <point x="59" y="58.001" type="line" smooth="yes"/>
      <point x="59" y="38.1592"/>
      <point x="67.0479" y="32"/>
      <point x="82.2002" y="32" type="curve" smooth="yes"/>
      <point x="237" y="32" type="line"/>
    </contour>
  </outline>
</glyph>
<glyph name="si_DYUu.post" format="1">
  <advance width="614"/>
  <outline>
    <contour>
      <point x="588.199" y="-276" type="line"/>
      <point x="557.397" y="-276" type="line"/>
      <point x="552.197" y="-266.729"/>
      <point x="540.729" y="-255.133"/>
      <point x="533.001" y="-249.799" type="curve" smooth="yes"/>
      <point x="522.83" y="-242.779"/>
      <point x="504.808" y="-236.994"/>
      <point x="485.997" y="-236.994" type="curve"/>
      <point x="468" y="-236.994" type="line"/>
      <point x="450.342" y="-236.994"/>
      <point x="429.84" y="-244.501"/>
      <point x="417.411" y="-249.6" type="curve"/>
      <point x="369.803" y="-269.403" type="line"/>
      <point x="354.131" y="-275.383"/>
      <point x="325.317" y="-279.806"/>
      <point x="291.006" y="-279.806" type="curve" smooth="yes"/>
      <point x="267.203" y="-279.806" type="line" smooth="yes"/>
      <point x="234.789" y="-279.806"/>
      <point x="219.202" y="-267.576"/>
      <point x="219.202" y="-239.003" type="curve" smooth="yes"/>
      <point x="219.202" y="-208.6" type="line"/>
      <point x="256" y="-208.6" type="line"/>
      <point x="256" y="-229.605" type="line" smooth="yes"/>
      <point x="256" y="-240.89"/>
      <point x="260.868" y="-247.606"/>
      <point x="272.805" y="-247.606" type="curve" smooth="yes"/>
      <point x="296.8" y="-247.606" type="line" smooth="yes"/>
      <point x="317.769" y="-247.606"/>
      <point x="343.596" y="-244.925"/>
      <point x="367" y="-236.003" type="curve"/>
      <point x="406.206" y="-219.8" type="line"/>
      <point x="419.172" y="-214.473"/>
      <point x="443.6" y="-204.993"/>
      <point x="465.796" y="-204.993" type="curve"/>
      <point x="490.208" y="-204.993" type="line"/>
      <point x="513.898" y="-205"/>
      <point x="531.346" y="-212.772"/>
      <point x="539.607" y="-218.2" type="curve" smooth="yes"/>
      <point x="545.562" y="-222.112"/>
      <point x="546.248" y="-222.238"/>
      <point x="550.995" y="-226.999" type="curve"/>
      <point x="550.995" y="-144.597" type="line"/>
      <point x="564.193" y="-144.597" type="line" smooth="yes"/>
      <point x="569.762" y="-144.597"/>
      <point x="584.199" y="-130.597"/>
      <point x="588.199" y="-102.597" type="curve"/>
    </contour>
    <contour>
      <point x="415.212" y="-68.5957" type="line"/>
      <point x="415.214" y="-39.3965" type="line" smooth="yes"/>
      <point x="415.215" y="14.5762"/>
      <point x="442.432" y="32.001"/>
      <point x="492.012" y="32" type="curve" smooth="yes"/>
      <point x="588.193" y="31.999" type="line"/>
      <point x="588.193" y="0" type="line"/>
      <point x="500.212" y="0" type="line" smooth="yes"/>
      <point x="460" y="0"/>
      <point x="452.197" y="-15.9654"/>
      <point x="452.197" y="-30" type="curve" smooth="yes"/>
      <point x="452.197" y="-36.3965" type="line"/>
      <point x="516.193" y="-36.3965" type="line" smooth="yes"/>
      <point x="570.984" y="-36.3965"/>
      <point x="588.212" y="-47.2607"/>
      <point x="588.212" y="-94" type="curve" smooth="yes"/>
      <point x="588.212" y="-118" type="line" smooth="yes"/>
      <point x="588.212" y="-165.16"/>
      <point x="565.688" y="-187.999"/>
      <point x="521.212" y="-187.999" type="curve" smooth="yes"/>
      <point x="433.814" y="-188" type="line" smooth="yes"/>
      <point x="396.843" y="-188"/>
      <point x="371.821" y="-186.556"/>
      <point x="336" y="-168" type="curve" smooth="yes"/>
      <point x="291.201" y="-146" type="line"/>
      <point x="258" y="-188" type="line"/>
      <point x="218.997" y="-188" type="line"/>
      <point x="325" y="-48" type="line" smooth="yes"/>
      <point x="339.107" y="-29.368"/>
      <point x="338.989" y="-19.9658"/>
      <point x="338.989" y="-16.3984" type="curve" smooth="yes"/>
      <point x="338.989" y="-5.75488"/>
      <point x="332.256" y="0"/>
      <point x="321.59" y="0" type="curve" smooth="yes"/>
      <point x="227.396" y="0" type="line"/>
      <point x="227.396" y="31.999" type="line"/>
      <point x="323.989" y="32" type="line" smooth="yes"/>
      <point x="365.943" y="32"/>
      <point x="375.788" y="13.3936"/>
      <point x="375.788" y="-14" type="curve" smooth="yes"/>
      <point x="375.788" y="-27.7266"/>
      <point x="364.701" y="-48.3981"/>
      <point x="353" y="-64" type="curve" smooth="yes"/>
      <point x="314" y="-116" type="line"/>
      <point x="351" y="-136" type="line" smooth="yes"/>
      <point x="380.801" y="-152.109"/>
      <point x="404.714" y="-156"/>
      <point x="441.416" y="-156" type="curve" smooth="yes"/>
      <point x="513.193" y="-156" type="line" smooth="yes"/>
      <point x="542.549" y="-156"/>
      <point x="551.198" y="-138.62"/>
      <point x="551.198" y="-112" type="curve" smooth="yes"/>
      <point x="551.198" y="-100" type="line" smooth="yes"/>
      <point x="551.198" y="-67.2881"/>
      <point x="540.011" y="-68.5957"/>
      <point x="510.193" y="-68.5957" type="curve" smooth="yes"/>
    </contour>
    <contour>
      <point x="237" y="0" type="line"/>
      <point x="180" y="0"/>
      <point x="123" y="-0"/>
      <point x="66" y="0" type="curve" smooth="yes"/>
      <point x="32" y="0"/>
      <point x="22" y="17.9256"/>
      <point x="22" y="49.5996" type="curve" smooth="yes"/>
      <point x="22" y="295.998" type="line" smooth="yes"/>
      <point x="22" y="336.654"/>
      <point x="43.1064" y="352.998"/>
      <point x="80" y="352.998" type="curve" smooth="yes"/>
      <point x="366.796" y="352.998" type="line"/>
      <point x="366.795" y="436" type="line" smooth="yes"/>
      <point x="366.795" y="457.285"/>
      <point x="358.271" y="465"/>
      <point x="340" y="465" type="curve" smooth="yes"/>
      <point x="22" y="465" type="line"/>
      <point x="22" y="497.001" type="line"/>
      <point x="351" y="497" type="line" smooth="yes"/>
      <point x="384.564" y="497"/>
      <point x="404" y="480.913"/>
      <point x="404" y="444" type="curve" smooth="yes"/>
      <point x="404" y="321.001" type="line"/>
      <point x="91" y="321" type="line" smooth="yes"/>
      <point x="66.6041" y="321"/>
      <point x="59" y="311.276"/>
      <point x="59" y="290" type="curve" smooth="yes"/>
      <point x="59" y="58.001" type="line" smooth="yes"/>
      <point x="59" y="38.1592"/>
      <point x="67.0479" y="32"/>
      <point x="82.2002" y="32" type="curve" smooth="yes"/>
      <point x="237" y="32" type="line"/>
    </contour>
  </outline>
</glyph>
<glyph name="si_Dd.halant" format="1">
  <advance width="513"/>
  <outline>
    <contour>
      <point x="460" y="400" type="line"/>
      <point x="422.8" y="400" type="line"/>
      <point x="422.8" y="465" type="line" smooth="yes"/>
      <point x="422.8" y="505.98"/>
      <point x="410.364" y="518"/>
      <point x="375" y="518" type="curve" smooth="yes"/>
      <point x="14" y="518" type="line"/>
      <point x="14" y="550" type="line"/>
      <point x="82" y="550" type="line"/>
      <point x="52.667" y="557.333"/>
      <point x="50" y="582.667"/>
      <point x="50" y="604" type="curve" smooth="yes"/>
      <point x="50" y="632" type="line" smooth="yes"/>
      <point x="50" y="659.333"/>
      <point x="66.3333" y="673"/>
      <point x="99" y="673" type="curve" smooth="yes"/>
      <point x="458" y="673" type="line"/>
      <point x="458" y="641" type="line"/>
      <point x="102.5" y="641" type="line" smooth="yes"/>
      <point x="87.5312" y="641"/>
      <point x="87" y="633.667"/>
      <point x="87" y="616" type="curve" smooth="yes"/>
      <point x="87" y="573.678"/>
      <point x="97.3973" y="550"/>
      <point x="168" y="550" type="curve" smooth="yes"/>
      <point x="383" y="550" type="line" smooth="yes"/>
      <point x="443.379" y="550"/>
      <point x="460" y="528.468"/>
      <point x="460" y="469" type="curve" smooth="yes"/>
    </contour>
    <contour>
      <point x="-6" y="307.535" type="line"/>
      <point x="130.574" y="307.535" type="line"/>
      <point x="130.574" y="275.598" type="line"/>
      <point x="-6" y="275.598" type="line"/>
    </contour>
    <contour>
      <point x="459.996" y="408" type="line"/>
      <point x="459.996" y="50" type="line" smooth="yes"/>
      <point x="459.996" y="19.6377"/>
      <point x="446.395" y="0"/>
      <point x="412.998" y="0" type="curve" smooth="yes"/>
      <point x="290.202" y="0" type="line" smooth="yes"/>
      <point x="264.211" y="0"/>
      <point x="246.166" y="8.12695"/>
      <point x="241.202" y="28" type="curve"/>
      <point x="236.974" y="9.81934"/>
      <point x="217" y="0"/>
      <point x="194.202" y="0" type="curve" smooth="yes"/>
      <point x="69.998" y="0" type="line" smooth="yes"/>
      <point x="33" y="0"/>
      <point x="22" y="16.2734"/>
      <point x="22" y="54" type="curve" smooth="yes"/>
      <point x="22" y="220.598" type="line" smooth="yes"/>
      <point x="22" y="241.433"/>
      <point x="29.918" y="264.532"/>
      <point x="51" y="276.598" type="curve"/>
      <point x="60.1592" y="290.214"/>
      <point x="61.9033" y="307.598"/>
      <point x="78" y="307.598" type="curve" smooth="yes"/>
      <point x="207.374" y="307.598" type="line"/>
      <point x="207.374" y="389.598" type="line" smooth="yes"/>
      <point x="207.374" y="412.577"/>
      <point x="194.638" y="419.598"/>
      <point x="171.374" y="419.598" type="curve" smooth="yes"/>
      <point x="23" y="419.598" type="line"/>
      <point x="23" y="451.598" type="line"/>
      <point x="181.374" y="451.598" type="line" smooth="yes"/>
      <point x="222.707" y="451.598"/>
      <point x="243.374" y="432.598"/>
      <point x="243.374" y="394.598" type="curve" smooth="yes"/>
      <point x="243.374" y="275.598" type="line"/>
      <point x="126.574" y="275.598" type="line" smooth="yes"/>
      <point x="72.2764" y="275.598"/>
      <point x="59" y="242.598"/>
      <point x="58.875" y="206.598" type="curve" smooth="yes"/>
      <point x="59" y="55.8926" type="line" smooth="yes"/>
      <point x="59.013" y="39.9639"/>
      <point x="65.7998" y="32"/>
      <point x="79.1934" y="32" type="curve" smooth="yes"/>
      <point x="182.399" y="32" type="line" smooth="yes"/>
      <point x="206" y="32"/>
      <point x="222.401" y="38.9307"/>
      <point x="222.401" y="78" type="curve" smooth="yes"/>
      <point x="222.401" y="176.195" type="line"/>
      <point x="259.398" y="176.195" type="line"/>
      <point x="259.398" y="78.002" type="line" smooth="yes"/>
      <point x="259.398" y="39.5283"/>
      <point x="276.043" y="32"/>
      <point x="301.4" y="32" type="curve" smooth="yes"/>
      <point x="395.398" y="32" type="line" smooth="yes"/>
      <point x="417.689" y="32"/>
      <point x="422.798" y="42.2314"/>
      <point x="422.798" y="62" type="curve" smooth="yes"/>
      <point x="422.798" y="408.001" type="line"/>
    </contour>
  </outline>
</glyph>
<glyph name="si_DdI" format="1">
  <advance width="513"/>
  <outline>
    <contour>
      <point x="460" y="400" type="line"/>
      <point x="422.8" y="400" type="line"/>
      <point x="422.8" y="476" type="line" smooth="yes"/>
      <point x="422.8" y="499.381"/>
      <point x="416.127" y="509.5"/>
      <point x="391" y="509.5" type="curve" smooth="yes"/>
      <point x="69" y="509.5" type="line" smooth="yes"/>
      <point x="37.667" y="509.5"/>
      <point x="22" y="525.5"/>
      <point x="22" y="557.5" type="curve" smooth="yes"/>
      <point x="22" y="620" type="line" smooth="yes"/>
      <point x="22" y="653.415"/>
      <point x="36.1038" y="672"/>
      <point x="72" y="672" type="curve" smooth="yes"/>
      <point x="458.5" y="672" type="line"/>
      <point x="458.5" y="640" type="line"/>
      <point x="84" y="640" type="line" smooth="yes"/>
      <point x="63.083" y="640"/>
      <point x="58.875" y="635.558"/>
      <point x="58.875" y="611" type="curve" smooth="yes"/>
      <point x="58.875" y="566" type="line" smooth="yes"/>
      <point x="58.875" y="552.49"/>
      <point x="60.4326" y="541.5"/>
      <point x="83" y="541.5" type="curve" smooth="yes"/>
      <point x="391" y="541.5" type="line" smooth="yes"/>
      <point x="447.814" y="541.5"/>
      <point x="460" y="524.085"/>
      <point x="460" y="466" type="curve" smooth="yes"/>
    </contour>
    <contour>
      <point x="-6" y="307.535" type="line"/>
      <point x="130.574" y="307.535" type="line"/>
      <point x="130.574" y="275.598" type="line"/>
      <point x="-6" y="275.598" type="line"/>
    </contour>
    <contour>
      <point x="22" y="220.598" type="line" smooth="yes"/>
      <point x="22" y="241.433"/>
      <point x="29.918" y="264.532"/>
      <point x="51" y="276.598" type="curve"/>
      <point x="60.1592" y="290.214"/>
      <point x="61.9033" y="307.598"/>
      <point x="78" y="307.598" type="curve" smooth="yes"/>
      <point x="207.374" y="307.598" type="line"/>
      <point x="207.374" y="389.598" type="line" smooth="yes"/>
      <point x="207.374" y="412.577"/>
      <point x="194.638" y="419.598"/>
      <point x="171.374" y="419.598" type="curve" smooth="yes"/>
      <point x="23" y="419.598" type="line"/>
      <point x="23" y="451.598" type="line"/>
      <point x="181.374" y="451.598" type="line" smooth="yes"/>
      <point x="222.707" y="451.598"/>
      <point x="243.374" y="432.598"/>
      <point x="243.374" y="394.598" type="curve" smooth="yes"/>
      <point x="243.374" y="275.598" type="line"/>
      <point x="126.574" y="275.598" type="line" smooth="yes"/>
      <point x="72.2764" y="275.598"/>
      <point x="59" y="242.598"/>
      <point x="58.875" y="206.598" type="curve" smooth="yes"/>
      <point x="59" y="55.8926" type="line" smooth="yes"/>
      <point x="59.013" y="39.9639"/>
      <point x="65.7998" y="32"/>
      <point x="79.1934" y="32" type="curve" smooth="yes"/>
      <point x="182.399" y="32" type="line" smooth="yes"/>
      <point x="206" y="32"/>
      <point x="222.401" y="38.9307"/>
      <point x="222.401" y="78" type="curve" smooth="yes"/>
      <point x="222.401" y="176.195" type="line"/>
      <point x="259.398" y="176.195" type="line"/>
      <point x="259.398" y="78.002" type="line" smooth="yes"/>
      <point x="259.398" y="39.5283"/>
      <point x="276.043" y="32"/>
      <point x="301.4" y="32" type="curve" smooth="yes"/>
      <point x="395.398" y="32" type="line" smooth="yes"/>
      <point x="417.689" y="32"/>
      <point x="422.798" y="42.2314"/>
      <point x="422.798" y="62" type="curve" smooth="yes"/>
      <point x="422.798" y="408.001" type="line"/>
      <point x="459.996" y="408" type="line"/>
      <point x="459.996" y="50" type="line" smooth="yes"/>
      <point x="459.996" y="19.6377"/>
      <point x="446.395" y="0"/>
      <point x="412.998" y="0" type="curve" smooth="yes"/>
      <point x="290.202" y="0" type="line" smooth="yes"/>
      <point x="264.211" y="0"/>
      <point x="246.166" y="8.12695"/>
      <point x="241.202" y="28" type="curve"/>
      <point x="236.974" y="9.81934"/>
      <point x="217" y="0"/>
      <point x="194.202" y="0" type="curve" smooth="yes"/>
      <point x="69.998" y="0" type="line" smooth="yes"/>
      <point x="33" y="0"/>
      <point x="22" y="16.2734"/>
      <point x="22" y="54" type="curve" smooth="yes"/>
    </contour>
  </outline>
</glyph>
<glyph name="si_Dda.reph" format="1">
  <advance width="513"/>
  <outline>
    <contour>
      <point x="-6" y="352.938" type="line"/>
      <point x="130.574" y="352.938" type="line"/>
      <point x="130.574" y="321" type="line"/>
      <point x="-6" y="321" type="line"/>
    </contour>
    <contour>
      <point x="69.998" y="0" type="line" smooth="yes"/>
      <point x="33" y="0"/>
      <point x="22" y="16.2734"/>
      <point x="22" y="54" type="curve" smooth="yes"/>
      <point x="22" y="266" type="line" smooth="yes"/>
      <point x="22" y="286.835"/>
      <point x="29.918" y="309.935"/>
      <point x="51" y="322" type="curve"/>
      <point x="60.1592" y="335.616"/>
      <point x="61.9033" y="353"/>
      <point x="78" y="353" type="curve" smooth="yes"/>
      <point x="207.374" y="353" type="line"/>
      <point x="207.374" y="435" type="line" smooth="yes"/>
      <point x="207.374" y="457.979"/>
      <point x="194.638" y="465"/>
      <point x="171.374" y="465" type="curve" smooth="yes"/>
      <point x="23" y="465" type="line"/>
      <point x="23" y="497" type="line"/>
      <point x="181.374" y="497" type="line" smooth="yes"/>
      <point x="222.707" y="497"/>
      <point x="243.374" y="478"/>
      <point x="243.374" y="440" type="curve" smooth="yes"/>
      <point x="243.374" y="321" type="line"/>
      <point x="126.574" y="321" type="line" smooth="yes"/>
      <point x="72.2764" y="321"/>
      <point x="59" y="288"/>
      <point x="58.875" y="252" type="curve" smooth="yes"/>
      <point x="59" y="55.8926" type="line" smooth="yes"/>
      <point x="59.0098" y="39.9639"/>
      <point x="65.7998" y="32"/>
      <point x="79.1934" y="32" type="curve" smooth="yes"/>
      <point x="182.399" y="32" type="line" smooth="yes"/>
      <point x="206" y="32"/>
      <point x="222.401" y="38.9307"/>
      <point x="222.401" y="78" type="curve" smooth="yes"/>
      <point x="222.401" y="176.195" type="line"/>
      <point x="259.398" y="176.195" type="line"/>
      <point x="259.398" y="78.002" type="line" smooth="yes"/>
      <point x="259.398" y="39.5283"/>
      <point x="276.043" y="32"/>
      <point x="301.4" y="32" type="curve" smooth="yes"/>
      <point x="395.398" y="32" type="line" smooth="yes"/>
      <point x="417.689" y="32"/>
      <point x="422.798" y="42.2314"/>
      <point x="422.798" y="62" type="curve" smooth="yes"/>
      <point x="422.798" y="552" type="line" smooth="yes"/>
      <point x="422.798" y="583.043"/>
      <point x="409.479" y="594"/>
      <point x="378.998" y="594" type="curve" smooth="yes"/>
      <point x="22.001" y="594" type="line"/>
      <point x="22.001" y="626" type="line"/>
      <point x="386.998" y="626" type="line" smooth="yes"/>
      <point x="429.307" y="626"/>
      <point x="459.996" y="609.264"/>
      <point x="459.996" y="560" type="curve" smooth="yes"/>
      <point x="459.996" y="50" type="line" smooth="yes"/>
      <point x="459.996" y="19.6377"/>
      <point x="446.395" y="-0"/>
      <point x="412.998" y="0" type="curve" smooth="yes"/>
      <point x="290.202" y="0" type="line" smooth="yes"/>
      <point x="264.211" y="0"/>
      <point x="246.166" y="8.12695"/>
      <point x="241.202" y="28" type="curve"/>
      <point x="236.974" y="9.81934"/>
      <point x="217" y="0"/>
      <point x="194.202" y="0" type="curve" smooth="yes"/>
    </contour>
    <contour>
      <point x="208.997" y="659.598" type="line"/>
      <point x="247" y="659.598" type="line"/>
      <point x="247" y="566" type="line" smooth="yes"/>
      <point x="247" y="538.822"/>
      <point x="235.509" y="529"/>
      <point x="216" y="529" type="curve" smooth="yes"/>
      <point x="116.606" y="529" type="line" smooth="yes"/>
      <point x="90.1426" y="529"/>
      <point x="76.6064" y="542.896"/>
      <point x="76.6064" y="575" type="curve" smooth="yes"/>
      <point x="76.6064" y="668.207" type="line" smooth="yes"/>
      <point x="76.6064" y="696.944"/>
      <point x="93.8555" y="716.207"/>
      <point x="130.606" y="716.207" type="curve" smooth="yes"/>
      <point x="322" y="716.207" type="line" smooth="yes"/>
      <point x="355.445" y="716.207"/>
      <point x="373" y="699.386"/>
      <point x="373" y="660.207" type="curve" smooth="yes"/>
      <point x="373" y="533.603" type="line"/>
      <point x="336.002" y="533.603" type="line"/>
      <point x="336.002" y="655.806" type="line" smooth="yes"/>
      <point x="336.002" y="675.583"/>
      <point x="329.771" y="684.204"/>
      <point x="316" y="684.204" type="curve" smooth="yes"/>
      <point x="135.606" y="684.204" type="line" smooth="yes"/>
      <point x="123.006" y="684.204"/>
      <point x="113.614" y="677.9"/>
      <point x="113.614" y="662.806" type="curve" smooth="yes"/>
      <point x="113.614" y="580.599" type="line" smooth="yes"/>
      <point x="113.614" y="567.926"/>
      <point x="116.859" y="560.391"/>
      <point x="128.606" y="560.391" type="curve" smooth="yes"/>
      <point x="196.206" y="560.391" type="line" smooth="yes"/>
      <point x="207.471" y="560.391"/>
      <point x="208.997" y="565.724"/>
      <point x="208.997" y="576.391" type="curve" smooth="yes"/>
    </contour>
  </outline>
</glyph>
<glyph name="si_Ddh.halant" format="1">
  <advance width="513"/>
  <outline>
    <contour>
      <point x="422.798" y="461" type="line"/>
      <point x="459.996" y="461" type="line"/>
      <point x="459.996" y="50" type="line" smooth="yes"/>
      <point x="459.996" y="19.6379"/>
      <point x="446.395" y="-4.08989e-15"/>
      <point x="412.998" y="0" type="curve" smooth="yes"/>
      <point x="290.202" y="0" type="line" smooth="yes"/>
      <point x="264.211" y="0"/>
      <point x="246.166" y="8.12695"/>
      <point x="241.202" y="28" type="curve"/>
      <point x="236.974" y="9.81934"/>
      <point x="217" y="0"/>
      <point x="194.202" y="0" type="curve" smooth="yes"/>
      <point x="69.998" y="0" type="line" smooth="yes"/>
      <point x="33" y="0"/>
      <point x="22" y="16.273"/>
      <point x="22" y="54" type="curve" smooth="yes"/>
      <point x="22" y="187.805" type="line" smooth="yes"/>
      <point x="22" y="208.64"/>
      <point x="29.918" y="231.739"/>
      <point x="51" y="243.805" type="curve"/>
      <point x="60.1592" y="257.421"/>
      <point x="61.9033" y="274.805"/>
      <point x="78" y="274.805" type="curve" smooth="yes"/>
      <point x="207.374" y="274.805" type="line"/>
      <point x="207.374" y="356.805" type="line" smooth="yes"/>
      <point x="207.374" y="379.784"/>
      <point x="194.638" y="386.805"/>
      <point x="171.374" y="386.805" type="curve" smooth="yes"/>
      <point x="23" y="386.805" type="line"/>
      <point x="23" y="418.805" type="line"/>
      <point x="181.374" y="418.805" type="line" smooth="yes"/>
      <point x="222.707" y="418.805"/>
      <point x="243.374" y="399.805"/>
      <point x="243.374" y="361.805" type="curve" smooth="yes"/>
      <point x="243.374" y="242.805" type="line"/>
      <point x="126.574" y="242.805" type="line" smooth="yes"/>
      <point x="72.2764" y="242.805"/>
      <point x="59" y="209.805"/>
      <point x="58.875" y="173.805" type="curve" smooth="yes"/>
      <point x="59" y="55.8926" type="line" smooth="yes"/>
      <point x="59.0169" y="39.9642"/>
      <point x="65.7998" y="32"/>
      <point x="79.1934" y="32" type="curve" smooth="yes"/>
      <point x="182.399" y="32" type="line" smooth="yes"/>
      <point x="206" y="32"/>
      <point x="222.401" y="38.9307"/>
      <point x="222.401" y="78" type="curve" smooth="yes"/>
      <point x="222.401" y="147" type="line"/>
      <point x="259.398" y="147" type="line"/>
      <point x="259.398" y="78.002" type="line" smooth="yes"/>
      <point x="259.398" y="39.5283"/>
      <point x="276.043" y="32"/>
      <point x="301.4" y="32" type="curve" smooth="yes"/>
      <point x="395.398" y="32" type="line" smooth="yes"/>
      <point x="417.689" y="32"/>
      <point x="422.798" y="42.2316"/>
      <point x="422.798" y="62" type="curve" smooth="yes"/>
    </contour>
    <contour>
      <point x="459.999" y="456.215" type="line"/>
      <point x="174.197" y="456.215" type="line" smooth="yes"/>
      <point x="140.908" y="456.215"/>
      <point x="128.414" y="467.187"/>
      <point x="128.414" y="503.601" type="curve" smooth="yes"/>
      <point x="128.414" y="631.998" type="line"/>
      <point x="59.6152" y="631.998" type="line"/>
      <point x="59.6152" y="664" type="line"/>
      <point x="180.997" y="664" type="line" smooth="yes"/>
      <point x="212.188" y="664"/>
      <point x="230.675" y="663.334"/>
      <point x="266.197" y="645" type="curve" smooth="yes"/>
      <point x="266.674" y="644.894"/>
      <point x="390.197" y="581"/>
      <point x="390.197" y="581" type="curve" smooth="yes"/>
      <point x="426.604" y="565.041"/>
      <point x="459.999" y="546"/>
      <point x="460.197" y="494" type="curve" smooth="yes"/>
    </contour>
    <contour>
      <point x="165.398" y="631.999" type="line"/>
      <point x="165.398" y="510.601" type="line" smooth="yes"/>
      <point x="165.398" y="490.33"/>
      <point x="171.324" y="488.217"/>
      <point x="191.197" y="488.217" type="curve" smooth="yes"/>
      <point x="423.001" y="488.217" type="line"/>
      <point x="423.001" y="494.198" type="line" smooth="yes"/>
      <point x="423.001" y="527.531"/>
      <point x="400.631" y="538.494"/>
      <point x="377.197" y="550.399" type="curve" smooth="yes"/>
      <point x="239.797" y="621.802" type="line" smooth="yes"/>
      <point x="222.093" y="630.918"/>
      <point x="199.424" y="631.929"/>
      <point x="179.197" y="631.971" type="curve" smooth="yes"/>
    </contour>
    <contour>
      <point x="-6" y="274.742" type="line"/>
      <point x="130.574" y="274.742" type="line"/>
      <point x="130.574" y="242.805" type="line"/>
      <point x="-6" y="242.805" type="line"/>
    </contour>
    <contour>
      <point x="423.196" y="708" type="line"/>
      <point x="460.198" y="708" type="line"/>
      <point x="460.198" y="480" type="line"/>
      <point x="423.197" y="480" type="line"/>
    </contour>
  </outline>
</glyph>
<glyph name="si_DdhI" format="1">
  <advance width="513"/>
  <outline>
    <contour>
      <point x="232" y="454.006" type="line"/>
      <point x="74" y="454.006" type="line" smooth="yes"/>
      <point x="36.6289" y="454.006"/>
      <point x="22.002" y="473.567"/>
      <point x="22" y="505.393" type="curve" smooth="yes"/>
      <point x="21.9912" y="614" type="line" smooth="yes"/>
      <point x="21.9887" y="646.531"/>
      <point x="41.0853" y="672.005"/>
      <point x="87" y="672.005" type="curve" smooth="yes"/>
      <point x="460.204" y="672.005" type="line"/>
      <point x="460.204" y="640" type="line"/>
      <point x="93" y="640" type="line" smooth="yes"/>
      <point x="70.5088" y="640"/>
      <point x="58.998" y="630.25"/>
      <point x="58.998" y="608" type="curve" smooth="yes"/>
      <point x="58.998" y="514.997" type="line" smooth="yes"/>
      <point x="58.998" y="493.836"/>
      <point x="65.9365" y="486.001"/>
      <point x="83" y="486.001" type="curve" smooth="yes"/>
      <point x="232.001" y="486.001" type="line"/>
    </contour>
    <contour>
      <point x="261.431" y="555.984" type="line"/>
      <point x="261.431" y="466.183" type="line" smooth="yes"/>
      <point x="261.431" y="444.826"/>
      <point x="267.49" y="443.387"/>
      <point x="284" y="443.387" type="curve" smooth="yes"/>
      <point x="423.003" y="443.387" type="line"/>
      <point x="423.004" y="519.984" type="line" smooth="yes"/>
      <point x="423.004" y="544.91"/>
      <point x="417.459" y="555.984"/>
      <point x="386.002" y="555.984" type="curve" smooth="yes"/>
    </contour>
    <contour>
      <point x="460" y="377.984" type="line"/>
      <point x="422.801" y="377.984" type="line"/>
      <point x="422.801" y="410.999" type="line"/>
      <point x="269.997" y="410.999" type="line" smooth="yes"/>
      <point x="236.705" y="410.999"/>
      <point x="224.214" y="421.971"/>
      <point x="224.214" y="458.385" type="curve" smooth="yes"/>
      <point x="224.214" y="556.984" type="line"/>
      <point x="158.597" y="556.984" type="line"/>
      <point x="158.597" y="587.984" type="line"/>
      <point x="393.999" y="587.984" type="line" smooth="yes"/>
      <point x="441.559" y="587.984"/>
      <point x="460" y="572.552"/>
      <point x="460" y="520.984" type="curve" smooth="yes"/>
    </contour>
    <contour>
      <point x="-6" y="258.727" type="line"/>
      <point x="130.574" y="258.727" type="line"/>
      <point x="130.574" y="226.789" type="line"/>
      <point x="-6" y="226.789" type="line"/>
    </contour>
    <contour>
      <point x="22" y="171.789" type="line" smooth="yes"/>
      <point x="22" y="192.624"/>
      <point x="29.918" y="215.724"/>
      <point x="51" y="227.789" type="curve"/>
      <point x="60.1592" y="241.405"/>
      <point x="61.9033" y="258.789"/>
      <point x="78" y="258.789" type="curve" smooth="yes"/>
      <point x="207.374" y="258.789" type="line"/>
      <point x="207.374" y="340.789" type="line" smooth="yes"/>
      <point x="207.374" y="363.769"/>
      <point x="194.638" y="370.789"/>
      <point x="171.374" y="370.789" type="curve" smooth="yes"/>
      <point x="23" y="370.789" type="line"/>
      <point x="23" y="402.789" type="line"/>
      <point x="181.374" y="402.789" type="line" smooth="yes"/>
      <point x="222.707" y="402.789"/>
      <point x="243.374" y="383.789"/>
      <point x="243.374" y="345.789" type="curve" smooth="yes"/>
      <point x="243.374" y="226.789" type="line"/>
      <point x="126.574" y="226.789" type="line" smooth="yes"/>
      <point x="72.2764" y="226.789"/>
      <point x="59" y="193.789"/>
      <point x="58.875" y="157.789" type="curve" smooth="yes"/>
      <point x="59" y="55.8926" type="line" smooth="yes"/>
      <point x="59.0166" y="39.9639"/>
      <point x="65.7998" y="32"/>
      <point x="79.1934" y="32" type="curve" smooth="yes"/>
      <point x="182.399" y="32" type="line" smooth="yes"/>
      <point x="206" y="32"/>
      <point x="222.401" y="38.9307"/>
      <point x="222.401" y="78" type="curve" smooth="yes"/>
      <point x="222.401" y="147" type="line"/>
      <point x="259.398" y="147" type="line"/>
      <point x="259.398" y="78.002" type="line" smooth="yes"/>
      <point x="259.398" y="39.5283"/>
      <point x="276.043" y="32"/>
      <point x="301.4" y="32" type="curve" smooth="yes"/>
      <point x="395.398" y="32" type="line" smooth="yes"/>
      <point x="417.689" y="32"/>
      <point x="422.798" y="42.2314"/>
      <point x="422.798" y="62" type="curve" smooth="yes"/>
      <point x="422.798" y="393.984" type="line"/>
      <point x="459.996" y="393.984" type="line"/>
      <point x="459.996" y="50" type="line" smooth="yes"/>
      <point x="459.996" y="19.6377"/>
      <point x="446.395" y="0"/>
      <point x="412.998" y="0" type="curve" smooth="yes"/>
      <point x="290.202" y="0" type="line" smooth="yes"/>
      <point x="264.211" y="0"/>
      <point x="246.166" y="8.12695"/>
      <point x="241.202" y="28" type="curve"/>
      <point x="236.974" y="9.81934"/>
      <point x="217" y="0"/>
      <point x="194.202" y="0" type="curve" smooth="yes"/>
      <point x="69.998" y="0" type="line" smooth="yes"/>
      <point x="33" y="0"/>
      <point x="22" y="16.2734"/>
      <point x="22" y="54" type="curve" smooth="yes"/>
    </contour>
  </outline>
</glyph>
<glyph name="si_DdhIi" format="1">
  <advance width="513"/>
  <outline>
    <contour>
      <point x="282.003" y="640.004" type="line" smooth="yes"/>
      <point x="272.003" y="640.004"/>
      <point x="267.003" y="634"/>
      <point x="267.003" y="626" type="curve" smooth="yes"/>
      <point x="267.003" y="607.588" type="line" smooth="yes"/>
      <point x="267.003" y="598.944"/>
      <point x="272.336" y="594.588"/>
      <point x="283.003" y="594.588" type="curve" smooth="yes"/>
      <point x="406.797" y="594.588" type="line" smooth="yes"/>
      <point x="417.464" y="594.588"/>
      <point x="422.797" y="599.255"/>
      <point x="422.797" y="608.588" type="curve" smooth="yes"/>
      <point x="422.797" y="628.004" type="line" smooth="yes"/>
      <point x="422.797" y="636.004"/>
      <point x="417.13" y="640.004"/>
      <point x="405.797" y="640.004" type="curve" smooth="yes"/>
    </contour>
    <contour>
      <point x="232" y="421.982" type="line"/>
      <point x="82" y="421.982" type="line" smooth="yes"/>
      <point x="45.3535" y="421.982"/>
      <point x="32" y="442.982"/>
      <point x="32" y="472.982" type="curve" smooth="yes"/>
      <point x="32" y="614" type="line" smooth="yes"/>
      <point x="32" y="648.255"/>
      <point x="50.5791" y="672"/>
      <point x="95" y="672" type="curve" smooth="yes"/>
      <point x="417.398" y="672" type="line" smooth="yes"/>
      <point x="444.029" y="672"/>
      <point x="460.398" y="661.562"/>
      <point x="460.398" y="635" type="curve" smooth="yes"/>
      <point x="460.398" y="599.589" type="line" smooth="yes"/>
      <point x="460.398" y="572.891"/>
      <point x="446.689" y="562.589"/>
      <point x="416.398" y="562.589" type="curve" smooth="yes"/>
      <point x="260" y="562.587" type="line" smooth="yes"/>
      <point x="239.515" y="562.587"/>
      <point x="230" y="571.304"/>
      <point x="230" y="587.589" type="curve" smooth="yes"/>
      <point x="230" y="628" type="line" smooth="yes"/>
      <point x="230" y="634.507"/>
      <point x="231.584" y="637.821"/>
      <point x="234" y="640.002" type="curve"/>
      <point x="103" y="640.002" type="line" smooth="yes"/>
      <point x="81.4937" y="640.002"/>
      <point x="69" y="631.435"/>
      <point x="69" y="611" type="curve" smooth="yes"/>
      <point x="69" y="479.982" type="line" smooth="yes"/>
      <point x="69" y="459.985"/>
      <point x="75.8721" y="453.987"/>
      <point x="91" y="453.987" type="curve" smooth="yes"/>
      <point x="232.002" y="453.987" type="line"/>
    </contour>
    <contour>
      <point x="261.431" y="505.768" type="line"/>
      <point x="261.431" y="432.95" type="line" smooth="yes"/>
      <point x="261.431" y="411.594"/>
      <point x="267.49" y="410.154"/>
      <point x="284" y="410.154" type="curve" smooth="yes"/>
      <point x="423.003" y="410.154" type="line"/>
      <point x="423.004" y="469.768" type="line" smooth="yes"/>
      <point x="423.004" y="494.693"/>
      <point x="417.459" y="505.768"/>
      <point x="386.002" y="505.768" type="curve" smooth="yes"/>
    </contour>
    <contour>
      <point x="460" y="344.752" type="line"/>
      <point x="422.801" y="344.752" type="line"/>
      <point x="422.801" y="377.767" type="line"/>
      <point x="269.997" y="377.767" type="line" smooth="yes"/>
      <point x="236.705" y="377.767"/>
      <point x="224.214" y="388.738"/>
      <point x="224.214" y="425.152" type="curve" smooth="yes"/>
      <point x="224.214" y="506.768" type="line"/>
      <point x="158.597" y="506.768" type="line"/>
      <point x="158.597" y="537.768" type="line"/>
      <point x="393.999" y="537.768" type="line" smooth="yes"/>
      <point x="441.559" y="537.768"/>
      <point x="460" y="522.335"/>
      <point x="460" y="470.768" type="curve" smooth="yes"/>
    </contour>
    <contour>
      <point x="-6" y="242.711" type="line"/>
      <point x="130.574" y="242.711" type="line"/>
      <point x="130.574" y="210.773" type="line"/>
      <point x="-6" y="210.773" type="line"/>
    </contour>
    <contour>
      <point x="422.798" y="360.752" type="line"/>
      <point x="459.996" y="360.752" type="line"/>
      <point x="459.996" y="50" type="line" smooth="yes"/>
      <point x="459.996" y="19.6377"/>
      <point x="446.395" y="-0"/>
      <point x="412.998" y="0" type="curve" smooth="yes"/>
      <point x="290.202" y="0" type="line" smooth="yes"/>
      <point x="264.211" y="0"/>
      <point x="246.166" y="8.12695"/>
      <point x="241.202" y="28" type="curve"/>
      <point x="236.974" y="9.81934"/>
      <point x="217" y="0"/>
      <point x="194.202" y="0" type="curve" smooth="yes"/>
      <point x="69.998" y="0" type="line" smooth="yes"/>
      <point x="33" y="0"/>
      <point x="22" y="16.2734"/>
      <point x="22" y="54" type="curve" smooth="yes"/>
      <point x="22" y="155.773" type="line" smooth="yes"/>
      <point x="22" y="176.608"/>
      <point x="29.918" y="199.708"/>
      <point x="51" y="211.773" type="curve"/>
      <point x="60.1592" y="225.39"/>
      <point x="61.9033" y="242.773"/>
      <point x="78" y="242.773" type="curve" smooth="yes"/>
      <point x="207.374" y="242.773" type="line"/>
      <point x="207.374" y="307.557" type="line" smooth="yes"/>
      <point x="207.374" y="330.536"/>
      <point x="194.638" y="337.557"/>
      <point x="171.374" y="337.557" type="curve" smooth="yes"/>
      <point x="23" y="337.557" type="line"/>
      <point x="23" y="369.557" type="line"/>
      <point x="181.374" y="369.557" type="line" smooth="yes"/>
      <point x="222.707" y="369.557"/>
      <point x="243.374" y="350.557"/>
      <point x="243.374" y="312.557" type="curve" smooth="yes"/>
      <point x="243.374" y="210.773" type="line"/>
      <point x="126.574" y="210.773" type="line" smooth="yes"/>
      <point x="72.2764" y="210.773"/>
      <point x="59" y="177.773"/>
      <point x="58.875" y="141.773" type="curve" smooth="yes"/>
      <point x="59" y="55.8926" type="line" smooth="yes"/>
      <point x="59.0166" y="39.9639"/>
      <point x="65.7998" y="32"/>
      <point x="79.1934" y="32" type="curve" smooth="yes"/>
      <point x="182.399" y="32" type="line" smooth="yes"/>
      <point x="206" y="32"/>
      <point x="222.401" y="38.9307"/>
      <point x="222.401" y="78" type="curve" smooth="yes"/>
      <point x="222.401" y="134.788" type="line"/>
      <point x="259.398" y="134.788" type="line"/>
      <point x="259.398" y="78.002" type="line" smooth="yes"/>
      <point x="259.398" y="39.5283"/>
      <point x="276.043" y="32"/>
      <point x="301.4" y="32" type="curve" smooth="yes"/>
      <point x="395.398" y="32" type="line" smooth="yes"/>
      <point x="417.689" y="32"/>
      <point x="422.798" y="42.2314"/>
      <point x="422.798" y="62" type="curve" smooth="yes"/>
    </contour>
  </outline>
</glyph>
<glyph name="si_DhI" format="1">
  <advance width="515"/>
  <outline>
    <contour>
      <point x="461.001" y="400" type="line"/>
      <point x="423.601" y="400" type="line"/>
      <point x="423.601" y="476" type="line" smooth="yes"/>
      <point x="423.601" y="499.381"/>
      <point x="417.128" y="509.5"/>
      <point x="392.001" y="509.5" type="curve" smooth="yes"/>
      <point x="70.001" y="509.5" type="line" smooth="yes"/>
      <point x="38.668" y="509.5"/>
      <point x="23.001" y="525.5"/>
      <point x="23.001" y="557.5" type="curve" smooth="yes"/>
      <point x="23.001" y="620" type="line" smooth="yes"/>
      <point x="23.001" y="653.415"/>
      <point x="37.1045" y="672"/>
      <point x="73.001" y="672" type="curve" smooth="yes"/>
      <point x="459.501" y="672" type="line"/>
      <point x="459.501" y="640" type="line"/>
      <point x="85.001" y="640" type="line" smooth="yes"/>
      <point x="64.084" y="640"/>
      <point x="59.876" y="635.559"/>
      <point x="59.876" y="611" type="curve" smooth="yes"/>
      <point x="59.876" y="566" type="line" smooth="yes"/>
      <point x="59.876" y="552.489"/>
      <point x="61.4336" y="541.5"/>
      <point x="84.001" y="541.5" type="curve" smooth="yes"/>
      <point x="392.001" y="541.5" type="line" smooth="yes"/>
      <point x="448.815" y="541.5"/>
      <point x="461.001" y="524.085"/>
      <point x="461.001" y="466" type="curve" smooth="yes"/>
    </contour>
    <contour>
      <point x="460.975" y="428" type="line"/>
      <point x="460.975" y="50" type="line" smooth="yes"/>
      <point x="460.975" y="19.6377"/>
      <point x="447.373" y="0"/>
      <point x="413.977" y="0" type="curve" smooth="yes"/>
      <point x="289.791" y="0" type="line" smooth="yes"/>
      <point x="263.791" y="0"/>
      <point x="247.457" y="12.333"/>
      <point x="240.791" y="37" type="curve"/>
      <point x="237.617" y="16.3779"/>
      <point x="217.061" y="0"/>
      <point x="193.791" y="0" type="curve" smooth="yes"/>
      <point x="69" y="0" type="line" smooth="yes"/>
      <point x="37.6096" y="0"/>
      <point x="22" y="15.0176"/>
      <point x="22" y="48" type="curve" smooth="yes"/>
      <point x="22" y="345.003" type="line" smooth="yes"/>
      <point x="22" y="383.558"/>
      <point x="40.0205" y="410.003"/>
      <point x="81" y="410.003" type="curve" smooth="yes"/>
      <point x="247.186" y="410.003" type="line"/>
      <point x="247.187" y="377.805" type="line"/>
      <point x="93" y="377.805" type="line" smooth="yes"/>
      <point x="66.3867" y="377.805"/>
      <point x="59" y="363.44"/>
      <point x="59" y="342.003" type="curve" smooth="yes"/>
      <point x="59" y="58" type="line" smooth="yes"/>
      <point x="59" y="42.2284"/>
      <point x="62.9558" y="32"/>
      <point x="82" y="32" type="curve" smooth="yes"/>
      <point x="175.988" y="32" type="line" smooth="yes"/>
      <point x="215.117" y="32"/>
      <point x="221.988" y="65.5214"/>
      <point x="221.988" y="100.802" type="curve" smooth="yes"/>
      <point x="221.988" y="229" type="line"/>
      <point x="259.188" y="229" type="line"/>
      <point x="259.188" y="101" type="line" smooth="yes"/>
      <point x="259.188" y="66.1649"/>
      <point x="268.267" y="32"/>
      <point x="309.988" y="32" type="curve" smooth="yes"/>
      <point x="401.977" y="32" type="line" smooth="yes"/>
      <point x="418.903" y="32"/>
      <point x="423.582" y="43.6895"/>
      <point x="423.582" y="60" type="curve" smooth="yes"/>
      <point x="423.582" y="428" type="line"/>
    </contour>
  </outline>
</glyph>
<glyph name="si_FU" format="1">
  <advance width="564"/>
  <outline>
    <contour>
      <point x="511" y="-159" type="line"/>
      <point x="24.001" y="-159" type="line"/>
      <point x="24.001" y="-126.904" type="line"/>
      <point x="473.912" y="-126.904" type="line"/>
      <point x="473.912" y="28" type="line"/>
      <point x="478.912" y="28" type="line" smooth="yes"/>
      <point x="487.374" y="28"/>
      <point x="505.667" y="38"/>
      <point x="511" y="64" type="curve"/>
    </contour>
    <component base="si_Fa"/>
  </outline>
</glyph>
<glyph name="si_GDha" format="1">
  <advance width="886"/>
  <outline>
    <contour>
      <point x="22" y="441.999" type="line" smooth="yes"/>
      <point x="22" y="478.666"/>
      <point x="40.333" y="496.999"/>
      <point x="77" y="496.999" type="curve" smooth="yes"/>
      <point x="185.997" y="497" type="line"/>
      <point x="185.997" y="465" type="line"/>
      <point x="88.8066" y="464.999" type="line" smooth="yes"/>
      <point x="65.917" y="464.999"/>
      <point x="59.0039" y="459.096"/>
      <point x="59.0039" y="435.999" type="curve" smooth="yes"/>
      <point x="59" y="59.8008" type="line" smooth="yes"/>
      <point x="59" y="40.5879"/>
      <point x="62.9168" y="32"/>
      <point x="82" y="32" type="curve" smooth="yes"/>
      <point x="246.997" y="32" type="line" smooth="yes"/>
      <point x="274.132" y="32"/>
      <point x="283.583" y="37.6572"/>
      <point x="283.583" y="64" type="curve" smooth="yes"/>
      <point x="283.583" y="231.996" type="line" smooth="yes"/>
      <point x="283.583" y="245.996"/>
      <point x="279.144" y="252.996"/>
      <point x="264.997" y="252.996" type="curve" smooth="yes"/>
      <point x="218.583" y="252.996" type="line"/>
      <point x="252.583" y="446" type="line" smooth="yes"/>
      <point x="258.583" y="480"/>
      <point x="282.583" y="497"/>
      <point x="324.583" y="497" type="curve" smooth="yes"/>
      <point x="470.977" y="497" type="line"/>
      <point x="470.999" y="465" type="line"/>
      <point x="328.997" y="465" type="line" smooth="yes"/>
      <point x="300.491" y="465"/>
      <point x="290.479" y="454.047"/>
      <point x="286.997" y="435" type="curve" smooth="yes"/>
      <point x="259.575" y="285" type="line"/>
      <point x="283.583" y="285" type="line" smooth="yes"/>
      <point x="308.25" y="285"/>
      <point x="320.583" y="270.667"/>
      <point x="320.583" y="242" type="curve" smooth="yes"/>
      <point x="320.583" y="60" type="line" smooth="yes"/>
      <point x="320.583" y="12.6074"/>
      <point x="301.183" y="0"/>
      <point x="253.583" y="0" type="curve" smooth="yes"/>
      <point x="70" y="0" type="line" smooth="yes"/>
      <point x="33.3613" y="0"/>
      <point x="22" y="19.0518"/>
      <point x="22" y="56" type="curve" smooth="yes"/>
    </contour>
    <component base="si_Dha" xOffset="375"/>
  </outline>
</glyph>
<glyph name="si_Gh.halant" format="1">
  <advance width="562"/>
  <outline>
    <contour>
      <point x="472.2" y="492" type="line"/>
      <point x="472.2" y="649" type="line"/>
      <point x="508.99" y="649" type="line"/>
      <point x="508.99" y="468" type="line"/>
      <point x="506.624" y="473.675"/>
      <point x="500.386" y="478.213"/>
      <point x="493" y="485" type="curve" smooth="yes"/>
      <point x="489.79" y="487.949"/>
      <point x="480.329" y="492"/>
      <point x="474.6" y="492" type="curve" smooth="yes"/>
    </contour>
    <component base="si_Gha"/>
  </outline>
</glyph>
<glyph name="si_GhI" format="1">
  <advance width="562"/>
  <outline>
    <contour>
      <point x="22.1943" y="511" type="line"/>
      <point x="22.1943" y="595.803" type="line" smooth="yes"/>
      <point x="22.1943" y="625.797"/>
      <point x="39.1104" y="640"/>
      <point x="66.1943" y="640" type="curve" smooth="yes"/>
      <point x="466" y="640" type="line" smooth="yes"/>
      <point x="491.332" y="640"/>
      <point x="507" y="628.565"/>
      <point x="507" y="597" type="curve" smooth="yes"/>
      <point x="507" y="511" type="line"/>
      <point x="469.999" y="511" type="line"/>
      <point x="469.999" y="587" type="line" smooth="yes"/>
      <point x="469.999" y="599.878"/>
      <point x="464.834" y="608.006"/>
      <point x="450" y="608.006" type="curve" smooth="yes"/>
      <point x="77.2041" y="608.006" type="line" smooth="yes"/>
      <point x="64.0898" y="608.006"/>
      <point x="59" y="600"/>
      <point x="59" y="588" type="curve" smooth="yes"/>
      <point x="59" y="511" type="line"/>
    </contour>
    <component base="si_Gha"/>
  </outline>
</glyph>
<glyph name="si_GhRI" format="1">
  <advance width="562"/>
  <outline>
    <contour>
      <point x="22.1943" y="-21" type="line"/>
      <point x="22.1943" y="-105.803" type="line" smooth="yes"/>
      <point x="22.1943" y="-135.797"/>
      <point x="39.1104" y="-150"/>
      <point x="66.1943" y="-150" type="curve" smooth="yes"/>
      <point x="467.202" y="-150" type="line" smooth="yes"/>
      <point x="492.535" y="-150"/>
      <point x="508.202" y="-138.565"/>
      <point x="508.202" y="-107" type="curve" smooth="yes"/>
      <point x="508.202" y="-21" type="line"/>
      <point x="471.201" y="-21" type="line"/>
      <point x="471.201" y="-97" type="line" smooth="yes"/>
      <point x="471.201" y="-109.878"/>
      <point x="466.036" y="-118.006"/>
      <point x="451.202" y="-118.006" type="curve" smooth="yes"/>
      <point x="77.2041" y="-118.006" type="line" smooth="yes"/>
      <point x="64.0898" y="-118.006"/>
      <point x="59" y="-110"/>
      <point x="59" y="-98" type="curve" smooth="yes"/>
      <point x="59" y="-21" type="line"/>
    </contour>
    <component base="si_GhI"/>
  </outline>
</glyph>
<glyph name="si_HU" format="1">
  <advance width="590"/>
  <outline>
    <contour>
      <point x="537.999" y="-159" type="line"/>
      <point x="24.7969" y="-159" type="line"/>
      <point x="24.7969" y="-126.904" type="line"/>
      <point x="500.911" y="-126.904" type="line"/>
      <point x="500.911" y="35.8076" type="line"/>
      <point x="505.911" y="35.8076" type="line" smooth="yes"/>
      <point x="514.373" y="35.8076"/>
      <point x="532.666" y="45.8076"/>
      <point x="537.999" y="71.8076" type="curve"/>
    </contour>
    <component base="si_Ha"/>
  </outline>
</glyph>
